<svg width="26" height="31" viewBox="0 0 26 31" fill="none" xmlns="http://www.w3.org/2000/svg">
<g opacity="0.7" clip-path="url(#clip0_939_2774)">
<path d="M24.5684 22.666C24.5641 22.7778 24.5599 22.8881 24.5556 23C24.3087 23.1162 24.0475 23.0998 23.7849 23.0998C18.1551 23.1118 12.5253 23.1267 6.89686 23.1416C5.97639 23.1446 5.04879 23.0834 4.13974 23.1893C3.27493 23.2907 2.44865 23.1431 1.60809 23.0447C1.33695 22.6913 1.31982 22.2769 1.31982 21.846C1.32553 16.6547 1.32553 11.4635 1.32839 6.27221C1.32839 4.53533 2.46006 3.33815 4.14973 3.32175C6.17048 3.30237 8.19122 3.31131 10.212 3.30833C10.4018 3.44102 10.6158 3.43356 10.8299 3.4276C12.4568 3.3784 14.0822 3.33069 15.7091 3.28149C17.7769 3.2964 19.8433 3.30535 21.9112 3.32622C23.3112 3.33964 24.3572 4.28188 24.5684 5.7012C24.3315 5.88756 24.4314 6.15741 24.4314 6.3885C24.4257 11.5842 24.4257 16.78 24.4314 21.9757C24.4314 22.2083 24.3344 22.4767 24.5698 22.6645L24.5684 22.666ZM12.6951 21.6209C15.0255 21.6209 17.3545 21.6164 19.6849 21.6224C20.9137 21.6254 21.426 21.1214 21.4274 19.8363C21.4345 15.638 21.4374 11.4411 21.4374 7.24278C21.4374 5.9308 20.9222 5.40004 19.6521 5.40004C15.0398 5.39706 10.4275 5.39855 5.81513 5.40153C4.46654 5.40153 4.00987 5.87265 4.00845 7.27856C4.00559 11.4769 4.00845 15.6737 4.01558 19.8721C4.01701 21.1363 4.49508 21.6224 5.70525 21.6209C8.03567 21.6209 10.3647 21.6209 12.6951 21.6179V21.6209Z" fill="#282F56"/>
<path d="M1.60841 23.0461C2.44896 23.1445 3.27524 23.2921 4.14005 23.1907C5.04911 23.0833 5.97814 23.1445 6.89718 23.143C12.527 23.1266 18.1568 23.1132 23.7853 23.1012C24.0464 23.1012 24.309 23.1176 24.5559 23.0013C25.5891 23.3025 26.0986 23.9764 25.9858 24.8933C25.8731 25.8102 25.1924 26.3693 24.1492 26.3782C22.939 26.3871 21.7288 26.3797 20.4088 26.3797C20.8583 27.3115 21.275 28.1628 21.6832 29.0201C22.0371 29.764 21.9115 30.2187 21.2379 30.6466C20.4345 31.155 18.8747 31.1654 18.2739 29.8967C17.7801 28.8546 17.145 27.887 16.6099 26.8657C16.4287 26.5183 16.2389 26.3693 15.8478 26.3737C13.8756 26.3961 11.902 26.3931 9.92972 26.3767C9.5544 26.3737 9.3332 26.4781 9.15482 26.8493C8.65534 27.89 8.10163 28.9023 7.58217 29.934C6.96853 31.152 5.51719 31.3682 4.59672 30.3693C4.1743 29.9101 4.20713 29.3823 4.41548 28.8486C4.72801 28.051 5.06195 27.2623 5.423 26.3797C4.14719 26.3797 2.94416 26.3946 1.74113 26.3752C0.576632 26.3573 -0.112649 25.5612 0.0157885 24.4281C0.108549 23.6245 0.598038 23.1996 1.60841 23.0461Z" fill="#BA8D3B"/>
<path d="M15.7095 3.28293C14.0826 3.33213 12.4571 3.37984 10.8303 3.42904C10.6162 3.435 10.4021 3.44246 10.2123 3.30977C10.2138 2.74174 10.1995 2.17222 10.2209 1.60419C10.2594 0.550137 10.7817 0.0193815 11.7778 0.00745443C12.5827 -0.00149089 13.3876 -0.00447266 14.191 0.0104362C15.1572 0.026836 15.6638 0.557591 15.6952 1.57736C15.7123 2.14539 15.7037 2.7149 15.708 3.28293H15.7095Z" fill="#BA8D3B"/>
<path d="M12.6954 21.6224C10.3649 21.6224 8.03595 21.6224 5.70552 21.6224C4.49536 21.6224 4.01728 21.1378 4.01586 19.8736C4.01015 15.6752 4.00587 11.4784 4.00872 7.28004C4.00872 5.87414 4.46681 5.40451 5.81541 5.40302C10.4277 5.40004 15.0401 5.39855 19.6524 5.40153C20.9225 5.40153 21.4377 5.93228 21.4377 7.24426C21.4377 11.4426 21.4348 15.6394 21.4277 19.8378C21.4248 21.1229 20.9139 21.6268 19.6852 21.6239C17.3548 21.6164 15.0258 21.6224 12.6954 21.6239V21.6224ZM15.8107 8.55624C13.9426 8.72769 11.7121 9.02736 9.96536 10.7046C8.68812 11.9301 8.19578 13.4941 8.60107 15.2995C8.71524 15.8049 8.63389 17.4553 8.41983 17.9324C8.40984 17.9548 8.39557 17.9757 8.38273 17.9965C8.25286 18.2246 8.37987 18.3722 8.53542 18.5005C8.7081 18.6421 8.85366 18.5511 8.96498 18.4065C9.12766 18.1933 9.29891 17.9816 9.42307 17.7446C9.66567 17.2854 9.88544 17.2004 10.4206 17.427C12.9551 18.496 15.0458 17.9801 16.206 15.1489C16.9195 13.4061 17.1921 11.5857 17.2792 9.71913C17.3348 8.52643 17.3191 8.52643 15.8093 8.55624H15.8107Z" fill="white"/>
<path d="M15.8108 8.55614C17.3193 8.52483 17.3364 8.52632 17.2807 9.71903C17.1937 11.5856 16.9211 13.406 16.2076 15.1488C15.0488 17.98 12.9567 18.4959 10.4222 17.4269C9.88702 17.2003 9.66725 17.2853 9.42465 17.7445C9.29907 17.9815 9.12924 18.1932 8.96656 18.4064C8.85524 18.5525 8.70968 18.6435 8.53701 18.5004C8.38145 18.3721 8.25444 18.223 8.38431 17.9964C8.39572 17.9756 8.41142 17.9547 8.42141 17.9323C8.63547 17.4552 8.71539 15.8048 8.60265 15.2994C8.19736 13.4954 8.69113 11.93 9.96694 10.7045C11.7137 9.02726 13.9442 8.7261 15.8123 8.55614H15.8108Z" fill="#60C795"/>
</g>
<defs>
<clipPath id="clip0_939_2774">
<rect width="26" height="31" fill="white"/>
</clipPath>
</defs>
</svg>
