<svg width="428" height="790" viewBox="0 0 428 790" fill="none" xmlns="http://www.w3.org/2000/svg">
<g opacity="0.13" clip-path="url(#clip0_400_1047)">
<path d="M509 102.596C507.048 99.6259 505.564 96.1633 503.049 93.7845C498.294 89.2848 492.385 88.113 485.947 89.8942C482.178 90.9371 479.387 89.2262 478.496 85.541C476.532 77.4087 467.556 70.249 459.142 69.7452C445.705 68.9366 435.762 77.6138 433.909 89.7477C433.487 92.519 430.256 94.5755 427.043 94.3177C417.499 93.5384 410.487 98.2784 407.872 107.284C404.788 117.877 413.154 129.46 424.218 129.53C445.805 129.671 467.397 129.513 488.984 129.647C497.966 129.706 503.729 125.153 507.775 117.689C508.173 116.951 508.59 116.219 509 115.48V132.471C502.387 137.797 494.841 140.164 486.346 140.117C466.131 140.006 445.91 140.094 425.695 140.076C412.92 140.065 401.511 131.405 398.022 119.125C393.602 103.557 404.407 86.8241 420.518 84.4863C423.262 84.0879 424.734 83.1564 425.877 80.3792C431.382 67.009 441.847 59.8025 456.053 59.4275C469.221 59.076 479.668 64.9525 486.246 76.7935C486.668 77.5552 487.085 78.3286 487.642 79.3363C495.627 78.2114 502.715 80.5901 509 85.5995V102.591V102.596Z" fill="#D0D0D0"/>
<path d="M11.3161 714.361C5.1074 722.616 -0.872696 730.397 -6.63586 738.336C-8.20709 740.498 -9.23895 743.081 -10.3529 745.548C-12.9618 751.331 -11.8362 756.733 -7.69116 761.209C-3.53442 765.697 1.99423 767.009 7.84533 765.369C17.2493 762.732 25.299 757.36 33.0965 751.741C39.1763 747.364 44.8457 742.425 50.6968 737.732C51.2303 737.304 51.7227 736.824 52.2856 736.443C57.4449 732.916 61.8185 734.844 62.7742 741.043C64.3806 751.501 60.9919 760.606 54.8359 768.773C46.1062 780.356 33.7825 786.157 19.9462 788.576C-1.93973 792.408 -22.6355 788.559 -41.5959 776.864C-59.8469 765.603 -72.3816 749.86 -76.9077 728.598C-81.5276 706.902 -76.2218 687.327 -62.6024 670.073C-52.2018 656.896 -38.4124 648.799 -21.8792 646.033C-8.85786 643.854 4.02863 644.457 15.3146 652.549C26.536 660.593 28.5939 674.819 20.4035 686.003C18.9671 687.966 17.4252 689.847 15.9067 691.745C8.88306 700.522 8.11503 704.693 11.3044 714.367L11.3161 714.361ZM-46.8842 679.142C-47.576 686.203 -41.0507 695.378 -30.2924 695.512C-21.1874 695.624 -13.8295 687.954 -13.8237 678.633C-13.812 669.598 -20.9822 662.884 -30.3803 662.685C-38.7173 662.509 -47.5936 670.448 -46.8783 679.142H-46.8842ZM-51.9321 703.147C-58.1349 703.141 -62.9542 707.81 -62.9835 713.869C-63.0187 719.968 -58.2287 724.837 -52.1666 724.86C-45.9989 724.883 -41.0213 719.98 -40.9862 713.857C-40.951 707.74 -45.6413 703.153 -51.9321 703.147ZM-41.6369 752.397C-37.0581 752.415 -32.8192 748.22 -32.8368 743.685C-32.8486 738.91 -36.8646 734.908 -41.5666 734.978C-46.3155 735.049 -50.3374 739.033 -50.3667 743.691C-50.396 748.436 -46.4445 752.38 -41.6428 752.397H-41.6369Z" fill="#D0D0D0"/>
<path d="M346.863 390.401C345.808 408.487 341.663 422.947 329.844 434.226C318.71 444.848 305.636 448.311 290.633 444.426C269.087 438.849 255.82 424.6 248.315 404.286C243.625 391.596 238.976 378.888 234.356 366.168C232.937 362.254 233.752 359.741 237.058 357.286C256.781 342.656 278.896 333.504 302.898 328.782C308.028 327.774 313.24 326.966 318.452 326.585C325.781 326.046 330.137 328.823 332.083 336.147C335.531 349.113 340.004 361.797 343.686 374.71C345.345 380.534 346.119 386.604 346.863 390.395V390.401ZM299.673 426.844C301.327 426.709 303.015 426.761 304.622 426.41C318.089 423.434 325.617 414.024 325.4 400.203C325.37 398.34 324.245 396.494 323.623 394.637C321.999 395.521 320.193 396.172 318.792 397.326C311.933 402.951 304.592 407.597 295.528 408.44C291.401 408.827 287.203 408.417 283.047 408.564C281.51 408.616 279.623 408.821 278.597 409.735C277.963 410.304 278.374 412.436 278.79 413.714C280.578 419.162 291.243 427.547 299.673 426.844ZM262.978 390.383C264.01 390.178 264.262 390.202 264.368 390.09C264.966 389.457 265.522 388.784 266.109 388.139C270.383 383.411 275.642 381.378 282.009 382.216C283 382.345 284.049 382.011 285.069 381.893C284.676 380.88 284.524 379.65 283.85 378.888C280.83 375.484 276.885 374.148 272.564 375.39C267.75 376.773 264.25 380.013 262.843 384.923C262.374 386.563 262.896 388.485 262.972 390.383H262.978ZM324.256 369.139C322.914 365.465 320.094 364.199 317.145 363.18C310.062 360.731 302.781 364.34 301.086 371.3C300.735 372.748 301.397 374.441 301.597 376.017C302.746 375.372 304.106 374.933 305.015 374.042C308.304 370.814 311.81 368.219 316.74 368.582C319.144 368.758 321.542 368.939 324.256 369.144V369.139Z" fill="#D0D0D0"/>
<path d="M-9.88978 141.43C-13.8179 147.23 -17.9629 152.638 -21.3164 158.497C-24.7169 164.455 -25.2328 170.918 -21.293 177.011C-17.2476 183.263 -9.08071 185.407 -1.28315 182.46C5.82846 179.777 11.8379 175.283 17.4779 170.367C25.7093 163.19 33.7238 155.761 41.838 148.449C42.1721 148.15 42.5591 147.91 43.2392 147.412C45.7954 159.932 43.5616 171.088 36.1276 181.019C27.8317 192.098 16.1822 197.811 2.9205 200.324C-15.606 203.839 -32.9717 200.646 -49.0007 190.528C-65.616 180.04 -76.5267 165.434 -79.9975 146.017C-83.1458 128.393 -78.8191 112.264 -67.8204 98.1143C-58.2933 85.8515 -45.653 78.5395 -30.3804 75.8795C-23.685 74.7136 -16.9721 74.9479 -10.4761 77.1451C1.79484 81.2873 4.90214 94.3763 -0.356819 104.993C-2.86611 110.055 -6.82938 114.414 -10.2415 119.007C-13.8648 123.876 -16.5324 129.003 -13.9469 135.143C-12.9209 137.58 -11.0565 139.66 -9.88978 141.43ZM-51.6683 106.428C-51.7562 114.701 -45.014 121.574 -36.6008 121.785C-28.4222 121.99 -21.164 114.765 -21.1816 106.428C-21.1992 98.6416 -28.2287 91.5933 -36.1201 91.4585C-44.8498 91.3062 -51.5745 97.7803 -51.6683 106.428ZM-45.0961 136.825C-45.143 131.37 -49.9153 126.653 -55.3795 126.659C-61.0547 126.659 -66.0557 131.663 -65.9677 137.246C-65.8739 142.83 -60.9316 147.728 -55.4909 147.634C-49.8274 147.535 -45.0492 142.566 -45.1019 136.825H-45.0961ZM-43.9997 171.744C-39.3036 171.785 -35.7859 168.422 -35.7097 163.834C-35.6393 159.329 -39.2508 155.573 -43.7066 155.526C-48.2503 155.479 -51.979 159.042 -52.0611 163.512C-52.1432 167.9 -48.4086 171.709 -43.9939 171.75L-43.9997 171.744Z" fill="#D0D0D0"/>
<path d="M398.14 524.864C423.069 524.864 447.106 524.864 471.138 524.864C476.848 524.864 477.915 525.93 477.915 531.707C477.915 550.257 477.915 568.806 477.915 587.356C477.915 591.609 476.485 593.01 472.117 593.01C436.26 593.01 400.403 593.01 364.546 593.01C360.454 593.01 358.912 591.481 358.912 587.409C358.912 569.838 358.994 552.261 358.835 534.69C358.806 531.672 358.003 528.596 357.129 525.673C355.804 521.232 354.122 516.89 352.556 512.519C350.991 508.148 351.788 506.215 356.056 504.598C378.323 496.167 400.596 487.747 422.881 479.357C433.657 475.303 444.462 471.319 455.255 467.3C459.137 465.853 460.479 466.403 462.009 470.176C464.624 476.633 467.175 483.119 469.825 489.564C471.994 494.843 471.314 496.571 465.955 498.622C443.999 507.035 422.037 515.443 400.074 523.856C399.664 524.015 399.295 524.261 398.152 524.864H398.14ZM368.99 582.798H467.814V535.147H368.99V582.798ZM404.302 511.125C409.701 509.139 414.433 507.422 419.129 505.635C419.803 505.377 420.729 504.856 420.882 504.282C422.101 499.776 423.156 495.229 424.382 490.226C419.088 492.159 414.362 493.864 409.66 495.64C408.998 495.891 408.095 496.395 407.937 496.958C406.676 501.493 405.574 506.069 404.296 511.125H404.302ZM376.248 522.327C381.354 520.265 385.933 518.46 390.465 516.55C391.175 516.251 392.054 515.566 392.23 514.892C393.444 510.293 394.493 505.647 395.677 500.667C390.671 502.448 386.021 504.065 381.407 505.793C380.821 506.016 380.194 506.772 380.029 507.393C378.763 512.138 377.602 516.913 376.248 522.327ZM432.713 500.561C437.673 498.762 442.199 497.134 446.707 495.458C447.311 495.235 448.202 494.86 448.326 494.386C449.545 489.868 450.63 485.31 451.861 480.336C446.866 482.117 442.469 483.611 438.148 485.298C437.345 485.609 436.53 486.617 436.272 487.472C435.029 491.626 433.973 495.833 432.707 500.561H432.713ZM363.854 512.83C364.552 514.88 365.138 516.609 365.724 518.337C365.9 518.314 366.076 518.29 366.252 518.267C366.721 516.093 367.19 513.92 367.723 511.447C366.31 511.951 365.249 512.332 363.854 512.83Z" fill="#D0D0D0"/>
<path d="M233.998 105.749C234.749 101.067 235.605 95.6125 236.507 90.1578C238.395 78.7797 240.306 67.4074 242.212 56.0352C244.692 41.2237 247.178 26.4064 249.658 11.5949C249.916 10.0657 250.115 8.51894 250.42 7.00147C251.334 2.40218 255.749 -0.667924 260.393 0.128896C280.555 3.58569 300.711 7.10693 320.879 10.5344C332.64 12.5323 344.442 14.3193 356.197 16.37C361.644 17.325 364.417 21.2681 363.514 26.7169C361.151 40.9542 358.607 55.1622 356.185 69.3936C354.122 81.5217 352.14 93.6674 350.082 105.795C348.986 112.281 347.966 118.791 346.611 125.224C345.574 130.139 341.487 132.383 336.521 131.54C323.043 129.249 309.541 127.099 296.056 124.843C281.335 122.388 266.625 119.88 251.915 117.396C248.28 116.781 244.616 116.318 241.01 115.556C236.484 114.601 233.945 111.197 234.004 105.749H233.998ZM340.543 92.2436C344.29 70.1963 347.936 48.7642 351.595 27.2383C321.225 22.3578 291.307 17.5476 261.313 12.7257C257.578 34.8023 253.943 56.3106 250.174 78.5922C260.146 71.8544 269.38 65.6146 278.608 59.3807C286.007 54.383 286.371 54.4767 291.677 61.8473C295.704 67.4426 299.797 72.9911 303.83 78.5219C307.77 75.6393 311.546 72.8973 315.298 70.1377C320.627 66.2239 321.829 66.4641 325.746 71.9189C330.5 78.5395 335.337 85.1074 340.543 92.2495V92.2436ZM284.131 68.591C283.768 68.7433 283.48 68.8077 283.252 68.9601C271.983 76.5592 260.709 84.1582 249.476 91.8101C248.731 92.3139 247.928 93.1811 247.764 94.0013C247.055 97.5518 246.574 101.149 245.999 104.77C261.278 107.278 276.193 109.674 291.09 112.176C305.958 114.672 320.809 117.267 335.701 119.828C336.005 118.703 336.234 117.976 336.398 117.232C337.887 110.565 336.637 104.411 332.646 98.7705C332.593 98.6943 332.564 98.5947 332.505 98.5127C328.085 92.4135 323.658 86.3143 319.15 80.098C315.099 83.1153 311.305 85.9804 307.471 88.7868C302.857 92.1616 300.998 91.8276 297.657 87.2166C293.166 81.0061 288.646 74.8132 284.125 68.591H284.131Z" fill="#D0D0D0"/>
<path d="M-25.479 486.974C-30.0462 483.986 -35.0589 482.346 -40.2651 482.387C-46.3683 482.433 -52.4598 483.342 -58.5571 483.822C-61.1778 484.027 -63.8161 484.25 -66.4426 484.185C-69.333 484.121 -70.8339 482.064 -70.8456 478.455C-70.8691 470.739 -70.8456 463.028 -70.8515 455.312C-70.8515 440.764 -70.8632 426.217 -70.8632 411.669C-70.8632 407.392 -69.7844 406.073 -65.5691 404.937C-57.537 402.775 -49.3818 401.533 -41.0507 402.048C-32.9893 402.546 -25.4087 404.825 -18.5081 409.073C-17.0248 409.987 -15.9578 410.175 -14.3866 409.179C-3.62828 402.335 8.17946 400.736 20.6028 402.552C23.288 402.945 25.9849 403.308 28.6349 403.888C35.1661 405.312 35.1543 405.359 36.1393 411.991C37.8278 411.991 39.5632 411.927 41.2986 412.003C45.7895 412.202 48.0995 414.581 48.0995 419.016C48.0995 442.838 48.0995 466.667 48.0877 490.489C48.0877 494.972 46.1354 496.923 41.7442 496.928C26.4011 496.928 11.064 496.905 -4.27905 496.975C-5.55128 496.975 -7.03458 497.292 -8.06058 497.995C-13.6537 501.827 -19.3758 501.75 -24.7227 497.719C-25.4732 497.151 -26.6751 496.97 -27.6659 496.964C-40.1713 496.917 -52.6826 496.934 -65.188 496.928C-69.1571 496.928 -70.8808 495.434 -70.8867 492.013C-70.8984 488.521 -69.204 486.992 -65.2818 486.986C-53.0695 486.98 -40.8514 486.986 -28.6391 486.986C-27.5838 486.986 -26.5285 486.986 -25.4732 486.986L-25.479 486.974ZM-21.6389 475.701C-21.6389 475.116 -21.6389 474.049 -21.6389 472.977C-21.6389 456.578 -21.8089 440.173 -21.5216 423.773C-21.4513 419.66 -22.9346 417.662 -26.423 416.034C-36.4836 411.352 -46.7728 411.018 -57.4432 413.374C-60.3629 414.018 -61.0137 415.184 -60.9961 417.979C-60.8671 435.357 -60.9316 452.734 -60.9316 470.112C-60.9316 471.167 -60.9316 472.221 -60.9316 473.17C-54.201 472.866 -47.6874 472.016 -41.2559 472.432C-34.7658 472.848 -28.3577 474.524 -21.633 475.696L-21.6389 475.701ZM-11.6838 476.785C0.68676 471.688 13.1101 471.29 25.8559 473.686C25.8559 454.029 25.8793 434.8 25.7797 415.577C25.7797 414.768 24.7713 413.45 23.9974 413.245C12.1896 410.046 0.89196 411.159 -9.59077 417.756C-10.564 418.371 -11.59 419.824 -11.6017 420.903C-11.7248 439.347 -11.6897 457.796 -11.6897 476.785H-11.6838ZM36.9425 422.256L35.8051 422.754C35.8051 429.187 35.8051 435.614 35.8051 442.048C35.8051 454.533 35.7758 467.013 35.8286 479.498C35.8403 481.988 35.0371 483.869 32.4105 484.009C29.5084 484.162 26.536 484.162 23.6808 483.687C16.2526 482.457 8.85955 481.449 1.43134 483.494C-1.50007 484.297 -4.38458 485.263 -7.29255 486.16C-7.21047 486.365 -7.12839 486.57 -7.04631 486.769H37.775C37.775 479.252 37.7633 471.94 37.775 464.634C37.7926 451.275 37.8395 437.911 37.8161 424.553C37.8161 423.785 37.2474 423.023 36.9425 422.262V422.256Z" fill="#D0D0D0"/>
<path d="M344.671 662.181C349.044 662.978 353.518 663.44 357.739 664.729C359.697 665.327 362.136 667.325 362.529 669.1C362.84 670.489 360.571 672.75 359.046 674.192C355.323 677.707 350.68 680.449 347.631 684.439C340.784 693.391 342.724 704.125 351.888 710.728C360.401 716.868 367.219 724.204 370.004 734.598C375.65 755.69 364.44 776.19 343.334 783.379C336.779 785.612 330.037 787.018 323.078 786.918C321.255 786.895 319.267 786.778 317.667 786.033C316.16 785.33 314.243 783.877 314.014 782.501C313.779 781.106 315.04 779.003 316.271 777.925C318.517 775.956 321.29 774.614 323.723 772.833C326.308 770.941 328.935 769.048 331.21 766.816C338.497 759.668 338.708 748.671 331.239 741.611C326.396 737.035 320.762 733.297 315.433 729.243C293.822 712.802 294.585 679.219 323.301 666.862C330.137 663.921 336.521 662.743 344.677 662.181H344.671Z" fill="#D0D0D0"/>
<path d="M223.937 294.349C222.29 294.232 220.461 294.513 219.036 293.886C217.524 293.218 215.425 291.765 215.331 290.517C215.219 289.029 216.609 286.931 217.963 285.929C220.273 284.219 223.117 283.234 225.649 281.799C230.551 279.016 234.872 275.694 236.437 269.841C237.557 265.657 236.548 261.597 232.996 259.3C229.443 256.998 225.561 255.193 221.809 253.201C210.166 247.008 202.837 237.441 200.721 224.486C198.018 207.964 207.305 191.782 222.771 185.349C231.612 181.675 240.787 179.97 250.349 182.302C251.1 182.483 251.85 182.706 252.56 183.011C256.054 184.517 256.652 187.259 253.768 189.713C251.34 191.782 248.608 193.51 245.941 195.279C234.309 202.996 235.323 217.426 245.952 225.365C251.065 229.185 256.47 232.964 260.498 237.792C270.477 249.744 268.442 266.126 258.563 277.539C250.625 286.709 240.494 292.017 228.61 294.056C227.098 294.314 225.497 294.091 223.937 294.091C223.937 294.179 223.937 294.261 223.937 294.349Z" fill="#D0D0D0"/>
<path d="M411.267 262.904C412.703 266.413 414.087 269.788 415.458 273.163C417.206 277.457 415.423 280.065 410.71 280.117C409.742 280.129 408.769 280.117 407.432 280.117C409.373 284.558 411.032 288.876 409.895 293.488C408.904 297.501 407.526 301.421 406.189 305.34C405.222 308.17 403.692 310.853 403.053 313.742C402.115 317.99 403.534 321.851 406.506 325.009C408.265 326.878 408.57 328.794 406.922 330.692C405.24 332.631 403.047 332.403 401.159 331.044C396.897 327.968 394.739 323.591 394.106 318.47C393.502 313.59 394.974 309.084 396.826 304.643C398.943 299.563 401.775 294.595 401.106 288.835C400.813 286.31 399.793 283.832 398.843 281.436C398.591 280.803 397.413 280.334 396.586 280.176C395.455 279.959 394.241 280.217 393.08 280.088C390.436 279.795 388.906 277.317 389.832 274.803C391.268 270.919 392.793 267.064 394.37 262.962C387.276 260.882 381.061 257.613 376.078 252.416C368.128 244.126 363.42 234.066 361.38 222.904C359.316 211.644 359.768 200.336 364.258 189.672C370.344 175.224 381.143 165.774 396.856 163.682C420.043 160.594 437.086 175.078 442.463 193.85C447.921 212.892 444.937 231.019 433.305 247.272C427.917 254.807 420.377 259.787 411.272 262.898L411.267 262.904ZM402.625 173.924C392.078 173.818 382.879 178.775 377.11 187.68C367.512 202.48 368.673 225.564 379.783 240.991C391.515 257.279 412.404 257.549 424.37 241.489C433.258 229.566 436.119 216.038 433.827 201.554C431.235 185.196 418.372 174.088 402.625 173.929V173.924Z" fill="#D0D0D0"/>
<path d="M113.394 389.616C113.992 388.286 114.314 386.879 115.129 385.878C119.368 380.657 118.881 375.162 117.17 369.068C114.197 358.493 113.88 347.788 118.26 337.383C123.185 325.7 132.243 317.931 142.942 311.82C145.845 310.162 148.624 311.1 149.919 314.217C157.424 332.209 157.512 351.743 143.716 368.148C138.909 373.861 133.116 378.741 127.769 384.003C127.447 384.319 127.107 384.624 126.427 385.268C130.443 383.909 133.914 382.474 137.514 381.577C146.742 379.275 155.424 381.729 163.896 385.186C171.641 388.35 172.409 392.176 166.288 397.806C162.642 401.158 158.854 404.451 154.744 407.198C144.279 414.194 132.888 413.555 121.367 410.444C118.958 409.794 116.63 408.821 113.904 407.872C111.934 412.636 109.952 417.446 107.947 422.238C107.467 423.398 106.992 424.57 106.382 425.66C105.098 427.945 103.081 428.519 100.671 427.781C98.3439 427.066 96.9779 425.443 97.4293 422.994C97.828 420.832 98.6723 418.746 99.4051 416.655C100.847 412.548 102.63 408.54 103.749 404.351C105.432 398.076 104.084 391.772 102.905 385.585C101.434 377.868 98.5023 370.767 93.0967 364.826C90.8806 362.395 91.0096 359.946 92.9677 358.106C94.8263 356.354 96.9838 356.366 99.4696 358.516C104.629 362.987 107.572 368.922 109.659 375.232C111.189 379.86 112.145 384.676 113.411 389.616H113.394ZM128.215 369.812C142.649 358.452 149.667 342.047 142.708 324.224C128.907 333.287 119.667 347.208 128.215 369.812ZM157.06 392.85C144.502 387.032 129.223 391.467 120.81 399.798C134.688 405.23 147.785 403.554 157.06 392.85Z" fill="#D0D0D0"/>
<path d="M49.3718 588.739C45.045 584.462 40.9996 580.929 37.5054 576.921C32.0823 570.699 29.913 563.065 30.4759 554.997C30.9214 548.675 32.2406 542.365 33.6711 536.166C34.6209 532.053 37.2592 531.121 41.2928 532.651C48.2226 535.281 54.2848 539.224 59.3151 544.691C59.9659 545.4 60.5229 546.197 61.3964 547.304C65.5766 539.394 71.0818 533.377 78.299 529.293C83.3175 526.458 88.7583 524.313 94.1286 522.169C97.0717 520.991 99.3465 522.187 100.191 525.233C104.353 540.25 103.75 554.78 95.3481 568.414C94.8556 569.216 94.3338 570.002 94.0055 570.517C98.9537 572.82 103.837 574.876 108.51 577.337C112.122 579.235 112.538 582.036 109.671 584.936C100.39 594.334 89.837 601.294 75.8659 599.314C70.8942 598.611 66.0632 596.49 61.3554 594.562C59.4851 593.795 58.424 593.947 56.6886 594.797C51.2303 597.474 45.6899 600.052 39.9854 602.12C36.1218 603.521 32.9324 601.376 32.8151 598.113C32.7213 595.576 34.0581 594.334 36.4032 593.549C40.771 592.09 45.0509 590.356 49.3718 588.739ZM92.5105 533.131C75.5669 536.137 65.1721 554.083 68.3498 574.607C85.8268 568.525 96.3155 559.877 92.5105 533.131ZM56.6006 580.606C61.373 555.94 51.6172 546.865 41.3866 543.32C35.0313 563.018 44.5173 574.829 56.6006 580.606ZM67.6579 586.852C77.7713 593.326 92.3346 589.307 98.256 582.393C87.5447 576.593 74.6875 580.735 67.6579 586.852Z" fill="#D0D0D0"/>
<path d="M413.582 395.545C417.094 385.016 420.53 374.751 423.942 364.486C425.589 359.53 427.149 354.538 428.826 349.587C430.256 345.369 432.127 344.431 436.383 345.779C454.839 351.614 473.284 357.473 491.728 363.344C494.888 364.352 496.061 366.408 495.093 369.308C488.92 387.735 482.758 406.161 476.508 424.558C474.603 430.166 469.502 433.529 463.258 433.634C456.451 433.751 450.911 430.441 448.707 424.939C445.775 417.616 451.11 409.495 459.113 409.032C462.813 408.815 466.278 409.354 469.701 411.944C474.181 398.685 478.589 385.637 483.133 372.179C467.855 367.334 452.623 362.5 437.192 357.608C433.932 367.34 430.702 376.943 427.501 386.557C425.115 393.711 422.535 400.806 420.454 408.048C417.411 418.629 403.862 420.223 396.768 414.34C391.661 410.104 390.325 404.451 393.104 399.599C396.217 394.168 403.328 391.86 410.006 394.139C411.091 394.508 412.14 394.982 413.565 395.551L413.582 395.545Z" fill="#D0D0D0"/>
<path d="M79.7881 84.0118C78.381 95.5364 75.5024 107.459 66.3798 116.717C64.1637 118.966 60.8453 120.138 58.0311 121.796C56.583 122.652 54.8594 123.22 53.7044 124.362C39.9678 137.961 26.4539 151.782 12.5649 165.223C7.51114 170.115 1.98836 174.744 -5.11739 176.648C-12.7977 178.71 -18.4729 173.027 -16.6613 165.287C-15.1487 158.819 -10.9685 154.056 -6.62414 149.492C5.07221 137.194 16.9562 125.071 28.758 112.879C32.5982 108.912 35.9693 104.887 37.7634 99.2861C40.6772 90.1871 48.2226 85.2363 56.841 82.2482C62.569 80.262 68.5784 79.0434 74.5233 77.7427C77.9413 76.9927 79.9523 79.2309 79.794 84.0118H79.7881ZM68.9829 89.2204C61.6661 91.312 54.9004 93.0287 49.8232 98.3135C48.8382 99.3447 48.0174 100.61 47.4018 101.905C46.1648 104.518 46.5869 106.979 48.5334 109.17C52.1918 113.277 56.6886 113.184 60.4994 108.596C64.9962 103.182 67.2416 96.7023 68.977 89.2263L68.9829 89.2204ZM40.4133 115.181C31.924 123.501 23.5753 131.71 15.1973 139.877C13.4736 141.559 12.5063 143.58 14.1127 145.519C15.7191 147.459 17.8532 146.738 19.5006 145.144C26.9933 137.891 34.4626 130.614 41.9025 123.314C43.1161 122.124 44.1714 120.771 45.215 119.587C43.4034 117.923 41.8321 116.476 40.4133 115.176V115.181Z" fill="#D0D0D0"/>
<path d="M91.8831 670.694C91.203 673.102 90.6637 675.563 89.8136 677.912C87.357 684.738 83.9742 691.06 78.9263 696.356C77.6658 697.68 76.2645 699.104 74.6405 699.795C70.091 701.723 66.8957 705.197 63.5422 708.572C52.7956 719.364 42.3363 730.473 31.0914 740.726C24.0971 747.101 15.9419 752.216 8.19123 757.735C5.72298 759.492 2.90882 759.914 -0.0577736 758.362C-3.7924 756.405 -5.5571 752.913 -4.30246 748.899C-2.29151 742.466 1.619 737.146 5.97508 732.143C15.2032 721.555 24.443 710.974 33.7649 700.475C38.8186 694.786 44.0717 689.273 49.19 683.636C50.087 682.652 50.7026 681.41 51.5527 680.379C54.0679 677.332 56.2723 673.904 59.2565 671.403C65.1838 666.44 72.0844 663.077 79.6591 661.273C86.4835 659.65 91.5665 663.681 91.8831 670.694ZM53.2998 694.71C38.6252 710.289 24.3492 725.979 11.9259 743.257C28.5001 729.91 44.1773 715.632 58.2891 699.496C56.6241 697.897 55.1466 696.479 53.3057 694.71H53.2998ZM80.7613 672.112C73.468 674.18 67.312 677.004 62.4634 682.113C59.8603 684.855 59.96 687.532 62.4107 690.011C65.1838 692.811 68.7543 693.514 70.9118 691.153C75.7486 685.845 78.2462 679.265 80.7613 672.112Z" fill="#D0D0D0"/>
<path d="M3.55954 274.797C1.91795 282.461 1.78896 291.964 -4.33769 299.727C-7.52707 303.77 -11.76 306.19 -16.3213 308.258C-17.3942 308.744 -18.5668 309.418 -19.2293 310.338C-28.4984 323.169 -37.6503 336.076 -46.9018 348.919C-51.0586 354.684 -56.5931 355.78 -62.6904 351.995C-67.5038 349.007 -72.1824 345.697 -70.8749 338.924C-70.5056 337.002 -69.6789 335.004 -68.5474 333.411C-59.4893 320.661 -50.4606 307.889 -41.0566 295.403C-38.8698 292.503 -39.4091 289.544 -38.9342 286.609C-37.0933 275.278 -30.697 268.241 -19.5166 265.78C-15.0843 264.802 -10.5464 264.052 -6.02618 263.829C0.487419 263.507 3.56541 266.841 3.55368 274.809L3.55954 274.797ZM-6.54211 274.674C-6.79421 274.376 -7.04632 274.071 -7.29842 273.772C-11.4845 274.751 -15.6881 275.676 -19.8566 276.725C-25.0042 278.02 -27.7421 281.764 -28.4867 286.656C-28.8912 289.292 -29.8117 292.345 -26.9799 294.794C-20.2084 300.659 -14.4921 297.577 -11.0037 290.734C-8.52961 285.883 -7.96092 280.065 -6.54797 274.674H-6.54211ZM-50.4254 336.516C-43.0851 326.304 -35.9442 316.367 -28.7329 306.336C-30.4976 305.094 -31.9809 304.045 -33.6342 302.879C-40.9452 312.699 -48.1858 322.419 -55.5202 332.274C-53.6734 333.815 -52.1842 335.051 -50.4254 336.516Z" fill="#D0D0D0"/>
<path d="M175.839 669.581V647.498C169.384 648.934 163.058 650.264 156.796 651.834C156.157 651.992 155.495 653.58 155.483 654.506C155.383 663.78 155.483 673.055 155.401 682.33C155.325 690.45 146.871 696.467 139.524 693.755C135.72 692.349 132.882 688.095 133.339 684.486C133.914 679.957 137.818 675.973 142.116 675.651C143.845 675.522 145.587 675.627 147.58 675.627C147.58 666.018 147.58 656.474 147.58 646.93C147.58 645.951 147.58 644.979 147.574 644C147.551 640.954 149.251 639.348 152.065 638.762C160.314 637.034 168.569 635.347 176.818 633.642C181.203 632.734 183.566 634.614 183.566 639.085C183.578 651.289 183.59 663.493 183.566 675.697C183.548 683.173 175.751 688.704 168.622 686.396C165.561 685.406 163.568 683.437 163.111 680.273C162.577 676.541 163.685 673.319 166.921 671.104C169.525 669.317 172.397 668.673 175.845 669.569L175.839 669.581Z" fill="#D0D0D0"/>
<path d="M390.958 713.622C402.994 713.734 414.145 723.577 416.326 736.203C418.619 749.444 413.354 759.955 404.067 768.796C398.873 773.741 392.752 777.368 385.669 778.927C384.145 779.261 381.958 778.739 380.727 777.778C378.939 776.378 380.317 774.462 381.349 773.12C386.795 766.049 390.067 758.186 391.309 749.292C392.464 741.042 390.495 733.52 387.346 726.12C386.443 723.993 385.236 721.995 384.268 719.892C382.703 716.499 383.5 714.859 387.188 713.997C388.407 713.71 389.697 713.74 390.952 713.622H390.958Z" fill="#D0D0D0"/>
<path d="M84.6015 215.739C84.6015 210.478 84.6015 205.427 84.6015 200.371C84.6015 196.176 84.5781 191.981 84.5839 187.786C84.5839 185.061 85.7154 183.04 88.4475 182.302C97.1245 179.958 105.807 177.632 114.52 175.406C117.234 174.714 120.171 176.953 120.189 179.841C120.283 191.747 120.464 203.658 120.136 215.551C119.943 222.6 111.488 227.703 104.899 225.289C100.707 223.754 98.5081 220.057 99.1531 215.628C99.6807 212.007 103.814 208.363 107.777 208.093C109.22 207.999 110.668 208.075 112.303 208.075V189.297C105.778 191.161 99.3172 193.006 92.6746 194.904C92.6746 203.851 92.7215 212.815 92.657 221.785C92.616 228.213 86.7532 233.913 80.4155 233.837C74.9865 233.773 70.8297 229.49 70.988 224.123C71.1405 219.108 75.948 215.1 81.4532 215.428C82.4029 215.487 83.3527 215.616 84.5957 215.745L84.6015 215.739Z" fill="#D0D0D0"/>
<path d="M187.688 489.892C187.465 487.595 189.036 486.921 190.813 486.382C196.681 484.601 202.245 482.117 205.669 476.791C207.727 473.586 208.97 469.854 210.547 466.345C210.822 465.735 210.746 464.868 211.168 464.441C211.971 463.626 212.98 462.583 213.959 462.525C214.733 462.478 215.958 463.591 216.351 464.47C217.911 467.985 218.89 471.788 220.69 475.162C223.639 480.687 228.874 483.558 234.538 485.697C235.528 486.072 236.543 486.4 237.563 486.693C239.292 487.185 240.518 488.328 239.949 490.056C239.585 491.169 238.348 492.464 237.234 492.798C226.523 495.997 219.224 502.348 216.808 513.673C216.574 514.775 214.909 516.462 214.117 516.351C213.009 516.193 211.514 514.769 211.198 513.615C208.266 502.793 201.465 496.003 190.654 493.108C188.01 492.4 187.694 491.925 187.688 489.886V489.892Z" fill="#D0D0D0"/>
<path d="M303.185 253.564C303.185 269.823 293.16 282.754 280.244 286.176C278.327 286.685 275.988 287.353 275.067 285.238C274.493 283.92 275.026 281.606 275.888 280.264C279.464 274.674 282.601 269.015 283.428 262.247C284.577 252.856 281.88 244.647 276.339 237.2C275.413 235.952 274.346 234.816 273.367 233.609C271.432 231.218 272.089 229.244 275.126 228.57C279.224 227.662 283.088 228.84 286.652 230.591C297.364 235.865 302.746 244.671 303.18 253.564H303.185Z" fill="#D0D0D0"/>
<path d="M99.1296 285.601C98.0567 293.517 95.2718 301.807 86.9642 307.074C82.0511 310.191 77.0619 313.185 72.0609 316.156C71.1815 316.677 69.9796 317.205 69.0826 317.011C67.7927 316.736 66.0867 316.074 65.5942 315.072C65.1017 314.07 65.5414 312.248 66.1746 311.129C68.4435 307.11 71.4042 303.43 73.3155 299.259C77.396 290.335 83.7807 283.99 92.7215 280.117C97.4469 278.073 99.153 279.203 99.1296 285.601Z" fill="#D0D0D0"/>
<path d="M167.602 147.359C166.523 146 165.655 145.379 165.45 144.582C163.245 136.198 158.045 130.942 149.573 128.845C148.846 128.663 147.814 127.21 147.967 126.601C148.184 125.716 149.227 124.855 150.124 124.339C153.273 122.523 157.066 121.427 159.546 118.978C162.02 116.535 163.163 112.768 164.998 109.645C165.626 108.573 166.576 107.694 167.379 106.727C168.141 107.7 169.278 108.561 169.612 109.662C171.917 117.232 176.66 122.195 184.363 124.362C185.337 124.638 186.04 125.874 186.867 126.659C186.058 127.438 185.383 128.634 184.422 128.938C177.035 131.264 171.887 135.694 169.894 143.422C169.577 144.64 168.598 145.689 167.602 147.359Z" fill="#D0D0D0"/>
<path d="M298.284 574.577C296.953 575.603 296.373 576.359 295.628 576.581C289.173 578.509 284.864 582.458 283.175 589.137C282.97 589.951 281.88 590.543 281.194 591.234C280.52 590.52 279.447 589.91 279.23 589.078C277.594 582.657 273.484 578.761 267.305 576.716C266.425 576.423 265.792 575.386 265.042 574.695C265.745 573.962 266.32 572.826 267.17 572.55C273.437 570.564 277.26 566.369 279.113 560.147C279.382 559.233 280.361 558.524 281.012 557.721C281.733 558.483 282.906 559.145 283.111 560.03C284.641 566.621 288.704 570.634 295.095 572.544C296.027 572.826 296.807 573.611 298.278 574.572L298.284 574.577Z" fill="#D0D0D0"/>
<path d="M48.85 365.26C47.9412 363.877 47.1967 363.198 46.9973 362.377C45.4495 356.114 41.3749 352.405 35.4006 350.437C34.6561 350.191 33.4952 349.177 33.5949 348.814C33.8235 347.982 34.5974 346.874 35.3537 346.675C41.7501 344.994 45.4319 340.857 47.0325 334.576C47.2025 333.914 48.2344 332.93 48.6975 333.012C49.4128 333.147 50.3567 333.967 50.5443 334.676C52.2094 340.91 55.9147 345.058 62.2231 346.851C62.9149 347.05 63.806 348.093 63.806 348.743C63.806 349.323 62.7976 350.179 62.0648 350.437C56.3837 352.476 52.4615 356.096 50.8609 362.067C50.603 363.028 49.7646 363.836 48.8441 365.254L48.85 365.26Z" fill="#D0D0D0"/>
<path d="M418.032 560.961C409.531 560.961 401.03 561.032 392.535 560.897C391.011 560.873 389.082 560.416 388.097 559.414C387.165 558.465 386.643 556.385 386.995 555.079C387.645 552.63 389.809 551.458 392.365 551.44C400.08 551.399 407.802 551.429 415.517 551.429C424.698 551.429 433.885 551.429 443.067 551.429C443.459 551.429 443.846 551.417 444.239 551.429C447.669 551.522 450.495 553.854 450.337 556.456C450.196 558.793 447.147 561.02 444.11 561.02C435.416 561.02 426.721 561.02 418.026 561.02C418.026 561.002 418.026 560.979 418.026 560.961H418.032Z" fill="#D0D0D0"/>
<path d="M326.496 54.5587C320.885 54.547 316.142 49.9594 316.113 44.5223C316.084 39.1496 320.915 34.6031 326.613 34.6324C332.329 34.6617 337.067 39.1145 337.166 44.5457C337.266 50.0239 332.412 54.5704 326.496 54.5587Z" fill="#D0D0D0"/>
</g>
<defs>
<clipPath id="clip0_400_1047">
<rect width="590" height="790" fill="white" transform="translate(-81)"/>
</clipPath>
</defs>
</svg>
