<svg width="22" height="19" viewBox="0 0 22 19" fill="none" xmlns="http://www.w3.org/2000/svg">
<path d="M16.3975 0.75C19.8542 0.750376 22.8141 5.04266 20.3477 9.67871C19.3961 11.4669 17.7896 13.1995 16.1172 14.6797C14.4534 16.1523 12.7683 17.3365 11.7061 18.0371C11.2764 18.3204 10.7226 18.3204 10.293 18.0371C9.2308 17.3366 7.5463 16.1521 5.88281 14.6797C4.21046 13.1994 2.60358 11.4665 1.65234 9.67871C-0.814076 5.04266 2.14577 0.750376 5.60254 0.75C7.6608 0.75 8.88196 1.8079 9.57324 2.73926H9.57422C10.2887 3.70081 11.7124 3.70201 12.4268 2.73926C13.118 1.8079 14.3392 0.75 16.3975 0.75Z" stroke="#282F56" stroke-width="1.5"/>
</svg>
