<svg width="17" height="17" viewBox="0 0 17 17" fill="none" xmlns="http://www.w3.org/2000/svg">
<rect width="17" height="17" fill="#F5F5F5"/>
<g id="Group 26086871">
<g id="tabler:calendar-week-filled">
<g id="Group">
<path id="Vector" d="M11.3333 1.41663C11.463 1.41663 11.5848 1.45204 11.6889 1.51225L11.7123 1.52642C11.9106 1.65179 12.0417 1.8735 12.0417 2.12496V2.83329H12.75C13.292 2.83326 13.8136 3.04036 14.2079 3.4122C14.6023 3.78405 14.8397 4.29254 14.8715 4.83363L14.875 4.95829V13.4583C14.875 14.0003 14.6679 14.5219 14.2961 14.9162C13.9242 15.3106 13.4158 15.548 12.8747 15.5798L12.75 15.5833H4.25C3.70798 15.5833 3.18643 15.3762 2.79207 15.0044C2.3977 14.6325 2.16034 14.1241 2.12854 13.583L2.125 13.4583V4.95829C2.12497 4.41627 2.33206 3.89472 2.70391 3.50036C3.07575 3.106 3.58424 2.86863 4.12533 2.83683L4.25 2.83329H4.95833V2.12496C4.95833 1.99868 4.99208 1.8747 5.05609 1.76585C5.12011 1.657 5.21206 1.56725 5.32242 1.50588L5.38829 1.47329L5.43504 1.45558L5.50587 1.43504L5.58167 1.42158L5.66667 1.41663C5.70586 1.41663 5.74388 1.4197 5.78071 1.42583L5.86712 1.44638L5.89546 1.45488L5.93796 1.47117C6.17029 1.56679 6.34029 1.78283 6.37004 2.04208L6.375 2.12496V2.83329H10.625V2.12496C10.625 1.9371 10.6996 1.75693 10.8325 1.62409C10.9653 1.49125 11.1455 1.41663 11.3333 1.41663ZM13.4583 6.37496H3.54167V13.1927C3.54167 13.692 3.81508 14.1036 4.16712 14.1603L4.25 14.1666H12.75C13.1134 14.1666 13.413 13.7912 13.4534 13.306L13.4583 13.1927V6.37496Z" fill="#2F3F78"/>
<path id="Vector_2" d="M6.3856 9.20835C6.3856 9.39621 6.31097 9.57638 6.17813 9.70922C6.04529 9.84206 5.86512 9.91669 5.67726 9.91669C5.58159 9.9212 5.486 9.90628 5.39625 9.87284C5.30651 9.83939 5.22447 9.78811 5.15508 9.72209C5.0857 9.65606 5.03041 9.57667 4.99255 9.48869C4.9547 9.40071 4.93506 9.30598 4.93482 9.2102C4.93458 9.11443 4.95374 9.0196 4.99116 8.93143C5.02858 8.84327 5.08347 8.7636 5.15252 8.69723C5.22157 8.63086 5.30336 8.57917 5.39293 8.54527C5.48251 8.51138 5.57803 8.49598 5.67372 8.50002C6.06826 8.50002 6.3856 8.81735 6.3856 9.20835ZM9.21893 9.20835C9.21893 9.39621 9.1443 9.57638 9.01146 9.70922C8.87863 9.84206 8.69846 9.91669 8.5106 9.91669C8.41493 9.9212 8.31933 9.90628 8.22959 9.87284C8.13984 9.83939 8.0578 9.78811 7.98842 9.72209C7.91903 9.65606 7.86374 9.57667 7.82589 9.48869C7.78803 9.40071 7.76839 9.30598 7.76815 9.2102C7.76791 9.11443 7.78708 9.0196 7.82449 8.93143C7.86191 8.84327 7.9168 8.7636 7.98585 8.69723C8.05491 8.63086 8.13669 8.57917 8.22627 8.54527C8.31585 8.51138 8.41136 8.49598 8.50705 8.50002C8.9016 8.50002 9.21893 8.81735 9.21893 9.20835ZM12.0558 9.20835C12.0558 9.39621 11.9812 9.57638 11.8483 9.70922C11.7155 9.84206 11.5353 9.91669 11.3475 9.91669C11.2518 9.9212 11.1562 9.90628 11.0665 9.87284C10.9767 9.83939 10.8947 9.78811 10.8253 9.72209C10.7559 9.65606 10.7006 9.57667 10.6628 9.48869C10.6249 9.40071 10.6053 9.30598 10.605 9.2102C10.6048 9.11443 10.624 9.0196 10.6614 8.93143C10.6988 8.84327 10.7537 8.7636 10.8227 8.69723C10.8918 8.63086 10.9736 8.57917 11.0631 8.54527C11.1527 8.51138 11.2482 8.49598 11.3439 8.50002C11.7385 8.50002 12.0558 8.81735 12.0558 9.20835ZM8.51414 10.625C8.702 10.625 8.88217 10.6996 9.01501 10.8325C9.14784 10.9653 9.22247 11.1455 9.22247 11.3334C9.22247 11.5212 9.14784 11.7014 9.01501 11.8342C8.88217 11.9671 8.702 12.0417 8.51414 12.0417C8.41847 12.0462 8.32288 12.0313 8.23313 11.9978C8.14338 11.9644 8.06134 11.9131 7.99196 11.8471C7.92257 11.7811 7.86729 11.7017 7.82943 11.6137C7.79157 11.5257 7.77193 11.431 7.77169 11.3352C7.77145 11.2394 7.79062 11.1446 7.82804 11.0564C7.86545 10.9683 7.92034 10.8886 7.9894 10.8222C8.05845 10.7559 8.14023 10.7042 8.22981 10.6703C8.31939 10.6364 8.41491 10.621 8.5106 10.625H8.51414ZM6.3856 11.3334C6.3856 11.5212 6.31097 11.7014 6.17813 11.8342C6.04529 11.9671 5.86512 12.0417 5.67726 12.0417C5.58159 12.0462 5.486 12.0313 5.39625 11.9978C5.30651 11.9644 5.22447 11.9131 5.15508 11.8471C5.0857 11.7811 5.03041 11.7017 4.99255 11.6137C4.9547 11.5257 4.93506 11.431 4.93482 11.3352C4.93458 11.2394 4.95374 11.1446 4.99116 11.0564C5.02858 10.9683 5.08347 10.8886 5.15252 10.8222C5.22157 10.7559 5.30336 10.7042 5.39293 10.6703C5.48251 10.6364 5.57803 10.621 5.67372 10.625C6.06826 10.625 6.3856 10.9424 6.3856 11.3334Z" fill="#2F3F78"/>
</g>
</g>
</g>
</svg>
