<svg width="32" height="33" viewBox="0 0 32 33" fill="none" xmlns="http://www.w3.org/2000/svg">
<path d="M16 12.2163C13.2386 12.2163 11 14.4549 11 17.2163C11 19.9777 13.2386 22.2163 16 22.2163C18.7614 22.2163 21 19.9777 21 17.2163C21 14.4549 18.7614 12.2163 16 12.2163Z" fill="white"/>
<path fill-rule="evenodd" clip-rule="evenodd" d="M12.459 4.31114C13.6315 4.24819 14.8121 4.21631 16 4.21631C17.1879 4.21631 18.3685 4.24819 19.541 4.31114C20.8311 4.38042 21.9805 5.09113 22.6509 6.16543L23.7459 7.92012C24.0646 8.43097 24.6059 8.77806 25.226 8.86619C25.7399 8.93921 26.2518 9.01824 26.7617 9.10321C28.6709 9.42135 30 11.0934 30 12.9817V24.2163C30 26.4254 28.2091 28.2163 26 28.2163H6C3.79086 28.2163 2 26.4254 2 24.2163V12.9817C2 11.0934 3.32914 9.42133 5.23829 9.1032C5.74821 9.01823 6.26013 8.9392 6.77397 8.86618C7.39408 8.77805 7.93536 8.43096 8.25414 7.92011L9.34909 6.16543C10.0195 5.09113 11.1689 4.38042 12.459 4.31114ZM9 17.2163C9 13.3503 12.134 10.2163 16 10.2163C19.866 10.2163 23 13.3503 23 17.2163C23 21.0823 19.866 24.2163 16 24.2163C12.134 24.2163 9 21.0823 9 17.2163ZM25 15.2163C25.5523 15.2163 26 14.7686 26 14.2163C26 13.664 25.5523 13.2163 25 13.2163C24.4477 13.2163 24 13.664 24 14.2163C24 14.7686 24.4477 15.2163 25 15.2163Z" fill="white"/>
</svg>
