<svg width="28" height="28" viewBox="0 0 28 28" fill="none" xmlns="http://www.w3.org/2000/svg">
<path d="M26 26.0003L19.251 19.2512M19.251 19.2512C20.1894 18.3128 20.9337 17.1988 21.4416 15.9727C21.9494 14.7467 22.2108 13.4326 22.2108 12.1055C22.2108 10.7784 21.9494 9.46437 21.4416 8.23831C20.9337 7.01225 20.1894 5.89822 19.251 4.95984C18.3126 4.02145 17.1986 3.27709 15.9726 2.76924C14.7465 2.26139 13.4325 2 12.1054 2C10.7783 2 9.46427 2.26139 8.23823 2.76924C7.01218 3.27709 5.89817 4.02145 4.9598 4.95984C3.06467 6.85499 2 9.42537 2 12.1055C2 14.7857 3.06467 17.3561 4.9598 19.2512C6.85493 21.1464 9.42528 22.211 12.1054 22.211C14.7855 22.211 17.3559 21.1464 19.251 19.2512Z" stroke="#475A70" stroke-width="2.5" stroke-linecap="round" stroke-linejoin="round"/>
<path d="M13.1611 9.8457C13.25 10.1756 13.508 10.4336 13.8379 10.5225L17.7598 11.5781L13.8379 12.6348C13.508 12.7236 13.25 12.9816 13.1611 13.3115L12.1045 17.2354L11.0488 13.3115C10.9599 12.9817 10.7019 12.7236 10.3721 12.6348L6.4502 11.5781L10.3721 10.5225C10.702 10.4336 10.96 10.1757 11.0488 9.8457L12.1045 5.92188L13.1611 9.8457Z" fill="#475A70" stroke="#475A70"/>
</svg>
