<svg width="158" height="199" viewBox="0 0 158 199" fill="none" xmlns="http://www.w3.org/2000/svg">
<path d="M35 124H125C125 124 107.19 168 78.5616 168C49.9329 168 35 124 35 124Z" fill="url(#paint0_linear_931_1531)"/>
<path d="M79.8362 136.25C104.638 136.25 124.744 130.474 124.744 123.349C124.744 116.223 104.638 110.447 79.8362 110.447C55.0343 110.447 34.9283 116.223 34.9283 123.349C34.9283 130.474 55.0343 136.25 79.8362 136.25Z" fill="url(#paint1_linear_931_1531)"/>
<path d="M79.9969 134.424C104.811 134.424 124.927 129.027 124.927 122.37C124.927 115.712 104.811 110.315 79.9969 110.315C55.1829 110.315 35.0671 115.712 35.0671 122.37C35.0671 129.027 55.1829 134.424 79.9969 134.424Z" fill="#78E1AE"/>
<path d="M79.6316 129.31C96.5778 129.31 110.315 125.875 110.315 121.639C110.315 117.402 96.5778 113.968 79.6316 113.968C62.6855 113.968 48.9479 117.402 48.9479 121.639C48.9479 125.875 62.6855 129.31 79.6316 129.31Z" fill="#3FC594"/>
<path d="M0 70.6676L0 74.9487C0 79.1974 3.44421 82.6416 7.69285 82.6416H8.54031C12.789 82.6416 16.2332 79.1974 16.2332 74.9487V70.6676C16.2332 66.419 12.789 62.9748 8.54031 62.9748H7.69285C3.44421 62.9748 0 66.419 0 70.6676Z" fill="#60BC8F"/>
<path d="M141.313 70.6676V74.9487C141.313 79.1974 144.757 82.6416 149.006 82.6416H149.854C154.102 82.6416 157.546 79.1974 157.546 74.9487V70.6676C157.546 66.419 154.102 62.9748 149.854 62.9748H149.006C144.757 62.9748 141.313 66.419 141.313 70.6676Z" fill="#60BC8F"/>
<path d="M2.51318 64.8158L2.51318 80.881C2.51318 85.3636 6.1471 88.9976 10.6298 88.9976C15.1124 88.9976 18.7463 85.3636 18.7463 80.881V64.8158C18.7463 60.3332 15.1124 56.6993 10.6298 56.6993C6.1471 56.6993 2.51318 60.3332 2.51318 64.8158Z" fill="#D1DB8B"/>
<ellipse opacity="0.5" cx="11.3237" cy="73.0565" rx="5.47924" ry="15.3419" fill="#919C49"/>
<ellipse opacity="0.5" cx="11.3237" cy="73.0565" rx="5.47924" ry="15.3419" fill="#919C49"/>
<path d="M138.895 64.8158V80.881C138.895 85.3636 142.529 88.9976 147.012 88.9976C151.494 88.9976 155.128 85.3636 155.128 80.881V64.8158C155.128 60.3332 151.494 56.6993 147.012 56.6993C142.529 56.6993 138.895 60.3332 138.895 64.8158Z" fill="#D1DB8B"/>
<ellipse opacity="0.5" cx="145.748" cy="73.0565" rx="5.47924" ry="15.3419" fill="#919C49"/>
<path d="M149.328 72.7789C149.328 105.019 117.497 120.01 78.2362 120.01C38.9756 120.01 7.1449 105.019 7.1449 72.7789C7.1449 40.5391 38.9756 14.4067 78.2362 14.4067C117.497 14.4067 149.328 40.5391 149.328 72.7789Z" fill="url(#paint2_linear_931_1531)"/>
<path d="M100.633 39.4504H56.4381C44.6353 39.4504 35.0671 48.9359 35.0671 60.6368C35.0671 72.3378 44.6353 81.8232 56.4381 81.8232H100.633C112.436 81.8232 122.004 72.3378 122.004 60.6368C122.004 48.9359 112.436 39.4504 100.633 39.4504Z" fill="url(#paint3_linear_931_1531)"/>
<path d="M99.6783 39.1072H56.8014C45.3507 39.1072 36.068 48.3899 36.068 59.8406C36.068 71.2914 45.3507 80.5741 56.8014 80.5741H99.6783C111.129 80.5741 120.412 71.2914 120.412 59.8406C120.412 48.3899 111.129 39.1072 99.6783 39.1072Z" fill="white"/>
<path d="M61.8936 65.5828C64.8914 65.5828 67.3217 63.1525 67.3217 60.1547C67.3217 57.1568 64.8914 54.7266 61.8936 54.7266C58.8957 54.7266 56.4655 57.1568 56.4655 60.1547C56.4655 63.1525 58.8957 65.5828 61.8936 65.5828Z" fill="#273765"/>
<path d="M95.8282 65.5828C98.8261 65.5828 101.256 63.1525 101.256 60.1547C101.256 57.1568 98.8261 54.7266 95.8282 54.7266C92.8304 54.7266 90.4001 57.1568 90.4001 60.1547C90.4001 63.1525 92.8304 65.5828 95.8282 65.5828Z" fill="#273765"/>
<path d="M55.8406 10.8832C55.8406 10.8832 34.8953 20.344 46.7231 28.0369C56.9072 34.6631 76.9393 27.7008 82.3163 25.6406C83.2806 25.2681 84.3107 25.1 85.3481 25.1585C88.6064 25.3265 95.9048 26.0205 100.653 28.8624C106.914 32.6249 115.995 26.1009 112.416 19.1094C110.487 15.3543 91.4045 3.78213 87.0869 3.66524C82.7765 3.54835 69.904 4.1328 55.8479 10.8832H55.8406Z" fill="#66B7BD"/>
<path opacity="0.5" d="M55.8406 10.8832C55.8406 10.8832 34.8953 20.344 46.7231 28.0369C56.9072 34.6631 76.9393 27.7008 82.3163 25.6406C83.2806 25.2681 84.3107 25.1 85.3481 25.1585C88.6064 25.3265 95.9048 26.0205 100.653 28.8624C106.914 32.6249 115.995 26.1009 112.416 19.1094C110.487 15.3543 91.4045 3.78213 87.0869 3.66524C82.7765 3.54835 69.904 4.1328 55.8479 10.8832H55.8406Z" fill="url(#paint4_linear_931_1531)"/>
<path d="M55.9175 9.69451C55.9175 9.69451 34.9722 19.1553 46.8 26.8482C56.9841 33.4744 77.0162 26.5121 82.3932 24.4519C83.3575 24.0793 85.4626 23.9416 86.5 24C89.7583 24.168 95.9817 24.8318 100.73 27.6737C106.991 31.4361 116.072 24.9122 112.492 17.9207C110.564 14.1656 91.4814 2.59341 87.1638 2.47652C82.8534 2.35963 69.9809 2.94408 55.9248 9.69451H55.9175Z" fill="#66B7BD"/>
<path d="M86.9372 8.03603C88.9546 8.03603 90.5901 6.56414 90.5901 4.74848C90.5901 2.93282 88.9546 1.46094 86.9372 1.46094C84.9198 1.46094 83.2844 2.93282 83.2844 4.74848C83.2844 6.56414 84.9198 8.03603 86.9372 8.03603Z" fill="#2A878D"/>
<path d="M87.003 5.46463C88.9438 5.46463 90.5171 4.24133 90.5171 2.73232C90.5171 1.2233 88.9438 0 87.003 0C85.0623 0 83.489 1.2233 83.489 2.73232C83.489 4.24133 85.0623 5.46463 87.003 5.46463Z" fill="url(#paint5_linear_931_1531)"/>
<path d="M24.1159 145.599C29.5951 138.037 31.3631 129.972 28.061 127.575C24.7588 125.179 17.6431 129.373 12.1639 136.927C6.68461 144.488 8.343 147.834 11.6378 150.223C14.94 152.619 18.6294 153.153 24.1159 145.591V145.599Z" fill="url(#paint6_linear_931_1531)"/>
<path d="M134.344 145.777C129.062 138.493 127.359 130.727 130.545 128.419C133.73 126.11 140.583 130.15 145.857 137.427C151.132 144.703 149.539 147.932 146.361 150.233C143.184 152.535 139.626 153.053 134.344 145.77V145.777Z" fill="url(#paint7_linear_931_1531)"/>
<path d="M64.5455 59.4605C65.1991 59.4605 65.729 58.9307 65.729 58.277C65.729 57.6234 65.1991 57.0935 64.5455 57.0935C63.8918 57.0935 63.3619 57.6234 63.3619 58.277C63.3619 58.9307 63.8918 59.4605 64.5455 59.4605Z" fill="white"/>
<path d="M98.1296 59.4605C98.7832 59.4605 99.3131 58.9307 99.3131 58.277C99.3131 57.6234 98.7832 57.0935 98.1296 57.0935C97.4759 57.0935 96.946 57.6234 96.946 58.277C96.946 58.9307 97.4759 59.4605 98.1296 59.4605Z" fill="white"/>
<path d="M6.00009 56.023C8.66187 46.662 21.5 25.5 43.5 18.4999" stroke="#66B7BD" stroke-width="0.2"/>
<path d="M151.5 56.023C148.838 46.662 136 25.5 114 18.4999" stroke="#66B7BD" stroke-width="0.2"/>
<circle cx="9" cy="49" r="1" fill="#66B7BD"/>
<circle cx="121.058" cy="21.3668" r="1" transform="rotate(86.5573 121.058 21.3668)" fill="#66B7BD"/>
<circle cx="14" cy="41" r="1" fill="#66B7BD"/>
<circle cx="128.344" cy="25.8776" r="1" transform="rotate(86.5573 128.344 25.8776)" fill="#66B7BD"/>
<circle cx="38" cy="21" r="1" fill="#66B7BD"/>
<circle cx="148.749" cy="49.6332" r="1" transform="rotate(86.5573 148.749 49.6332)" fill="#66B7BD"/>
<path d="M73 68C74.8333 69.6667 79.8 72 85 68" stroke="#293968" stroke-width="2.2" stroke-linecap="round"/>
<circle cx="79" cy="177" r="4" fill="#75CEA3"/>
<circle cx="79" cy="185" r="2" fill="#75CEA3"/>
<circle cx="79" cy="197" r="2" fill="#75CEA3"/>
<defs>
<linearGradient id="paint0_linear_931_1531" x1="80" y1="124" x2="80" y2="172" gradientUnits="userSpaceOnUse">
<stop stop-color="#2F3F70"/>
<stop offset="0.740439" stop-color="#3DADB5"/>
<stop offset="1" stop-color="#68E5A9"/>
</linearGradient>
<linearGradient id="paint1_linear_931_1531" x1="34.9283" y1="123.349" x2="124.744" y2="123.349" gradientUnits="userSpaceOnUse">
<stop stop-color="#A1FFD2"/>
<stop offset="1" stop-color="#78E1AE"/>
</linearGradient>
<linearGradient id="paint2_linear_931_1531" x1="117.633" y1="14.4067" x2="39" y2="133.5" gradientUnits="userSpaceOnUse">
<stop offset="0.774094" stop-color="#293968"/>
<stop offset="1" stop-color="#429AA8"/>
</linearGradient>
<linearGradient id="paint3_linear_931_1531" x1="50.0437" y1="81.8232" x2="124.561" y2="58.0799" gradientUnits="userSpaceOnUse">
<stop stop-color="#E4F1CD"/>
<stop offset="1" stop-color="white"/>
</linearGradient>
<linearGradient id="paint4_linear_931_1531" x1="52.2355" y1="24.1087" x2="103.01" y2="27.0309" gradientUnits="userSpaceOnUse">
<stop stop-color="#207A80"/>
<stop offset="1" stop-color="#66B7BD"/>
</linearGradient>
<linearGradient id="paint5_linear_931_1531" x1="87.003" y1="7.67736e-08" x2="85" y2="5.5" gradientUnits="userSpaceOnUse">
<stop stop-color="#66B7BD"/>
<stop offset="1" stop-color="#42B2BA"/>
</linearGradient>
<linearGradient id="paint6_linear_931_1531" x1="19.1607" y1="151.807" x2="19.1607" y2="126.901" gradientUnits="userSpaceOnUse">
<stop stop-color="#273765"/>
<stop offset="1" stop-color="#D8FDFE"/>
</linearGradient>
<linearGradient id="paint7_linear_931_1531" x1="149" y1="149" x2="129" y2="128" gradientUnits="userSpaceOnUse">
<stop stop-color="#273765"/>
<stop offset="1" stop-color="#D8FDFE"/>
</linearGradient>
</defs>
</svg>
