<svg width="110" height="121" viewBox="0 0 110 121" fill="none" xmlns="http://www.w3.org/2000/svg">
<g filter="url(#filter0_d_939_2847)">
<circle cx="55" cy="54" r="46" fill="white"/>
</g>
<circle cx="54.5" cy="53.5" r="37" fill="#3B4268" stroke="#63C39C" stroke-width="3"/>
<path d="M66.2006 39H41.7994C35.2828 39 30 44.5964 30 51.5C30 58.4036 35.2828 64 41.7994 64H66.2006C72.7172 64 78 58.4036 78 51.5C78 44.5964 72.7172 39 66.2006 39Z" fill="white"/>
<path d="M44.8051 54.1778C46.5237 54.1778 47.9169 52.7846 47.9169 51.066C47.9169 49.3474 46.5237 47.9542 44.8051 47.9542C43.0865 47.9542 41.6934 49.3474 41.6934 51.066C41.6934 52.7846 43.0865 54.1778 44.8051 54.1778Z" fill="#273765"/>
<path d="M64.7758 53.9584C66.4944 53.9584 67.8876 52.5652 67.8876 50.8466C67.8876 49.128 66.4944 47.7349 64.7758 47.7349C63.0573 47.7349 61.6641 49.128 61.6641 50.8466C61.6641 52.5652 63.0573 53.9584 64.7758 53.9584Z" fill="#273765"/>
<path d="M46.3254 50.6681C46.7002 50.6681 47.0039 50.3643 47.0039 49.9896C47.0039 49.6149 46.7002 49.3112 46.3254 49.3112C45.9507 49.3112 45.647 49.6149 45.647 49.9896C45.647 50.3643 45.9507 50.6681 46.3254 50.6681Z" fill="white"/>
<path d="M65.5779 50.6681C65.9526 50.6681 66.2564 50.3643 66.2564 49.9896C66.2564 49.6149 65.9526 49.3112 65.5779 49.3112C65.2032 49.3112 64.8994 49.6149 64.8994 49.9896C64.8994 50.3643 65.2032 50.6681 65.5779 50.6681Z" fill="white"/>
<path d="M47.6901 77.5444C47.453 77.9741 47.153 78.3148 46.7901 78.5667C46.4345 78.8111 46.0271 78.9556 45.5678 79V77.9111C46.0049 77.8296 46.353 77.5963 46.6123 77.2111C46.8715 76.8259 47.0234 76.3259 47.0678 75.7111H45.6678V74.6556H47.0678V73.7H48.2234V74.6556H49.6012V75.7111H48.2123C48.1975 76.0148 48.1604 76.2852 48.1012 76.5222L49.8789 78.1333L49.1567 78.9667L47.6901 77.5444ZM50.1123 78.9778V73.8889H51.2345V75.7333H52.3012V73.8444H53.4345V79.8444H52.3012V76.9111H51.2345V78.9778H50.1123ZM49.8012 81.0444C49.3493 81.4519 48.7975 81.7667 48.1456 81.9889C47.4938 82.2037 46.816 82.3111 46.1123 82.3111V81.1444C46.6456 81.137 47.1604 81.0556 47.6567 80.9C48.1604 80.737 48.5864 80.5074 48.9345 80.2111C49.2901 79.9074 49.516 79.5556 49.6123 79.1556L50.8123 79.4444C50.7382 79.7259 50.6456 79.963 50.5345 80.1556L53.8012 81.3L53.4012 82.4222L49.8012 81.0444ZM62.4667 79.1444H54.3222V78.1333H57.8V77.3889H54.8778V73.8778H56.0556V74.6778H60.7444V73.8778H61.9222V77.3889H59V78.1333H62.4667V79.1444ZM60.7444 76.4222V75.6222H56.0556V76.4222H60.7444ZM59.2 79.6889C59.1407 79.9556 59.0593 80.1889 58.9556 80.3889L62.2222 81.3444L61.8889 82.4L58.2556 81.2333C57.8333 81.5963 57.3111 81.8667 56.6889 82.0444C56.0667 82.2222 55.4074 82.3111 54.7111 82.3111V81.2333C55.5333 81.2333 56.2519 81.0852 56.8667 80.7889C57.4889 80.4852 57.8704 80.0556 58.0111 79.5L59.2 79.6889Z" fill="white"/>
<defs>
<filter id="filter0_d_939_2847" x="0" y="0" width="110" height="110" filterUnits="userSpaceOnUse" color-interpolation-filters="sRGB">
<feFlood flood-opacity="0" result="BackgroundImageFix"/>
<feColorMatrix in="SourceAlpha" type="matrix" values="0 0 0 0 0 0 0 0 0 0 0 0 0 0 0 0 0 0 127 0" result="hardAlpha"/>
<feOffset dy="1"/>
<feGaussianBlur stdDeviation="4.5"/>
<feComposite in2="hardAlpha" operator="out"/>
<feColorMatrix type="matrix" values="0 0 0 0 0.377543 0 0 0 0 0.778604 0 0 0 0 0.584758 0 0 0 1 0"/>
<feBlend mode="normal" in2="BackgroundImageFix" result="effect1_dropShadow_939_2847"/>
<feBlend mode="normal" in="SourceGraphic" in2="effect1_dropShadow_939_2847" result="shape"/>
</filter>
</defs>
</svg>
