<svg width="29" height="28" viewBox="0 0 29 28" fill="none" xmlns="http://www.w3.org/2000/svg">
<g opacity="0.7">
<path d="M2.94462 3.14228C6.5558 3.07507 10.0206 2.39253 13.2253 0.624173C13.5062 0.470338 13.7885 0.319491 14.0797 0.185072C15.0302 -0.254029 15.8713 0.101433 16.1758 1.11107C16.7389 2.98696 17.3982 4.84642 17.7707 6.76114C18.0161 8.02019 17.9998 9.39276 17.8003 10.6667C17.379 13.3566 16.396 15.812 14.3428 17.7402C12.6503 19.3293 10.7553 19.7206 8.62081 18.9544C4.10056 17.3339 1.55662 14.0287 0.715535 9.32107C0.458333 7.8798 0.272083 6.42658 0.0355751 4.98233C-0.150675 3.85022 0.400684 3.16021 1.54183 3.14228C2.00894 3.13482 2.47752 3.14228 2.94462 3.14228ZM7.50479 15.6044C7.62748 15.7881 7.78712 16.157 8.06059 16.3825C8.20101 16.4975 8.64594 16.4572 8.78489 16.3168C10.0059 15.0712 11.5062 14.9891 13.0864 15.1772C13.7057 15.2504 14.2098 14.7053 13.9053 14.1676C13.5963 13.624 13.1219 13.04 12.5794 12.7936C11.4042 12.2633 10.1699 12.3948 9.04653 13.0743C8.1818 13.5971 7.62748 14.3588 7.50479 15.6044ZM6.7524 8.48319C5.54917 8.48468 4.43167 9.34347 4.52184 10.2605C4.54992 10.5503 4.77608 10.9356 5.0185 11.0521C5.20032 11.1387 5.6556 10.9445 5.80933 10.7399C6.28678 10.1022 6.81744 10.0977 7.49444 10.3397C7.75165 10.4323 8.23353 10.3875 8.36213 10.2142C8.51734 10.0066 8.51882 9.53464 8.38726 9.28373C8.05615 8.65644 7.42793 8.48468 6.75388 8.48468L6.7524 8.48319ZM10.6385 8.8745C10.7893 9.08359 10.9238 9.45698 11.1529 9.53166C11.3806 9.60633 11.793 9.46295 11.9674 9.27029C12.4271 8.75949 12.9607 8.69826 13.4958 8.96411C13.9304 9.18067 14.2881 9.2897 14.5852 8.8506C14.9237 8.35325 14.6385 7.94103 14.2822 7.61096C13.3731 6.76711 11.4456 7.10913 10.8573 8.20838C10.7671 8.37715 10.7346 8.57728 10.6385 8.8745Z" fill="#60C795"/>
<path d="M10.3572 20.6357C13.5528 20.8304 15.6057 19.0903 17.2433 16.7231C18.5437 14.8418 19.2874 12.7034 19.657 10.3571C22.1384 11.8713 24.8908 12.2131 27.627 12.6187C28.7757 12.7896 29.1954 13.4108 28.917 14.5357C28.3074 17.0024 27.7374 19.4811 26.4062 21.6967C24.4578 24.9406 21.6053 26.8724 17.9472 27.5263C15.9326 27.8859 14.1743 27.1904 12.8209 25.5945C11.606 24.1605 10.8034 22.5155 10.3572 20.6357ZM17.5526 24.0178C18.4376 23.9242 19.3168 23.6523 19.8985 22.8216C20.3212 22.2183 20.1827 21.8379 19.4847 21.615C18.2521 21.2212 17.015 20.8422 15.778 20.4633C15.0977 20.2553 14.7634 20.5034 14.7398 21.2227C14.6912 22.6908 16.0166 24.0401 17.5526 24.0163V24.0178ZM21.7113 16.9727C20.9721 16.9252 20.1709 17.6919 20.0988 18.5181C20.0399 19.1913 20.4905 19.8124 21.0825 19.8719C21.7629 19.9388 22.5802 19.0457 22.6362 18.1719C22.6804 17.4958 22.3063 17.0113 21.7113 16.9727Z" fill="#282F56"/>
</g>
</svg>
