<svg width="27" height="27" viewBox="0 0 27 27" fill="none" xmlns="http://www.w3.org/2000/svg">
<path d="M4.125 13.5C4.53594 13.5 4.94375 13.4063 5.32344 13.2266C5.71103 13.0432 6.05674 12.7821 6.33906 12.4594C6.62969 12.1313 6.85937 11.7406 7.01562 11.3125C7.17187 10.8844 7.25 10.425 7.25 9.96252C7.2426 10.875 7.56813 11.7588 8.16563 12.4485C8.75156 13.1078 9.54688 13.4781 10.375 13.4781C11.2031 13.4781 12 13.1078 12.5844 12.4485C13.1819 11.7588 13.5074 10.875 13.5 9.96252C13.4926 10.875 13.8181 11.7588 14.4156 12.4485C15.0016 13.1078 15.7969 13.4781 16.625 13.4781C17.4531 13.4781 18.25 13.1078 18.8344 12.4485C19.4319 11.7588 19.7574 10.875 19.75 9.96252C19.75 10.4235 19.8313 10.8813 19.9875 11.3078C20.1438 11.7344 20.375 12.1219 20.6656 12.4485C20.948 12.7693 21.2931 13.0288 21.6797 13.211C22.0537 13.3866 22.4618 13.4776 22.875 13.4776C23.2882 13.4776 23.6963 13.3866 24.0703 13.211C24.4575 13.029 24.8032 12.7695 25.0859 12.4485C25.375 12.1219 25.6047 11.7344 25.7625 11.3078C25.9203 10.8813 26 10.4235 26 9.96252C26 8.44065 24.2687 3.9469 23.4719 1.96097C23.3574 1.67562 23.1596 1.43135 22.9043 1.25996C22.6491 1.08856 22.3481 0.997994 22.0406 1.00003H4.8375C4.52132 0.999376 4.21253 1.09562 3.95272 1.27582C3.69291 1.45601 3.49456 1.71148 3.38438 2.00784C2.63281 4.06565 1 8.66409 1 9.96252C1.03594 10.8844 1.37656 11.7563 1.95469 12.411C2.53281 13.0641 3.30625 13.4531 4.125 13.5ZM4.125 13.5C4.6375 13.5 5.14219 13.3578 5.59375 13.0844C6.05799 12.8012 6.44458 12.4071 6.71875 11.9375H7.78281C8.05611 12.4068 8.44159 12.8008 8.90469 13.0844C9.35781 13.3578 9.8625 13.5 10.3766 13.5C10.8906 13.5 11.3937 13.3578 11.8453 13.0844C12.2984 12.8125 12.6844 12.4172 12.9688 11.9375H14.0328C14.3065 12.4069 14.6926 12.801 15.1562 13.0844C15.6078 13.3578 16.1125 13.5 16.625 13.5C17.1391 13.5 17.6438 13.3578 18.0969 13.0844C18.55 12.8125 18.9344 12.4172 19.2187 11.9375H20.2828C20.5687 12.4172 20.9547 12.8125 21.4062 13.0844C21.8594 13.3563 22.3641 13.5 22.8766 13.5C23.4728 13.4974 24.0528 13.3053 24.5328 12.9516M4.125 13.5C3.44869 13.4827 2.80218 13.2181 2.30781 12.7563L4.125 13.5ZM2.5625 13.5V24.4375C2.5625 24.8519 2.72712 25.2493 3.02015 25.5424C3.31317 25.8354 3.7106 26 4.125 26H7.25V18.1875H11.9375V26H22.875C23.2894 26 23.6868 25.8354 23.9799 25.5424C24.2729 25.2493 24.4375 24.8519 24.4375 24.4375V13.5M16.625 18.1875V21.3125H19.75V18.1875H16.625Z" fill="#60C795"/>
<path d="M4.125 13.5C4.53594 13.5 4.94375 13.4063 5.32344 13.2266C5.71103 13.0432 6.05674 12.7821 6.33906 12.4594C6.62969 12.1313 6.85937 11.7406 7.01562 11.3125C7.17187 10.8844 7.25 10.425 7.25 9.96252C7.2426 10.875 7.56813 11.7588 8.16563 12.4485C8.75156 13.1078 9.54687 13.4781 10.375 13.4781C11.2031 13.4781 12 13.1078 12.5844 12.4485C13.1819 11.7588 13.5074 10.875 13.5 9.96252C13.4926 10.875 13.8181 11.7588 14.4156 12.4485C15.0016 13.1078 15.7969 13.4781 16.625 13.4781C17.4531 13.4781 18.25 13.1078 18.8344 12.4485C19.4319 11.7588 19.7574 10.875 19.75 9.96252C19.75 10.4235 19.8313 10.8813 19.9875 11.3078C20.1438 11.7344 20.375 12.1219 20.6656 12.4485C20.948 12.7693 21.2931 13.0288 21.6797 13.211C22.0537 13.3866 22.4618 13.4776 22.875 13.4776C23.2882 13.4776 23.6963 13.3866 24.0703 13.211C24.4575 13.029 24.8032 12.7695 25.0859 12.4485C25.375 12.1219 25.6047 11.7344 25.7625 11.3078C25.9203 10.8813 26 10.4235 26 9.96252C26 8.44065 24.2687 3.9469 23.4719 1.96097C23.3574 1.67562 23.1596 1.43135 22.9043 1.25996C22.6491 1.08856 22.3481 0.997994 22.0406 1.00003H4.8375C4.52132 0.999376 4.21253 1.09562 3.95272 1.27582C3.69291 1.45601 3.49456 1.71148 3.38438 2.00784C2.63281 4.06565 1 8.66409 1 9.96252C1.03594 10.8844 1.37656 11.7563 1.95469 12.411C2.53281 13.0641 3.30625 13.4531 4.125 13.5ZM4.125 13.5C4.6375 13.5 5.14219 13.3578 5.59375 13.0844C6.05799 12.8012 6.44458 12.4071 6.71875 11.9375H7.78281C8.05611 12.4068 8.44159 12.8008 8.90469 13.0844C9.35781 13.3578 9.8625 13.5 10.3766 13.5C10.8906 13.5 11.3937 13.3578 11.8453 13.0844C12.2984 12.8125 12.6844 12.4172 12.9687 11.9375H14.0328C14.3065 12.4069 14.6926 12.801 15.1563 13.0844C15.6078 13.3578 16.1125 13.5 16.625 13.5C17.1391 13.5 17.6438 13.3578 18.0969 13.0844C18.55 12.8125 18.9344 12.4172 19.2187 11.9375H20.2828C20.5687 12.4172 20.9547 12.8125 21.4062 13.0844C21.8594 13.3563 22.3641 13.5 22.8766 13.5C23.4728 13.4974 24.0528 13.3053 24.5328 12.9516M4.125 13.5C3.44869 13.4827 2.80218 13.2181 2.30781 12.7563M2.5625 13.5V24.4375C2.5625 24.8519 2.72712 25.2493 3.02015 25.5424C3.31317 25.8354 3.7106 26 4.125 26H7.25V18.1875H11.9375V26H22.875C23.2894 26 23.6868 25.8354 23.9799 25.5424C24.2729 25.2493 24.4375 24.8519 24.4375 24.4375V13.5M16.625 18.1875V21.3125H19.75V18.1875H16.625Z" stroke="#282F56" stroke-width="2" stroke-linecap="round" stroke-linejoin="round"/>
</svg>
