<svg width="8" height="5" viewBox="0 0 8 5" fill="none" xmlns="http://www.w3.org/2000/svg">
<path d="M7.83011 0.16491C7.71723 0.05935 7.56416 4.95524e-05 7.40455 4.95385e-05C7.24494 4.95245e-05 7.09186 0.0593499 6.97898 0.16491L3.99943 2.95213L1.01988 0.16491C0.906352 0.0623411 0.754303 0.00558647 0.596479 0.00686915C0.438655 0.00815182 0.287683 0.0673702 0.176081 0.171769C0.0644778 0.276168 0.00117431 0.417394 -0.000197083 0.565031C-0.00156848 0.712667 0.0591024 0.854901 0.168749 0.961098L3.57387 4.14642C3.68674 4.25198 3.83982 4.31128 3.99943 4.31128C4.15904 4.31128 4.31212 4.25198 4.42499 4.14642L7.83011 0.961099C7.94296 0.855507 8.00635 0.712312 8.00635 0.563005C8.00635 0.413697 7.94296 0.270503 7.83011 0.16491Z" fill="#8A8A8A"/>
</svg>
