<svg width="8" height="4" viewBox="0 0 8 4" fill="none" xmlns="http://www.w3.org/2000/svg">
<path d="M7.82391 0.15296C7.71112 0.0550201 7.55817 6.7708e-07 7.39869 6.633e-07C7.23921 6.49521e-07 7.08626 0.05502 6.97348 0.15296L3.99637 2.73897L1.01926 0.152959C0.905829 0.0577952 0.753904 0.00513753 0.59621 0.00632794C0.438515 0.00751835 0.287668 0.0624614 0.176156 0.159323C0.0646451 0.256186 0.00139364 0.387217 2.31956e-05 0.524195C-0.00134725 0.661174 0.059274 0.79314 0.168831 0.891671L3.57115 3.84704C3.68394 3.94498 3.83689 4 3.99637 4C4.15585 4 4.3088 3.94498 4.42158 3.84704L7.82391 0.891671C7.93666 0.793702 8 0.660845 8 0.522316C8 0.383787 7.93666 0.25093 7.82391 0.15296Z" fill="#8A8A8A"/>
</svg>
