<svg width="32" height="27" viewBox="0 0 32 27" fill="none" xmlns="http://www.w3.org/2000/svg">
<g opacity="0.7" clip-path="url(#clip0_939_2780)">
<path d="M0.512527 25.3551C0.0419634 24.8785 0.00991783 24.2552 0.00823122 23.6586C-0.00357503 18.9405 -0.00526164 14.2208 0.0149777 9.50278C0.0217241 8.09953 0.117861 6.69628 0.151593 5.29304C0.188698 3.7748 1.1838 2.70653 2.74054 2.69986C8.83593 2.67653 14.9313 2.6782 21.0267 2.69986C22.2293 2.70486 22.8162 3.57481 23.28 4.53142C21.0048 7.40791 18.819 10.3594 16.424 13.1359C14.5131 15.3507 13.265 17.7856 12.818 20.6421C12.3761 21.3304 12.2041 22.1087 12.1282 22.8969C12.0607 23.6002 12.5465 23.9719 13.184 23.6919C13.9379 23.3619 14.6969 23.0019 15.2484 22.352C17.1408 21.467 19.1394 20.7621 20.4229 18.9505C21.0655 18.0422 21.8026 17.199 22.5177 16.344C22.656 16.179 22.7201 15.8557 23.1299 15.9507C23.1299 18.4672 23.1299 20.9887 23.1299 23.5119C23.1299 25.5435 22.1315 26.5401 20.0839 26.5401C14.9971 26.5434 9.9103 26.5301 4.8235 26.5434C3.44385 26.5467 2.06927 26.5901 0.827922 25.8484L0.838042 25.8601C0.779011 25.7434 0.71998 25.6268 0.660948 25.5101L0.674441 25.5251C0.62047 25.4685 0.566498 25.4118 0.512527 25.3551ZM4.54858 16.349C4.06284 16.3074 3.74069 16.459 3.56191 16.8157C3.36458 17.2123 3.48433 17.5706 3.79298 17.8739C4.45076 18.5172 5.10685 19.1638 5.77137 19.8021C6.23013 20.2421 6.69057 20.2988 7.14764 19.7838C8.29453 18.4922 9.45155 17.2073 10.5951 15.9124C11.0049 15.4474 11.2107 14.9091 10.6355 14.4625C10.1127 14.0558 9.64888 14.3275 9.25759 14.7791C8.58126 15.5574 7.88469 16.319 7.19992 17.0906C6.70294 17.6495 6.17391 17.6651 5.61283 17.1373C5.27045 16.8173 4.98372 16.4173 4.54858 16.349ZM10.9746 7.30291C10.956 6.76295 10.8244 6.48963 10.5158 6.35464C10.0807 6.16465 9.69779 6.27298 9.38071 6.62295C8.50367 7.59289 7.61652 8.55283 6.75297 9.53444C6.52191 9.79609 6.37686 9.86442 6.107 9.5811C5.76294 9.21946 5.38682 8.88115 4.9871 8.58117C4.55532 8.25785 4.08139 8.25452 3.71033 8.68116C3.33253 9.11447 3.43036 9.54111 3.83008 9.92608C4.45244 10.5244 5.06974 11.1277 5.68704 11.731C6.20314 12.2343 6.6872 12.2559 7.18812 11.691C8.29453 10.4427 9.42287 9.20946 10.536 7.9662C10.757 7.71789 10.983 7.46124 10.9746 7.30458V7.30291Z" fill="#60C795"/>
<path d="M0.828125 25.8485C2.06947 26.5901 3.44405 26.5468 4.8237 26.5434C9.91051 26.5301 14.9973 26.5434 20.0841 26.5401C22.1317 26.5401 23.1284 25.5418 23.1301 23.5119C23.1318 20.9904 23.1301 18.4673 23.1301 15.9507C22.722 15.8557 22.6579 16.1791 22.5179 16.3441C21.8028 17.199 21.0657 18.0423 20.4231 18.9506C19.1396 20.7621 17.141 21.4671 15.2486 22.352C14.5335 21.6504 13.8032 20.9704 12.8182 20.6421C13.2652 17.7856 14.5133 15.3508 16.4242 13.1359C18.8192 10.3611 21.005 7.40794 23.2802 4.53145C23.9465 3.90982 24.3462 3.0632 25.063 2.48657C27.011 3.60817 28.6015 5.15474 30.1936 6.70131C28.168 9.25115 26.1559 11.8127 24.1084 14.3442C23.6935 14.8558 23.5332 15.3691 23.54 16.0124C23.567 18.6189 23.5518 21.2254 23.5568 23.8336C23.5602 25.8635 22.4437 27.0001 20.4181 27.0001C14.7494 27.0001 9.07901 26.9901 3.41032 27.0001C2.35788 27.0017 1.49939 26.6451 0.828125 25.8485Z" fill="#282F56"/>
<path d="M30.1951 6.70121C28.603 5.15464 27.0125 3.60807 25.0645 2.48647C25.4051 1.88151 25.8217 1.32321 26.3294 0.854903C27.4864 -0.211698 29.1848 -0.281694 30.3992 0.646582C31.9155 1.80484 32.4164 3.60307 31.6355 5.12131C31.2998 5.77293 30.8158 6.29957 30.1951 6.70121Z" fill="#656A87"/>
<path d="M0.661133 25.5084C0.720164 25.6251 0.779195 25.7417 0.838227 25.8584C0.708358 25.7767 0.661133 25.6551 0.661133 25.5084Z" fill="#282F56"/>
<path d="M4.54887 16.349C4.98402 16.4157 5.27243 16.8173 5.61312 17.1373C6.17645 17.665 6.70548 17.6495 7.20022 17.0906C7.88498 16.319 8.58155 15.559 9.25788 14.7791C9.64917 14.3275 10.113 14.0558 10.6358 14.4624C11.211 14.9091 11.0052 15.4474 10.5954 15.9124C9.45184 17.2073 8.29483 18.4922 7.14793 19.7838C6.69086 20.2971 6.23042 20.2421 5.77166 19.8021C5.10714 19.1638 4.45274 18.5172 3.79327 17.8739C3.48462 17.5706 3.36487 17.2123 3.56221 16.8156C3.7393 16.459 4.06144 16.3073 4.54887 16.349Z" fill="white"/>
<path d="M10.975 7.30286C10.9834 7.45952 10.7591 7.71617 10.5365 7.96449C9.4233 9.20941 8.29664 10.441 7.18854 11.6893C6.68762 12.2559 6.20188 12.2326 5.68746 11.7293C5.07016 11.126 4.45286 10.5227 3.83051 9.92437C3.42909 9.53939 3.33127 9.11108 3.71076 8.67944C4.0835 8.2528 4.55743 8.25614 4.98752 8.57945C5.38724 8.87943 5.76336 9.21941 6.10743 9.57939C6.37897 9.86437 6.52402 9.79438 6.7534 9.53272C7.61694 8.55112 8.50409 7.59118 9.38113 6.62124C9.69821 6.27126 10.0811 6.16293 10.5162 6.35292C10.8249 6.48791 10.9564 6.76123 10.975 7.3012V7.30286Z" fill="white"/>
<path d="M12.8182 20.6421C13.8031 20.9687 14.5334 21.6487 15.2486 22.352C14.697 23.0019 13.9381 23.3619 13.1842 23.6919C12.5466 23.9719 12.0609 23.6002 12.1283 22.897C12.2042 22.1087 12.3763 21.3304 12.8182 20.6421Z" fill="white"/>
</g>
<defs>
<clipPath id="clip0_939_2780">
<rect width="32" height="27" fill="white"/>
</clipPath>
</defs>
</svg>
