<svg width="28" height="28" viewBox="0 0 28 28" fill="none" xmlns="http://www.w3.org/2000/svg">
<circle cx="14" cy="14" r="12" fill="#60C795"/>
<path d="M9.51338 19.8172C8.66548 20.2162 7.78375 19.3345 8.18277 18.4866L11.3267 11.8057C11.4258 11.5952 11.5952 11.4258 11.8057 11.3267L18.4866 8.18277C19.3345 7.78375 20.2162 8.66548 19.8172 9.51338L16.6733 16.1943C16.5742 16.4048 16.4048 16.5742 16.1943 16.6733L9.51338 19.8172ZM14 12.74C13.6658 12.74 13.3453 12.8727 13.109 13.109C12.8727 13.3453 12.74 13.6658 12.74 14C12.74 14.3342 12.8727 14.6547 13.109 14.891C13.3453 15.1273 13.6658 15.26 14 15.26C14.3342 15.26 14.6547 15.1273 14.891 14.891C15.1273 14.6547 15.26 14.3342 15.26 14C15.26 13.6658 15.1273 13.3453 14.891 13.109C14.6547 12.8727 14.3342 12.74 14 12.74ZM14 0C15.8385 0 17.659 0.362121 19.3576 1.06569C21.0561 1.76925 22.5995 2.80048 23.8995 4.1005C25.1995 5.40053 26.2307 6.94387 26.9343 8.64243C27.6379 10.341 28 12.1615 28 14C28 17.713 26.525 21.274 23.8995 23.8995C21.274 26.525 17.713 28 14 28C12.1615 28 10.341 27.6379 8.64243 26.9343C6.94387 26.2307 5.40053 25.1995 4.1005 23.8995C1.475 21.274 0 17.713 0 14C0 10.287 1.475 6.72601 4.1005 4.1005C6.72601 1.475 10.287 0 14 0ZM14 2.8C11.0296 2.8 8.18081 3.98 6.0804 6.0804C3.98 8.18081 2.8 11.0296 2.8 14C2.8 16.9704 3.98 19.8192 6.0804 21.9196C8.18081 24.02 11.0296 25.2 14 25.2C16.9704 25.2 19.8192 24.02 21.9196 21.9196C24.02 19.8192 25.2 16.9704 25.2 14C25.2 11.0296 24.02 8.18081 21.9196 6.0804C19.8192 3.98 16.9704 2.8 14 2.8Z" fill="#282F56"/>
</svg>
