<svg width="31" height="25" viewBox="0 0 31 25" fill="none" xmlns="http://www.w3.org/2000/svg">
<path opacity="0.7" d="M18.2223 5.27588C19.2991 5.30716 19.9109 5.57227 20.2045 6.41039C20.5569 7.41646 21.0023 8.3896 21.3384 9.39897C21.4265 9.66407 21.371 10.1334 21.1899 10.3112C18.0624 13.3936 14.9087 16.4497 11.7404 19.491C11.5985 19.6276 11.2314 19.6556 11.0291 19.5782C10.0437 19.1946 9.07293 18.7698 8.10546 18.3384C6.93406 17.8147 6.67465 16.5584 7.57197 15.5819C8.34692 14.7389 9.18877 13.9568 9.99962 13.145C12.4126 10.7327 14.8174 8.31056 17.2467 5.91476C17.5713 5.59367 18.0232 5.40267 18.2223 5.27588Z" fill="#282F56"/>
<path opacity="0.7" d="M14.207 19.7681C16.9589 17.3036 19.6485 14.8961 22.3841 12.4482C22.927 13.7528 23.5085 15.1297 24.0604 16.5178C24.1049 16.629 23.9699 16.8515 23.8527 16.96C22.2891 18.4079 20.7211 19.8515 19.1263 21.2688C18.9705 21.4065 18.5848 21.4537 18.3757 21.3773C17.0005 20.8766 15.6445 20.3286 14.21 19.7681H14.207Z" fill="#282F56"/>
<path opacity="0.7" d="M19.5864 22.2858C21.2068 20.7599 22.7435 19.3105 24.3189 17.8276C24.3887 17.963 24.4942 18.1271 24.5639 18.3071C25.285 20.1467 26.02 21.98 26.696 23.8372C26.8077 24.1446 26.7705 24.6527 26.5844 24.8852C26.451 25.0525 25.9161 25.019 25.6308 24.8996C23.632 24.065 21.6503 23.1858 19.5864 22.2874V22.2858Z" fill="#282F56"/>
<path opacity="0.7" d="M4.07311 0.8982C4.34309 1.06216 4.56612 1.16722 4.75226 1.31526C6.26649 2.52664 7.77402 3.74439 9.28154 4.96373C9.64711 5.25981 9.93385 5.5941 9.52134 6.03663C9.1541 6.42981 8.76003 6.28018 8.41459 6.00479C6.83328 4.74724 5.24862 3.49129 3.69749 2.19872C3.50465 2.03795 3.41242 1.64158 3.46105 1.38689C3.49626 1.20224 3.84003 1.07171 4.07144 0.896606L4.07311 0.8982Z" fill="#60C795"/>
<path opacity="0.7" d="M0.471269 8.37814C0.78154 8.31895 1.01749 8.2475 1.25486 8.23267C3.19058 8.1173 5.1256 8.01113 7.06168 7.90616C7.53143 7.881 7.96828 7.93701 7.95858 8.54191C7.94942 9.07985 7.55663 9.23282 7.11568 9.25985C5.09923 9.38591 3.08136 9.51539 1.06385 9.59523C0.812972 9.6051 0.478924 9.37267 0.344367 9.15102C0.246781 8.99035 0.414503 8.66312 0.468957 8.37808L0.471269 8.37814Z" fill="#60C795"/>
<path opacity="0.7" d="M28.532 7.96727C29.4824 7.95208 30.3532 8.81605 30.3449 9.76609C30.3383 10.7094 29.5338 11.5329 28.6 11.5514C27.613 11.5717 26.7621 10.76 26.7588 9.79309C26.7538 8.79412 27.5434 7.98076 28.532 7.96558V7.96727Z" fill="#90D8B5"/>
<path opacity="0.7" d="M6.57189 21.4139C7.38889 21.4071 7.92681 21.9395 7.93086 22.7573C7.93355 23.5246 7.33361 24.1089 6.55032 24.1034C5.84252 24.098 5.23719 23.4672 5.24123 22.7368C5.24528 21.9873 5.81556 21.4221 6.57189 21.4152V21.4139Z" fill="#B2E4CC"/>
<path opacity="0.7" d="M12.4138 5.67981C12.218 5.87664 12.0105 6.25025 11.7745 6.27394C11.5201 6.29946 11.0934 6.06618 10.9963 5.82379C10.7336 5.16587 10.603 4.44416 10.4223 3.74615C10.1813 2.81486 9.89515 1.89451 9.73115 0.946817C9.68094 0.658865 9.90854 0.124875 10.1328 0.0228159C10.3487 -0.0755984 10.9311 0.163146 10.9963 0.380022C11.5017 2.07129 11.9218 3.79536 12.4138 5.67981Z" fill="#60C795"/>
<path opacity="0.7" d="M25.8608 3.02616C25.8542 3.76988 25.4347 4.38601 24.9415 4.3793C24.4428 4.37258 24.0497 3.73967 24.0696 2.97412C24.0872 2.29252 24.5254 1.67975 24.9866 1.68982C25.4479 1.69989 25.8674 2.3412 25.8619 3.02448L25.8608 3.02616Z" fill="#90D8B5"/>
</svg>
