<svg width="12" height="12" viewBox="0 0 12 12" fill="none" xmlns="http://www.w3.org/2000/svg">
<circle cx="6" cy="6" r="6" fill="#60C795"/>
<path d="M6 9.99945C6.55228 9.99945 7 9.67384 7 9.27218C7 8.87053 6.55228 8.54492 6 8.54492C5.44772 8.54492 5 8.87053 5 9.27218C5 9.67384 5.44772 9.99945 6 9.99945Z" fill="white"/>
<path d="M7 7.33326C7 7.52614 6.89464 7.71112 6.70711 7.84751C6.51957 7.9839 6.26522 8.06052 6 8.06052C5.73478 8.06052 5.48043 7.9839 5.29289 7.84751C5.10536 7.71112 5 7.52614 5 7.33326V2.72726C5 2.53438 5.10536 2.3494 5.29289 2.21301C5.48043 2.07662 5.73478 2 6 2C6.26522 2 6.51957 2.07662 6.70711 2.21301C6.89464 2.3494 7 2.53438 7 2.72726V7.33326Z" fill="white"/>
</svg>
