<svg width="428" height="543" viewBox="0 0 428 543" fill="none" xmlns="http://www.w3.org/2000/svg">
<rect x="-42" y="-68" width="512" height="315" fill="#282F56"/>
<path opacity="0.7" d="M453.5 24C544.903 24 619 109.84 619 215.729C619 312.26 557.42 392.129 477.287 405.491C457.096 484.976 393.648 543 318.5 543C227.097 543 153 457.16 153 351.271C153 254.74 214.579 174.87 294.712 161.508C314.903 82.0236 378.352 24 453.5 24Z" fill="url(#paint0_linear_163_83)"/>
<path d="M277.479 233.845C272.153 229.303 267.451 224.215 263.761 218.256C262.048 215.491 260.815 212.521 260.571 209.254C260.168 203.857 262.714 199.871 266.944 196.821C269.905 194.687 273.324 193.774 276.944 193.625C284.208 193.322 290.896 195.402 297.305 198.596C297.744 198.815 298.136 199.143 298.652 199.19V199.166C298.797 199.439 299.005 199.607 299.337 199.562C300.79 200.699 302.315 201.737 303.882 202.714C304.385 203.027 304.695 202.876 305.066 202.493C306.517 200.982 308.104 199.611 309.72 198.277C312.893 195.655 316.299 193.431 320.323 192.303C322.07 191.813 323.83 191.247 325.665 191.52C328.81 191.988 331.837 192.895 334.697 194.297C339.139 196.474 343.01 199.451 346.696 202.708C347.904 203.774 348.925 205.089 350.464 205.755L350.458 205.749C350.824 206.766 351.879 207.206 352.423 208.056C353.451 209.662 354.716 210.082 356.702 209.888C360.798 209.49 364.883 209.109 368.916 208.292C372.388 207.587 374.636 205.625 375.413 202.112C375.567 201.42 375.353 200.688 375.687 200.026C377.169 195.482 377.419 190.658 378.892 186.108C381.061 179.415 385.223 174.32 391.733 171.613C398.686 168.719 404.021 164.098 408.408 158.165C411.204 154.381 414.548 151.187 418.917 149.214C421.137 148.212 423.443 147.565 425.918 147.622C428.701 147.688 430.737 149.612 430.961 152.379C431.218 155.528 430.253 158.372 428.861 161.125C427.866 163.096 426.652 164.935 425.196 166.582C422.319 169.836 420.974 173.713 420.232 177.883C419.504 181.964 419.309 186.108 418.744 190.207C418.065 195.138 417.1 199.975 413.899 204.033C411.619 206.923 408.59 208.932 405.582 210.954C401.93 213.408 398.059 215.538 394.61 218.292C392.373 220.078 390.431 222.125 389.01 224.625C389.712 224.94 389.87 224.394 390.095 223.949C390.112 223.913 390.14 223.891 390.179 223.885C390.618 224.038 390.911 223.7 391.26 223.559C393.57 222.634 395.908 221.695 398.449 221.95C401.367 222.244 402.833 223.468 402.902 226.428C402.927 227.513 402.636 228.518 402.195 229.49C402.022 229.874 401.758 230.229 401.863 230.689L401.874 230.676C401.065 231.067 400.872 231.868 400.577 232.602L400.587 232.591C400.123 232.808 399.725 233.079 399.718 233.664L399.725 233.657C399.035 233.938 398.618 234.453 398.423 235.16C398.361 235.224 398.299 235.288 398.237 235.351C398.16 235.43 398.08 235.507 398.003 235.586L398.014 235.577C396.834 236.396 395.882 237.443 395.01 238.569L395.019 238.561C394.844 238.567 394.644 238.548 394.741 238.831C394.726 238.91 394.677 238.946 394.597 238.942C394.557 238.942 394.516 238.94 394.477 238.937C394.495 238.959 394.514 238.982 394.531 239.003C394.531 239.071 394.499 239.11 394.43 239.118C393.97 238.988 393.854 239.316 393.732 239.638L393.739 239.631C392.889 239.735 392.519 240.482 391.964 240.974C391.791 241.127 391.983 241.27 392.18 241.306C392.583 241.651 393.067 241.47 393.516 241.5C397.946 241.806 402.484 240.697 406.794 242.525L406.785 242.517C407.2 243.17 407.678 243.768 408.316 244.222L408.307 244.213C408.474 245.25 408.618 246.292 408.817 247.322C409.095 248.761 408.967 248.95 407.547 248.95C392.975 248.95 378.402 248.95 363.829 248.95C363.545 248.95 363.226 248.87 362.982 248.97C362.667 249.099 363.054 249.191 363.078 249.319C362.716 249.344 362.412 249.502 362.104 249.689C351.731 255.978 340.702 255.007 331.578 247.014C331.291 246.695 330.91 246.833 330.569 246.831C328.93 246.818 327.287 246.829 325.648 246.824C325.297 246.824 324.935 246.884 324.661 246.556C322.379 243.819 319.589 241.589 317.097 239.061C316.63 238.588 316.296 238.461 315.656 238.869C311.846 241.298 307.911 243.513 303.813 245.435C303.317 245.667 302.829 245.886 302.28 245.718C297.217 244.164 292.405 242.072 288.01 239.095C285.526 237.414 283.413 235.311 281.219 233.289C279.38 231.595 279.977 231.572 278.2 233.232C277.969 233.449 277.719 233.645 277.477 233.851L277.479 233.845ZM390.277 203.818C393.702 197.062 397.749 190.779 401.801 184.501C406.321 177.502 411.039 170.649 416.427 164.271C417.547 162.947 418.566 161.538 419.621 160.161C419.979 159.695 420.351 159.106 419.765 158.665C419.118 158.18 418.774 158.818 418.44 159.287C418.007 159.893 417.586 160.508 417.106 161.074C412.871 166.084 408.898 171.292 405.197 176.706C400.335 183.82 395.788 191.135 391.328 198.502C390.65 199.626 390.144 200.873 389.029 202.052C389.395 199.383 389.753 196.989 390.048 194.589C390.416 191.579 390.767 188.566 391.056 185.548C391.193 184.114 391.2 182.667 391.193 181.224C391.193 180.762 391.106 180.132 390.369 180.251C389.725 180.355 389.83 180.924 389.845 181.364C389.939 183.814 389.613 186.242 389.346 188.655C388.838 193.241 388.151 197.811 387.475 202.378C387.274 203.729 387.383 205.191 386.676 206.402C384.142 210.75 381.609 215.098 379.228 219.533C378.181 221.484 378.07 221.665 378.7 223.951C379.098 223.051 379.412 222.191 379.845 221.395C381.367 218.592 383.035 215.862 384.448 213.008C386.516 208.832 389.678 205.791 393.574 203.31C398.412 200.228 403.4 197.442 408.56 194.944C408.909 194.776 409.249 194.574 409.555 194.337C409.924 194.057 410.144 193.661 409.831 193.231C409.545 192.833 409.136 192.969 408.772 193.158C407.952 193.586 407.155 194.063 406.32 194.452C401.801 196.561 397.485 199.03 393.315 201.752C392.29 202.42 391.29 203.127 390.277 203.816V203.818ZM320.713 236.047C321.015 236.411 321.255 236.673 321.464 236.958C321.702 237.282 321.878 237.38 322.295 237.107C328.009 233.385 333.226 229.095 337.675 223.917C337.923 223.627 338.281 223.355 338 222.91C337.733 222.489 337.334 222.323 336.823 222.34C336.322 222.355 336.073 222.708 335.789 223.008C331.214 227.835 326.294 232.27 320.715 236.047H320.713Z" fill="url(#paint1_linear_163_83)"/>
<path d="M295.023 139.752C296.104 139.756 297.087 139.275 298.14 139.124C298.84 139.024 299.114 139.254 299.298 139.912C302.007 149.597 304.738 159.276 307.466 168.955C307.772 170.042 308.084 171.125 308.455 172.428C310.668 169.791 312.816 167.235 314.963 164.677C315.179 164.794 315.397 164.907 315.614 165.026C318.827 166.801 322.212 167.967 325.941 167.85C328.786 167.761 331.428 166.865 334.003 165.743C333.181 169.361 332.077 172.917 331.385 176.803C332.807 174.448 334.053 172.27 335.41 170.161C337.251 167.299 339.195 164.494 341.954 162.4C344.311 160.612 346.91 159.636 349.927 160.397C352.423 161.027 354.138 162.753 355.581 164.692C359.272 169.653 361.13 175.395 362.442 181.341C363.363 185.514 363.881 189.749 364.339 193.988C364.651 196.866 364.065 199.507 361.83 201.55C358.621 204.482 354.617 205.334 350.456 205.736L350.462 205.742C351.652 202.482 352.644 199.166 353.352 195.765C353.496 195.074 353.395 194.68 352.776 194.269C351.081 193.146 349.274 192.222 347.471 191.3C341.879 188.442 335.979 186.346 330.004 184.444C329.336 184.231 329.112 184.475 328.887 184.999C328.105 186.823 327.251 188.617 326.532 190.464C326.236 191.222 325.96 191.249 325.305 190.917C324.164 190.341 322.972 189.862 321.807 189.334C316.258 186.821 310.741 184.239 305.826 180.598C299.797 176.133 294.092 171.287 288.746 166.024C287.485 164.784 286.092 163.666 284.242 163.324C282.497 163 281.232 164.36 281.735 166.035C282.255 167.776 283.39 169.157 284.413 170.6C285.314 171.87 286.299 173.081 287.235 174.328C287.453 174.62 287.586 174.963 287.305 175.305C287.036 175.637 286.697 175.782 286.267 175.633C286.032 175.552 285.792 175.482 285.561 175.392C283.219 174.488 281.11 173.181 279.078 171.728C278.014 170.968 277.025 170.066 275.739 169.666C274.422 169.257 273.471 169.94 273.405 171.304C273.354 172.37 273.81 173.252 274.538 173.962C275.938 175.331 277.515 176.482 279.168 177.531C280.519 178.389 281.878 179.23 283.216 180.106C283.488 180.285 283.97 180.53 283.769 180.896C283.559 181.279 283.122 180.994 282.823 180.834C281.943 180.37 281.067 179.894 280.209 179.391C278.513 178.404 277.066 177.076 275.499 175.914C275.004 175.548 274.469 175.316 273.919 175.622C273.309 175.959 272.936 176.476 272.953 177.265C272.985 178.787 273.818 179.902 274.846 180.824C277.503 183.201 280.551 185.039 283.615 186.848C283.983 187.065 284.612 186.861 284.721 187.506C284.373 187.259 284.024 187.327 283.619 187.408C279.545 188.223 275.458 188.983 271.388 189.826C270.633 189.983 270.316 189.789 270.025 189.138C266.522 181.309 262.994 173.492 259.485 165.667C257.304 160.804 255.127 155.941 252.986 151.061C252.288 149.471 252.66 148.714 253.864 147.935C263.808 141.482 273.724 134.985 283.628 128.473C284.375 127.981 284.713 128.066 285.135 128.826C286.074 130.524 287.1 132.178 288.091 133.849C288.083 133.917 288.113 133.959 288.181 133.976C288.269 134.136 288.357 134.298 288.447 134.457C288.701 135.155 288.038 135.064 287.74 135.2C279.716 138.843 271.607 142.295 263.499 145.754C260.98 146.828 258.466 147.92 255.726 149.099C256.09 149.099 256.199 149.12 256.298 149.097C266.985 146.556 277.676 144.025 288.354 141.453C290.583 140.916 292.854 140.533 295.019 139.748L295.023 139.752Z" fill="#406FC6"/>
<path d="M305.231 131.099C302.685 126.015 302.15 120.888 305.222 115.844C309.859 108.23 316.701 103.599 325.545 102.614C338.323 101.188 348.91 105.712 357.203 115.493C357.246 115.544 357.306 115.583 357.45 115.704C357.662 114.278 357.764 112.886 358.178 111.563C359.817 106.31 362.855 102.279 368.327 100.554C374.384 98.6425 380.528 101.839 382.232 107.691C383.668 112.62 381.11 118.273 376.133 120.924C371.69 123.291 366.921 123.625 362.022 122.878C361.751 122.838 361.492 122.682 361.153 122.821C361.65 124.734 362.029 126.655 362.046 128.645C362.089 133.355 360.657 137.611 358.175 141.563C357.987 141.863 357.79 142.157 357.597 142.455C355.96 144.655 354.127 146.658 351.776 148.139C351.449 148.346 351.143 148.639 350.736 148.639C347.949 148.648 345.251 149.312 342.526 149.765C343.237 148.109 343.427 146.275 344.328 144.677C344.836 143.777 345.446 143.285 346.542 143.153C350.471 142.676 353.57 139.216 353.273 135.666C353.035 132.808 350.102 130.463 347.296 130.986C345.675 131.288 344.382 132.121 343.267 133.229C342.415 134.076 341.659 134.34 340.464 133.795C338.523 132.91 336.555 132.078 334.669 131.078C330.893 129.071 327.737 126.366 325.523 122.691C323.586 119.473 322.775 115.957 323.061 112.212C323.126 111.36 322.837 111.275 322.109 111.526C320.148 112.203 318.315 113.105 316.585 114.255C312.385 117.04 309.33 120.76 307.185 125.281C306.297 127.153 305.821 129.143 305.231 131.103V131.099Z" fill="#406FC6"/>
<path d="M277.479 233.845C277.721 233.638 277.971 233.443 278.203 233.225C279.98 231.566 279.382 231.591 281.221 233.283C283.416 235.305 285.529 237.407 288.012 239.089C292.407 242.066 297.22 244.158 302.283 245.711C302.833 245.88 303.319 245.66 303.816 245.428C307.913 243.507 311.848 241.291 315.659 238.863C316.299 238.454 316.635 238.584 317.099 239.055C319.591 241.581 322.383 243.811 324.663 246.55C324.935 246.878 325.299 246.818 325.65 246.818C327.29 246.82 328.932 246.812 330.572 246.824C330.912 246.827 331.293 246.688 331.58 247.007C329.491 247.007 327.401 247.007 325.17 247.007C325.646 247.695 326.061 248.252 326.433 248.838C328.608 252.247 327.566 255.767 323.886 257.467C321.824 258.421 319.602 258.78 317.38 259.025C314.451 259.351 311.752 260.494 308.928 261.185C307.444 261.549 305.95 261.877 304.409 261.892C302.929 261.594 301.45 261.624 299.973 261.89C297.32 261.705 294.807 261.06 292.583 259.557C289.57 257.521 289.237 254.271 291.728 251.623C291.81 251.53 291.893 251.434 291.975 251.34C291.793 251.223 291.668 251.311 291.561 251.457C288.318 252.751 285.329 254.537 282.302 256.246C281.097 256.927 279.879 257.587 278.676 258.27C277.627 258.863 276.548 258.936 275.385 258.629C272.412 257.846 269.633 256.591 266.916 255.192C261.601 252.458 256.471 249.41 251.751 245.737C249.62 244.079 247.871 242.098 247.21 239.365C246.345 235.803 248.201 233.323 251.892 233.196C254.788 233.096 257.522 233.894 260.226 234.8C263.726 235.975 267.182 237.28 270.603 238.665C271.125 238.876 271.459 238.859 271.911 238.469C273.739 236.894 275.619 235.377 277.477 233.841L277.479 233.845Z" fill="#FCFFE7"/>
<path d="M342.528 149.763C345.254 149.31 347.949 148.648 350.738 148.637C351.145 148.637 351.453 148.342 351.779 148.137C354.127 146.658 355.962 144.653 357.6 142.453C361.883 140.982 366.257 139.95 370.783 139.512C376.298 138.978 381.639 139.691 386.882 141.38C390.215 142.455 393.369 143.913 396.368 145.703C398.004 146.679 398.192 147.28 397.254 148.897C394.589 153.496 391.832 158.04 388.959 162.513C388.235 163.641 387.74 163.749 386.584 163.051C382.234 160.419 377.833 157.901 373.048 156.097C366.927 153.787 360.545 152.583 354.127 151.504C353.474 151.395 353.235 151.585 353.235 152.259C353.235 153.145 353.023 154.011 352.787 154.864C349.244 155.686 346.116 157.386 343.183 159.455C340.152 161.591 337.324 164.02 334.006 165.746C331.428 166.867 328.786 167.763 325.943 167.852C322.214 167.97 318.827 166.803 315.616 165.028C315.4 164.909 315.183 164.794 314.965 164.679C313.233 162.826 313.173 161.562 314.734 159.485C314.967 159.174 315.186 158.829 315.487 158.597C316.324 157.95 316.389 157.516 315.427 156.816C314.393 156.062 314.789 154.388 315.988 153.721C316.566 153.4 317.23 153.47 317.817 153.228C320.662 153.783 323.526 153.913 326.401 153.532C331.901 152.802 337.161 151.044 342.533 149.765L342.528 149.763Z" fill="#FFA088"/>
<path d="M342.528 149.763C337.157 151.044 331.897 152.8 326.397 153.53C323.524 153.911 320.657 153.781 317.812 153.226C313.94 151.825 310.683 149.608 308.361 146.162C305.5 141.923 304.621 137.235 305.205 132.223C305.241 131.908 305.273 131.591 305.306 131.276C305.5 131.133 305.396 131.099 305.235 131.082L305.229 131.097C305.819 129.137 306.295 127.145 307.183 125.274C309.328 120.754 312.383 117.036 316.583 114.248C318.313 113.101 320.146 112.199 322.107 111.52C322.833 111.269 323.124 111.354 323.06 112.205C322.773 115.949 323.584 119.467 325.521 122.684C327.735 126.362 330.891 129.065 334.667 131.071C336.553 132.074 338.521 132.906 340.462 133.789C341.659 134.334 342.413 134.07 343.265 133.223C344.38 132.114 345.673 131.282 347.294 130.98C350.1 130.456 353.033 132.802 353.271 135.66C353.566 139.21 350.469 142.67 346.54 143.147C345.446 143.279 344.834 143.772 344.327 144.67C343.425 146.269 343.235 148.103 342.524 149.759L342.528 149.763ZM323.503 128.101C323.528 125.594 322.152 124.655 320.377 125.483C318.557 126.33 317.658 128.537 318.373 130.407C318.825 131.591 319.88 132.065 321.041 131.518C322.678 130.748 323.372 129.346 323.503 128.101ZM313.443 127.409C313.486 126.407 313.317 125.47 312.362 124.93C311.621 124.51 310.84 124.619 310.144 125.089C308.637 126.106 307.954 128.158 308.521 129.88C309.009 131.361 310.441 131.865 311.728 130.959C312.942 130.103 313.526 128.903 313.443 127.409ZM314.839 139.797C317.168 139.778 319.446 138.054 319.972 135.892C320.069 135.498 320.27 135.004 319.808 134.74C319.375 134.494 319.105 134.919 318.827 135.177C318.41 135.56 318.003 135.956 317.581 136.334C316.474 137.324 315.115 137.688 313.685 137.869C313.214 137.928 312.863 138.15 312.796 138.637C312.728 139.141 313.092 139.386 313.484 139.603C313.916 139.842 314.381 139.784 314.841 139.795L314.839 139.797ZM316.352 132.304C316.226 131.642 315.819 131.427 315.194 131.482C314.145 131.574 313.184 132.174 313.242 132.78C313.312 133.519 313.884 133.772 314.522 133.757C315.423 133.738 316.389 132.908 316.352 132.304Z" fill="#FCFFE7"/>
<path d="M284.722 187.512C284.612 186.867 283.983 187.074 283.615 186.855C280.551 185.046 277.503 183.207 274.846 180.83C273.818 179.91 272.983 178.793 272.953 177.272C272.936 176.482 273.311 175.967 273.919 175.629C274.469 175.324 275.004 175.554 275.499 175.92C277.066 177.082 278.511 178.41 280.209 179.398C281.069 179.898 281.943 180.374 282.823 180.841C283.122 180.998 283.559 181.283 283.769 180.902C283.97 180.536 283.488 180.291 283.217 180.113C281.879 179.236 280.519 178.395 279.168 177.538C277.516 176.488 275.938 175.335 274.538 173.969C273.81 173.258 273.354 172.377 273.405 171.311C273.472 169.946 274.422 169.263 275.739 169.672C277.025 170.072 278.014 170.974 279.078 171.734C281.112 173.186 283.221 174.492 285.561 175.399C285.792 175.488 286.032 175.558 286.267 175.639C286.695 175.788 287.034 175.644 287.306 175.312C287.584 174.969 287.453 174.626 287.235 174.335C286.302 173.088 285.315 171.877 284.413 170.606C283.392 169.163 282.257 167.782 281.735 166.041C281.232 164.364 282.497 163.004 284.242 163.33C286.092 163.673 287.485 164.79 288.746 166.031C294.092 171.294 299.799 176.139 305.826 180.604C310.741 184.246 316.26 186.827 321.807 189.34C322.974 189.868 324.164 190.347 325.305 190.924C325.96 191.256 326.239 191.228 326.532 190.47C327.251 188.623 328.103 186.829 328.887 185.005C329.112 184.482 329.336 184.237 330.004 184.45C335.979 186.352 341.88 188.449 347.471 191.307C349.274 192.228 351.081 193.152 352.776 194.276C353.395 194.686 353.496 195.08 353.352 195.772C352.646 199.172 351.655 202.488 350.462 205.749C348.923 205.082 347.9 203.767 346.694 202.701C343.008 199.447 339.137 196.468 334.695 194.29C331.835 192.888 328.808 191.981 325.663 191.513C323.828 191.241 322.068 191.807 320.321 192.296C316.297 193.424 312.893 195.648 309.718 198.27C308.102 199.605 306.517 200.975 305.064 202.486C304.693 202.871 304.383 203.022 303.88 202.707C302.313 201.731 300.791 200.692 299.335 199.556C299.153 199.345 299.065 198.97 298.65 199.16V199.183C298.917 198.7 298.401 198.606 298.209 198.421C295.745 196.07 293.246 193.752 290.776 191.407C289.337 190.043 287.368 189.523 285.843 188.3C285.488 188.015 285.096 187.77 284.722 187.508V187.512Z" fill="#FCFFE7"/>
<path d="M334.003 165.748C337.322 164.022 340.15 161.596 343.181 159.457C346.114 157.388 349.242 155.688 352.785 154.866C355.985 158.291 359.01 161.851 361.639 165.741C364.818 170.442 366.844 175.691 369.046 180.856C371.611 186.874 373.945 192.975 375.398 199.373C375.45 199.594 375.418 199.883 375.687 200.022C375.351 200.684 375.565 201.416 375.411 202.107C374.634 205.621 372.386 207.583 368.914 208.288C364.878 209.105 360.794 209.488 356.7 209.884C354.714 210.077 353.446 209.658 352.421 208.051C351.877 207.202 350.822 206.76 350.456 205.744C354.617 205.342 358.621 204.491 361.83 201.558C364.065 199.515 364.649 196.874 364.339 193.997C363.881 189.756 363.363 185.521 362.442 181.349C361.13 175.403 359.271 169.661 355.581 164.701C354.138 162.76 352.423 161.034 349.927 160.406C346.91 159.644 344.311 160.621 341.954 162.409C339.195 164.503 337.253 167.308 335.41 170.17C334.055 172.277 332.807 174.454 331.385 176.812C332.079 172.926 333.181 169.372 334.003 165.752V165.748Z" fill="#FCFFE7"/>
<path d="M295.023 139.752C292.859 140.54 290.587 140.921 288.359 141.457C277.678 144.028 266.989 146.558 256.302 149.101C256.204 149.125 256.094 149.103 255.73 149.103C258.471 147.924 260.982 146.833 263.504 145.758C271.611 142.3 279.721 138.85 287.744 135.204C288.042 135.07 288.704 135.16 288.451 134.462C289.104 134.521 289.72 134.379 290.322 134.136C291.801 133.542 292.82 133.959 293.475 135.402C294.113 136.809 295.045 138.113 295.028 139.75L295.023 139.752Z" fill="#FCFCFD"/>
<path d="M401.868 230.682C401.763 230.225 402.026 229.869 402.2 229.484C402.638 228.512 402.932 227.505 402.906 226.422C402.838 223.464 401.369 222.238 398.453 221.944C395.912 221.689 393.574 222.627 391.264 223.553C390.915 223.693 390.622 224.032 390.183 223.879C392.881 222.344 395.728 221.372 398.892 221.684C402.135 222.004 403.919 224.766 403.039 228.114C402.799 229.027 402.489 229.929 401.87 230.682H401.868Z" fill="#14284D"/>
<path d="M395.013 238.561C395.884 237.435 396.837 236.388 398.016 235.569C397.149 236.699 396.13 237.678 395.013 238.561Z" fill="#14284D"/>
<path d="M299.975 261.89C301.454 261.626 302.933 261.596 304.411 261.892C302.931 262.041 301.452 262.03 299.975 261.89Z" fill="#15284D"/>
<path d="M392.182 241.297C391.985 241.261 391.793 241.119 391.966 240.965C392.521 240.474 392.889 239.727 393.741 239.623C393.377 240.184 392.581 240.355 392.407 241.087C392.407 241.087 392.422 241.061 392.424 241.061C392.193 240.963 392.245 241.146 392.225 241.259L392.187 241.297H392.182Z" fill="#14284D"/>
<path d="M400.581 232.595C400.876 231.861 401.069 231.061 401.878 230.669C401.57 231.395 401.125 232.027 400.581 232.595Z" fill="#14284D"/>
<path d="M408.32 244.213C407.68 243.76 407.202 243.162 406.789 242.508C407.498 242.9 407.99 243.485 408.32 244.213Z" fill="#14284D"/>
<path d="M398.425 235.154C398.62 234.447 399.035 233.932 399.727 233.651C399.359 234.209 398.958 234.736 398.425 235.154Z" fill="#14284D"/>
<path d="M390.097 223.942C389.873 224.385 389.714 224.934 389.012 224.619C389.541 224.657 389.676 224.072 390.097 223.942Z" fill="#14284D"/>
<path d="M399.72 233.655C399.729 233.072 400.125 232.8 400.59 232.583C400.382 233.006 400.099 233.368 399.72 233.655Z" fill="#14284D"/>
<path d="M393.732 239.629C393.854 239.31 393.97 238.98 394.43 239.11C394.197 239.282 393.966 239.457 393.732 239.629Z" fill="#14284D"/>
<path d="M394.743 238.823C394.647 238.539 394.848 238.559 395.021 238.552C394.929 238.642 394.835 238.731 394.743 238.823Z" fill="#14284D"/>
<path d="M305.237 131.084C305.395 131.099 305.503 131.135 305.308 131.278C305.265 131.22 305.241 131.157 305.237 131.084Z" fill="#14284D"/>
<path d="M288.18 133.982C288.112 133.965 288.083 133.923 288.091 133.855C288.119 133.897 288.149 133.94 288.18 133.982Z" fill="#FCFCFD"/>
<path d="M394.531 238.995C394.514 238.973 394.495 238.95 394.478 238.929C394.518 238.929 394.558 238.929 394.597 238.933L394.531 238.997V238.995Z" fill="#14284D"/>
<path d="M390.277 203.818C391.29 203.129 392.289 202.425 393.315 201.754C397.485 199.032 401.799 196.564 406.32 194.455C407.158 194.065 407.954 193.588 408.772 193.161C409.136 192.971 409.545 192.835 409.831 193.233C410.142 193.663 409.921 194.059 409.555 194.34C409.249 194.576 408.909 194.778 408.56 194.946C403.4 197.445 398.41 200.23 393.574 203.312C389.678 205.793 386.516 208.835 384.448 213.01C383.035 215.864 381.365 218.594 379.845 221.397C379.412 222.193 379.1 223.053 378.699 223.953C378.072 221.667 378.184 221.486 379.228 219.535C381.607 215.098 384.141 210.752 386.676 206.404C387.383 205.193 387.273 203.731 387.475 202.38C388.151 197.813 388.838 193.244 389.346 188.657C389.613 186.242 389.939 183.814 389.845 181.366C389.828 180.926 389.725 180.355 390.369 180.253C391.106 180.134 391.191 180.764 391.193 181.226C391.2 182.667 391.193 184.116 391.056 185.55C390.767 188.568 390.416 191.582 390.048 194.591C389.755 196.991 389.397 199.385 389.029 202.054C390.144 200.875 390.647 199.628 391.328 198.504C395.788 191.135 400.333 183.822 405.197 176.708C408.896 171.294 412.869 166.088 417.106 161.076C417.586 160.508 418.009 159.893 418.44 159.289C418.774 158.821 419.118 158.182 419.765 158.667C420.351 159.106 419.979 159.697 419.621 160.163C418.566 161.54 417.547 162.949 416.427 164.273C411.039 170.651 406.32 177.506 401.801 184.503C397.749 190.781 393.702 197.064 390.277 203.821V203.818Z" fill="#273F73"/>
<path d="M320.713 236.047C326.292 232.268 331.212 227.835 335.787 223.008C336.071 222.708 336.32 222.355 336.821 222.34C337.332 222.325 337.731 222.489 337.998 222.91C338.279 223.355 337.921 223.627 337.673 223.917C333.224 229.095 328.007 233.383 322.293 237.107C321.876 237.38 321.702 237.284 321.462 236.958C321.253 236.673 321.013 236.411 320.711 236.047H320.713Z" fill="#F6F7F8"/>
<path d="M298.65 199.164C299.065 198.975 299.153 199.349 299.335 199.56C299.003 199.605 298.795 199.437 298.65 199.164Z" fill="#F6F7F8"/>
<path d="M291.563 251.459C291.671 251.313 291.793 251.225 291.977 251.342C291.895 251.436 291.812 251.532 291.73 251.625C291.675 251.57 291.619 251.515 291.566 251.459H291.563Z" fill="#F6F7F8"/>
<path d="M323.503 128.101C323.372 129.343 322.678 130.748 321.041 131.518C319.88 132.063 318.825 131.591 318.373 130.407C317.658 128.539 318.557 126.33 320.377 125.483C322.152 124.657 323.528 125.594 323.503 128.101Z" fill="#14284D"/>
<path d="M313.443 127.409C313.524 128.905 312.942 130.103 311.728 130.959C310.441 131.865 309.009 131.361 308.521 129.88C307.954 128.158 308.637 126.106 310.144 125.089C310.84 124.619 311.621 124.512 312.362 124.93C313.317 125.468 313.486 126.407 313.443 127.407V127.409Z" fill="#15284D"/>
<path d="M314.839 139.797C314.378 139.786 313.914 139.842 313.481 139.603C313.09 139.388 312.728 139.144 312.794 138.637C312.861 138.15 313.212 137.928 313.683 137.869C315.113 137.688 316.472 137.324 317.579 136.334C318.001 135.958 318.408 135.562 318.825 135.177C319.105 134.919 319.373 134.493 319.806 134.74C320.27 135.004 320.067 135.498 319.97 135.892C319.446 138.054 317.166 139.776 314.837 139.797H314.839Z" fill="#14284D"/>
<path d="M316.352 132.304C316.391 132.908 315.425 133.738 314.522 133.757C313.884 133.77 313.312 133.519 313.241 132.78C313.184 132.174 314.143 131.576 315.194 131.482C315.819 131.427 316.226 131.644 316.352 132.304Z" fill="#15284D"/>
<path d="M392.221 241.259C392.24 241.146 392.189 240.963 392.42 241.061C392.514 241.287 392.326 241.234 392.221 241.259Z" fill="#F6F7F8"/>
<g opacity="0.6">
<path d="M273.684 60.2298C273.437 60.5267 273.321 60.7456 273.132 60.8772C272.344 61.4292 271.935 62.1593 271.806 63.0419C271.782 63.2119 271.734 63.3866 271.651 63.5391C271.424 63.9606 270.963 64.0852 270.612 63.7534C269.76 62.9453 268.793 62.405 267.546 62.2536C266.961 62.1826 266.808 61.5968 267.275 61.2487C268.2 60.5605 268.565 59.6616 268.711 58.6264C268.743 58.4005 268.959 58.1082 269.174 58.0209C269.35 57.9498 269.729 58.0709 269.886 58.2212C270.719 59.0211 271.686 59.5381 272.9 59.7011C273.165 59.7372 273.391 60.0225 273.686 60.2286L273.684 60.2298Z" fill="#8187AB"/>
<path d="M275.539 69.1888C275.735 68.3157 275.912 67.5394 276.082 66.7606C276.614 64.3146 277.144 61.8686 277.677 59.4239C277.713 59.2582 277.764 59.095 277.82 58.9344C278.159 57.9644 278.548 57.7758 279.474 58.2474C280.654 58.8503 281.841 59.4583 282.952 60.1708C284.173 60.9547 284.853 62.1031 284.823 63.5588C284.804 64.4255 284.71 65.291 284.679 66.159C284.668 66.4471 284.726 66.7428 284.794 67.0257C284.953 67.7026 284.555 68.1806 283.869 67.9766C283.401 67.8377 282.94 67.519 282.595 67.1698C281.746 66.3132 280.988 65.3726 280.143 64.5135C279.898 64.2636 279.479 64.1744 279.141 64.0113C279.001 64.3261 278.795 64.6294 278.731 64.9596C278.184 67.7268 277.707 70.508 277.119 73.2663C276.685 75.2981 274.621 76.7053 272.48 76.5612C270.369 76.4198 268.719 74.8966 268.509 72.8011C268.356 71.2703 268.971 70.016 270.271 69.1149C271.616 68.1818 273.064 68.0722 274.574 68.7095C274.852 68.8268 275.116 68.9759 275.541 69.1875L275.539 69.1888Z" fill="#8187AB"/>
<path d="M291.033 63.2C292.438 63.1949 293.019 63.7619 292.999 65.1195C292.962 67.6644 291.256 69.3958 288.645 69.5076C288.125 69.5292 287.896 69.842 287.66 70.2106C285.707 73.2602 283.354 75.9818 280.628 78.3933C280.231 78.7441 279.79 79.0619 279.329 79.3289C278.857 79.6022 278.326 79.6416 277.869 79.2818C277.37 78.8878 277.317 78.3335 277.489 77.7755C277.588 77.4577 277.761 77.15 277.956 76.8755C279.962 74.0356 282.347 71.5428 285.11 69.3945C285.564 69.0424 285.996 68.6509 286.373 68.2237C286.55 68.0229 286.653 67.6924 286.653 67.4203C286.653 65.0013 288.415 63.2381 290.903 63.2013C290.946 63.2013 290.99 63.2013 291.033 63.2013V63.2Z" fill="#8187AB"/>
<path d="M289.283 79.5405C289.147 79.3513 289.009 79.2351 288.971 79.0949C288.725 78.1902 288.208 77.4917 287.332 77.0017C286.905 76.7624 286.988 76.3442 287.492 76.2212C288.466 75.9819 289.118 75.4144 289.617 74.6362C289.706 74.496 289.933 74.3239 290.064 74.3444C290.208 74.3672 290.39 74.5803 290.425 74.7364C290.637 75.6537 291.15 76.3511 291.987 76.8821C292.384 77.1328 292.333 77.4962 291.902 77.6056C290.976 77.8415 290.348 78.3816 289.84 79.1006C289.727 79.259 289.52 79.3582 289.283 79.5428V79.5405Z" fill="#8187AB"/>
</g>
<path opacity="0.6" d="M386.373 80.3555L387.423 80.0742L385.705 73.6642L387.556 73.1681L389.28 79.5998C389.59 79.5168 389.845 79.4571 390.096 79.3788C390.518 79.2471 390.804 79.3871 390.935 79.7975C391.118 80.3729 391.282 80.9548 391.451 81.5352C391.504 81.7197 391.55 81.9054 391.611 82.1344C392.075 82.0102 392.485 81.8815 392.903 81.7926C393.496 81.667 394.018 81.9801 394.157 82.5124C394.298 83.055 393.987 83.5505 393.383 83.7124C387.652 85.2481 381.92 86.7839 376.188 88.3155C375.548 88.4868 375.091 88.2522 374.917 87.6874C374.74 87.1093 375.012 86.6196 375.642 86.4055C375.863 86.3298 376.091 86.2797 376.315 86.2185C376.519 86.1639 376.722 86.1096 376.976 86.0414C376.804 85.3978 376.638 84.8023 376.485 84.2032C376.233 83.2084 376.297 83.1038 377.285 82.8105C377.384 82.7807 377.479 82.7408 377.61 82.6935L375.896 76.2969L377.724 75.807L379.435 82.1902L380.532 81.8961C380.493 81.7486 380.449 81.5846 380.405 81.4217C380.106 80.3047 379.851 79.1737 379.497 78.0745C379.051 76.682 379.825 75.61 380.749 75.0927C381.439 74.7067 382.183 74.5384 382.972 74.6187C384.187 74.742 384.967 75.3952 385.297 76.5769C385.641 77.8102 385.968 79.0479 386.303 80.2824C386.307 80.2968 386.325 80.3074 386.37 80.3563L386.373 80.3555ZM384.496 80.8527C384.151 79.5646 383.817 78.3322 383.492 77.097C383.378 76.6622 383.097 76.3715 382.663 76.4206C382.168 76.4756 381.594 76.4879 381.356 77.0834C381.318 77.1777 381.295 77.2999 381.319 77.394C381.669 78.7285 382.028 80.0595 382.392 81.4178L384.496 80.8541L384.496 80.8527Z" fill="#666C91"/>
<path opacity="0.6" d="M381.117 73.6352C379.155 74.1609 377.205 74.7364 375.226 75.186C374.52 75.3465 373.74 75.2467 373.003 75.1764C372.717 75.1492 372.406 74.9237 372.192 74.7045C371.745 74.2459 371.808 73.6547 372.377 73.365C374.646 72.2108 376.342 70.3832 378.138 68.6663C378.377 68.4388 378.465 68.2382 378.347 67.9268C378.247 67.6616 378.181 67.3814 378.126 67.1021C377.994 66.4472 378.353 65.8952 379.007 65.7243C379.649 65.5567 380.359 65.8599 380.431 66.5022C380.553 67.5824 381.196 67.8648 382.141 68.0497C384.262 68.4657 386.341 69.0925 388.549 68.9955C389.424 68.9568 389.789 69.7572 389.276 70.5341C388.74 71.346 387.921 71.802 387.001 72.0552C385.044 72.5962 383.079 73.1105 381.117 73.6362L381.117 73.6342L381.117 73.6352Z" fill="#666C91"/>
<path opacity="0.7" d="M331.376 48.6005C328.157 48.5449 325.069 47.98 322.213 46.5166C321.963 46.3892 321.711 46.2644 321.452 46.1532C320.604 45.7898 319.855 46.0839 319.583 46.9195C319.081 48.472 318.494 50.0108 318.162 51.5954C317.943 52.6374 317.958 53.7733 318.136 54.8277C318.511 57.0538 319.387 59.0858 321.217 60.6815C322.725 61.9967 324.414 62.3205 326.317 61.6864C330.345 60.3453 332.613 57.61 333.362 53.714C333.592 52.5212 333.758 51.3186 333.968 50.1233C334.134 49.1864 333.643 48.6153 332.626 48.6005C332.21 48.5943 331.792 48.6005 331.376 48.6005ZM327.311 58.914C327.202 59.066 327.06 59.3713 326.816 59.558C326.691 59.6531 326.294 59.6198 326.17 59.5036C325.082 58.4727 323.745 58.4047 322.337 58.5605C321.785 58.621 321.336 58.1699 321.607 57.7249C321.882 57.275 322.305 56.7917 322.789 56.5878C323.836 56.149 324.936 56.2577 325.937 56.8201C326.708 57.2528 327.202 57.8831 327.311 58.914ZM327.982 53.0206C329.054 53.0218 330.05 53.7325 329.97 54.4915C329.945 54.7312 329.743 55.0501 329.527 55.1465C329.365 55.2182 328.959 55.0576 328.822 54.8882C328.397 54.3604 327.924 54.3567 327.321 54.557C327.091 54.6336 326.662 54.5965 326.547 54.4531C326.409 54.2813 326.408 53.8907 326.525 53.6831C326.82 53.1639 327.38 53.0218 327.981 53.0218L327.982 53.0206ZM324.518 53.3444C324.384 53.5175 324.264 53.8265 324.06 53.8883C323.857 53.9501 323.49 53.8314 323.334 53.672C322.924 53.2492 322.449 53.1986 321.972 53.4186C321.585 53.5978 321.266 53.688 321.001 53.3246C320.699 52.913 320.954 52.5719 321.271 52.2987C322.081 51.6004 323.799 51.8834 324.323 52.7931C324.404 52.9328 324.433 53.0984 324.518 53.3444Z" fill="#5D6489"/>
<path opacity="0.7" d="M325 63.3363C322.257 63.4942 320.496 62.0829 319.09 60.1631C317.974 58.6373 317.336 56.903 317.019 55C314.889 56.2281 312.527 56.5053 310.178 56.8343C309.193 56.9729 308.832 57.4767 309.071 58.389C309.594 60.3896 310.084 62.3999 311.226 64.1968C312.898 66.8278 315.346 68.3945 318.486 68.9248C320.215 69.2165 321.724 68.6524 322.886 67.3581C323.928 66.195 324.617 64.8609 325 63.3363ZM318.825 66.0793C318.065 66.0034 317.311 65.7829 316.811 65.1092C316.449 64.6199 316.567 64.3113 317.166 64.1305C318.224 63.8112 319.286 63.5038 320.348 63.1965C320.932 63.0278 321.218 63.2291 321.239 63.8124C321.28 65.0031 320.143 66.0974 318.825 66.0781V66.0793ZM315.255 60.3655C315.89 60.327 316.577 60.9488 316.639 61.6189C316.69 62.1649 316.303 62.6686 315.795 62.7169C315.211 62.7711 314.51 62.0468 314.462 61.3381C314.424 60.7898 314.745 60.3969 315.255 60.3655Z" fill="#5D6489"/>
<circle opacity="0.2" cx="1" cy="1" r="1" transform="matrix(1 0 0 -1 189 214)" fill="white"/>
<circle opacity="0.2" cx="5.5" cy="5.5" r="5.5" transform="matrix(1 0 0 -1 186 221)" fill="url(#paint2_linear_163_83)"/>
<circle opacity="0.2" cx="0.5" cy="0.5" r="0.5" transform="matrix(1 0 0 -1 188 216)" fill="white"/>
<circle opacity="0.2" cx="1" cy="1" r="1" transform="matrix(1 0 0 -1 169 205)" fill="white"/>
<circle opacity="0.2" cx="5.5" cy="5.5" r="5.5" transform="matrix(1 0 0 -1 166 212)" fill="url(#paint3_linear_163_83)"/>
<circle opacity="0.2" cx="0.5" cy="0.5" r="0.5" transform="matrix(1 0 0 -1 168 207)" fill="white"/>
<circle opacity="0.2" cx="10.5" cy="10.5" r="10.5" transform="matrix(1 0 0 -1 219 216)" fill="url(#paint4_linear_163_83)"/>
<circle opacity="0.2" cx="2" cy="2" r="2" transform="matrix(1 0 0 -1 224 203)" fill="white"/>
<circle opacity="0.2" cx="1.5" cy="1.5" r="1.5" transform="matrix(1 0 0 -1 221 205)" fill="white"/>
<circle opacity="0.2" cx="10.5" cy="10.5" r="10.5" transform="matrix(1 0 0 -1 380 132)" fill="url(#paint5_linear_163_83)"/>
<circle opacity="0.2" cx="2" cy="2" r="2" transform="matrix(1 0 0 -1 385 119)" fill="white"/>
<circle opacity="0.2" cx="1.5" cy="1.5" r="1.5" transform="matrix(1 0 0 -1 382 121)" fill="white"/>
<defs>
<linearGradient id="paint0_linear_163_83" x1="432.5" y1="24" x2="282.621" y2="532.423" gradientUnits="userSpaceOnUse">
<stop stop-color="#282F56"/>
<stop offset="1" stop-color="#4BB5D2"/>
</linearGradient>
<linearGradient id="paint1_linear_163_83" x1="435" y1="136.5" x2="270.5" y2="237.5" gradientUnits="userSpaceOnUse">
<stop offset="0.347318" stop-color="#60C795"/>
<stop offset="1" stop-color="#77BBC5"/>
</linearGradient>
<linearGradient id="paint2_linear_163_83" x1="5.5" y1="0" x2="5.5" y2="11" gradientUnits="userSpaceOnUse">
<stop stop-color="#69E1A7"/>
<stop offset="1" stop-color="#75DAFF"/>
</linearGradient>
<linearGradient id="paint3_linear_163_83" x1="5.5" y1="0" x2="5.5" y2="11" gradientUnits="userSpaceOnUse">
<stop stop-color="#69E1A7"/>
<stop offset="1" stop-color="#75DAFF"/>
</linearGradient>
<linearGradient id="paint4_linear_163_83" x1="10.5" y1="0" x2="10.5" y2="21" gradientUnits="userSpaceOnUse">
<stop stop-color="#69E1A7"/>
<stop offset="1" stop-color="#75DAFF"/>
</linearGradient>
<linearGradient id="paint5_linear_163_83" x1="10.5" y1="0" x2="10.5" y2="21" gradientUnits="userSpaceOnUse">
<stop stop-color="#69E1A7"/>
<stop offset="1" stop-color="#75DAFF"/>
</linearGradient>
</defs>
</svg>
