<svg width="38" height="38" viewBox="0 0 38 38" fill="none" xmlns="http://www.w3.org/2000/svg">
<g opacity="0.37">
<path d="M19.0002 6.5415C19.499 6.54157 19.9185 6.68397 20.2942 6.97021L20.3 6.9751L29.8 14.1001L29.8088 14.106C30.0738 14.3003 30.2814 14.546 30.4368 14.856C30.5916 15.165 30.667 15.4866 30.6663 15.8315V30.0835C30.6662 30.6866 30.4633 31.179 30.0286 31.6138C29.5939 32.0484 29.1025 32.2502 28.5012 32.2495H23.7502C23.5543 32.2495 23.4372 32.1945 23.3313 32.0884C23.2503 32.0071 23.198 31.9196 23.177 31.7983L23.1663 31.6646V23.7495C23.1662 23.0487 22.9177 22.4143 22.4163 21.9146C21.9167 21.4167 21.284 21.1682 20.5852 21.1665H17.4163C16.7155 21.1666 16.081 21.4152 15.5813 21.9165C15.0835 22.4161 14.8349 23.0488 14.8333 23.7476V31.6665C14.8333 31.8628 14.7777 31.9808 14.6702 32.0884C14.5627 32.1958 14.4459 32.25 14.2522 32.2495H9.50024C8.89649 32.2495 8.40433 32.0471 7.97095 31.6138C7.59178 31.2346 7.38853 30.8099 7.34302 30.3042L7.33325 30.0815V15.8335C7.33325 15.4878 7.40951 15.1656 7.5647 14.856C7.72043 14.5453 7.92848 14.3002 8.19263 14.106L8.19946 14.1001L17.6995 6.9751L17.7063 6.97021C18.082 6.68403 18.5015 6.5415 19.0002 6.5415Z" fill="white" stroke="#2F3F78" stroke-width="2"/>
</g>
</svg>
