<svg width="38" height="38" viewBox="0 0 38 38" fill="none" xmlns="http://www.w3.org/2000/svg">
<path d="M19.0002 6.54175C19.499 6.54181 19.9185 6.68421 20.2942 6.97046L20.3 6.97534L29.8 14.1003L29.8088 14.1062C30.0738 14.3005 30.2814 14.5462 30.4368 14.8562C30.5916 15.1652 30.667 15.4868 30.6663 15.8318V30.0837C30.6662 30.6868 30.4633 31.1793 30.0286 31.614C29.5939 32.0486 29.1025 32.2505 28.5012 32.2498H23.7502C23.5543 32.2498 23.4372 32.1948 23.3313 32.0886C23.2503 32.0074 23.198 31.9198 23.177 31.7986L23.1663 31.6648V23.7498C23.1662 23.0489 22.9177 22.4145 22.4163 21.9148C21.9167 21.4169 21.284 21.1684 20.5852 21.1667H17.4163C16.7155 21.1668 16.081 21.4154 15.5813 21.9167C15.0835 22.4163 14.8349 23.049 14.8333 23.7478V31.6667C14.8333 31.863 14.7777 31.9811 14.6702 32.0886C14.5627 32.1961 14.4459 32.2502 14.2522 32.2498H9.50024C8.89649 32.2498 8.40433 32.0474 7.97095 31.614C7.59178 31.2348 7.38853 30.8102 7.34302 30.3044L7.33325 30.0818V15.8337C7.33325 15.488 7.40951 15.1659 7.5647 14.8562C7.72043 14.5456 7.92848 14.3004 8.19263 14.1062L8.19946 14.1003L17.6995 6.97534L17.7063 6.97046C18.082 6.68427 18.5015 6.54175 19.0002 6.54175Z" fill="#60C795" stroke="#2F3F78" stroke-width="2"/>
</svg>
