<svg width="28" height="25" viewBox="0 0 28 25" fill="none" xmlns="http://www.w3.org/2000/svg">
<path opacity="0.37" d="M24.8398 13.3299L14.012 24L3.18431 13.3299C2.47012 12.6384 1.90756 11.8072 1.53207 10.8888C1.15657 9.97031 0.976263 8.98445 1.0025 7.99325C1.02874 7.00206 1.26096 6.02701 1.68453 5.1295C2.10811 4.23199 2.71386 3.43147 3.46364 2.77834C4.21343 2.12521 5.091 1.63362 6.04111 1.33454C6.99122 1.03545 7.99327 0.935346 8.98417 1.04052C9.97507 1.1457 10.9333 1.45388 11.7987 1.94565C12.664 2.43743 13.4176 3.10215 14.012 3.89796C14.609 3.10793 15.3635 2.44901 16.2282 1.96246C17.093 1.4759 18.0493 1.17217 19.0374 1.07028C20.0256 0.968394 21.0242 1.07054 21.9708 1.37032C22.9174 1.67011 23.7917 2.16108 24.5388 2.8125C25.286 3.46393 25.8899 4.26179 26.3129 5.15616C26.7359 6.05052 26.9688 7.02212 26.9971 8.01017C27.0253 8.99821 26.8483 9.98142 26.4771 10.8983C26.1059 11.8151 25.5485 12.6458 24.8398 13.3385" stroke="#282F56" stroke-width="2" stroke-linecap="round" stroke-linejoin="round"/>
</svg>
