<svg width="23" height="23" viewBox="0 0 23 23" fill="none" xmlns="http://www.w3.org/2000/svg">
<path opacity="0.3" d="M5.75 19.1666H17.25V9.58325H5.75V19.1666ZM11.5 12.4583C12.5542 12.4583 13.4167 13.3208 13.4167 14.3749C13.4167 15.4291 12.5542 16.2916 11.5 16.2916C10.4458 16.2916 9.58333 15.4291 9.58333 14.3749C9.58333 13.3208 10.4458 12.4583 11.5 12.4583Z" fill="#CACACA"/>
<path d="M17.2499 7.66658H16.2916V5.74992C16.2916 3.10492 14.1449 0.958252 11.4999 0.958252C8.85492 0.958252 6.70825 3.10492 6.70825 5.74992V7.66658H5.74992C4.69575 7.66658 3.83325 8.52909 3.83325 9.58325V19.1666C3.83325 20.2208 4.69575 21.0833 5.74992 21.0833H17.2499C18.3041 21.0833 19.1666 20.2208 19.1666 19.1666V9.58325C19.1666 8.52909 18.3041 7.66658 17.2499 7.66658ZM8.62492 5.74992C8.62492 4.15909 9.90909 2.87492 11.4999 2.87492C13.0908 2.87492 14.3749 4.15909 14.3749 5.74992V7.66658H8.62492V5.74992ZM17.2499 19.1666H5.74992V9.58325H17.2499V19.1666ZM11.4999 16.2916C12.5541 16.2916 13.4166 15.4291 13.4166 14.3749C13.4166 13.3208 12.5541 12.4583 11.4999 12.4583C10.4458 12.4583 9.58325 13.3208 9.58325 14.3749C9.58325 15.4291 10.4458 16.2916 11.4999 16.2916Z" fill="#CACACA"/>
</svg>
