<svg width="247" height="117" viewBox="0 0 247 117" fill="none" xmlns="http://www.w3.org/2000/svg">
<path d="M240.656 74.0766V83.5237H117V74.2076H140.88V64.5443H124.028V30.9999H172.727V64.4682H156.122V74.0736H240.656V74.0766ZM135.865 54.8962C144.118 53.3273 152.289 51.7797 160.453 50.2169C162.155 49.8909 162.25 49.6655 161.654 47.8346C161.208 47.8864 160.75 47.9138 160.304 47.9991C152.674 49.4492 145.05 50.9511 137.407 52.3311C135.822 52.6175 135.275 53.2268 135.865 54.8962ZM161.703 39.1035C161.278 39.1614 160.835 39.204 160.405 39.2863C152.719 40.7455 145.034 42.2169 137.346 43.6731C135.455 44.0296 135.361 44.1545 135.947 46.1042C136.332 46.0524 136.729 46.0159 137.12 45.9397C144.851 44.4713 152.582 42.9938 160.316 41.5284C162.103 41.1903 162.158 41.1172 161.703 39.1065V39.1035Z" fill="#313A6D"/>
<path d="M0 96.6798V86.1208H20.5874V77.0546H3.68985V43.5285H52.5315V76.9754H35.9669V86.0538H56.5176V96.6798H0ZM41.6605 51.495C32.7321 53.1766 24.0207 54.8156 15.3123 56.4576V58.6876C24.1642 57.0182 32.9124 55.367 41.6605 53.7158V51.495ZM15.297 67.4157C23.6328 65.8376 31.8891 64.287 40.1393 62.7089C41.9843 62.3555 41.9904 62.2946 41.5169 60.2413C32.7719 61.8894 24.0237 63.5406 15.297 65.1857V67.4157Z" fill="#60C795"/>
<path d="M222.524 71.6578H187.437V51.6031H207.872C208.269 49.3182 208.235 49.2725 206.143 49.2725C200.492 49.2725 194.844 49.2725 189.193 49.2725H187.318C187.318 46.2596 187.3 43.3868 187.351 40.514C187.354 40.2672 187.794 39.9352 188.1 39.8133C188.408 39.6915 188.802 39.7768 189.157 39.7768C199.185 39.7768 209.21 39.7768 219.237 39.7768H221.101V59.7706H200.556V62.4971H222.518V71.6578H222.524Z" fill="#313A6D"/>
<path d="M86.4125 72.9084V70.5931H65.8678V61.1217H99.5163C99.5499 61.6274 99.611 62.1118 99.611 62.5992C99.6171 68.2351 99.5835 73.8741 99.6416 79.51C99.6538 80.7591 99.3056 81.1703 98.0196 81.1551C92.3199 81.0911 86.6171 81.1277 80.9174 81.1277C80.3126 81.1277 79.7078 81.1277 78.9747 81.1277V83.638H100.964V92.7468H65.8403V72.9053H86.4125V72.9084Z" fill="#313A6D"/>
<path d="M67.9967 95.2815H118.723V116.165H105.61V105.079H67.9937V95.2815H67.9967Z" fill="#313A6D"/>
<path d="M240.405 50.3539H246.964V61.0378H240.427V71.5846H227.173V39.4995H240.405V50.357V50.3539Z" fill="#313A6D"/>
<rect x="227" y="73.9999" width="14" height="21" fill="#313A6D"/>
<rect x="105" y="60.9999" width="14" height="33" fill="#313A6D"/>
<rect x="12" y="50" width="37" height="24" fill="#60C795"/>
<rect x="129" y="36" width="37" height="24" fill="#313A6D"/>
<line x1="14" y1="53.35" x2="42" y2="53.35" stroke="white" stroke-width="1.3"/>
<line x1="14" y1="60.35" x2="42" y2="60.35" stroke="white" stroke-width="1.3"/>
<line x1="14" y1="67.35" x2="42" y2="67.35" stroke="white" stroke-width="1.3"/>
<g clip-path="url(#clip0_1027_133)">
<path d="M91.6599 55.2756C91.1454 55.0285 90.9296 54.6654 90.6969 54.3314C86.3315 48.0421 86.668 39.4337 92.5627 33.789C94.2393 32.1836 96.0785 30.7755 97.8294 29.2598C99.1626 28.1044 100.396 26.8661 101.366 25.3835C103.176 22.6185 103.155 19.801 101.701 16.9187C101.641 16.7986 101.574 16.6799 101.513 16.5598C101.505 16.5418 101.515 16.5156 101.522 16.4203C102.921 16.7586 104.073 17.4916 105.084 18.4372C109.381 22.4556 109.477 28.8705 105.362 33.0726C103.552 34.921 101.387 36.3111 99.3252 37.8379C97.0164 39.5455 94.9543 41.4767 93.5748 44.0319C92.5459 45.9369 92.0454 47.9786 91.7917 50.1045C91.5898 51.7955 91.6711 53.4893 91.6599 55.277V55.2756Z" fill="#313A6D"/>
<path d="M111.385 37.929C113.212 37.9538 114.952 38.2216 116.293 39.6255C116.602 39.9486 116.838 40.3116 116.986 40.7216C117.37 41.7984 116.623 42.8434 115.46 42.8903C114.778 42.9179 114.123 42.7605 113.463 42.6321C108.489 41.6645 104.386 43.4438 100.741 46.5871C99.3715 47.7688 98.2051 49.1395 97.329 50.7312C97.2295 50.912 97.1467 51.2571 96.879 51.1784C96.5664 51.086 96.7094 50.7312 96.7332 50.5158C96.865 49.3728 97.2365 48.285 97.7552 47.2663C100.012 42.8282 103.381 39.6476 108.355 38.3224C108.712 38.2272 109.072 38.1361 109.438 38.0781C110.082 37.9773 110.726 37.8696 111.387 37.9262L111.385 37.929Z" fill="#313A6D"/>
<path d="M83.8011 43.39C83.3946 43.1112 83.2446 42.7992 83.0512 42.5286C80.8489 39.4516 78.0466 37.2015 74.2363 36.358C73.3336 36.1579 72.4139 36.0254 71.5027 35.8625C70.8327 35.7424 70.1794 35.516 70.028 34.7968C69.8752 34.0651 70.3546 33.5337 70.9238 33.1347C72.5822 31.971 74.4088 32.011 76.262 32.5108C80.1549 33.5613 83.1465 37.0276 83.6974 41.006C83.8011 41.7597 83.818 42.4996 83.8011 43.3886V43.39Z" fill="#313A6D"/>
<path d="M85.4623 53.9324C84.9156 53.6439 84.5974 53.2159 84.2315 52.8487C82.3474 50.9562 80.1353 49.6627 77.469 49.1643C76.0265 48.8938 74.598 49.0318 73.1723 49.272C72.934 49.312 72.7097 49.3024 72.4812 49.2568C71.6723 49.0967 71.3219 48.4272 71.727 47.7259C72.2948 46.7444 73.3167 46.4808 74.3316 46.3759C79.1442 45.8789 83.6371 48.7626 85.2114 52.7604C85.353 53.1193 85.4371 53.4796 85.4623 53.9338V53.9324Z" fill="#313A6D"/>
<path d="M91.7505 10.6943C91.7505 9.32471 91.7466 7.95514 91.7524 6.58556C91.7553 5.92086 92.1608 5.42162 92.8313 5.3451C94.2878 5.17965 95.7433 5.02567 97.1757 4.68901C98.3403 4.41548 99.4625 4.03865 100.547 3.54132C101.486 3.10998 102.002 3.4103 101.948 4.42026C101.893 5.45987 101.984 6.52627 101.616 7.52858C100.959 9.31897 99.5078 10.1539 97.7575 10.5967C96.616 10.8856 95.4495 10.9305 94.2801 10.8779C93.9371 10.8626 93.8543 10.964 93.8591 11.2978C93.8909 13.4956 93.8504 15.6925 93.7647 17.8884C93.6973 19.6156 92.8072 20.8657 91.3603 21.758C89.4347 22.9449 86.8377 22.8894 85.0865 21.6308C83.1445 20.2354 82.894 17.4513 84.5528 15.6972C86.1923 13.9642 88.7575 13.5826 90.9644 14.7466C91.1609 14.8508 91.3546 14.9637 91.5395 15.0871C91.7958 15.2573 91.8593 15.1731 91.8535 14.8977C91.8256 13.6085 91.8092 12.3183 91.788 11.029C91.7861 10.9181 91.7755 10.8062 91.7688 10.6952C91.763 10.6952 91.7572 10.6952 91.7514 10.6952L91.7505 10.6943Z" fill="#313A6D"/>
</g>
<path d="M73.4724 17.3957C73.3764 19.4015 73.0137 21.7185 71.7105 23.8187C70.3372 26.0309 68.3253 27.3229 65.6885 27.4881C64.6612 27.5515 63.5851 27.227 62.5776 26.8347C61.0854 26.2536 59.7746 25.3864 58.6666 24.3098C57.0982 22.7863 55.9413 20.9545 55.0451 18.9767C54.1809 17.0668 53.5575 15.0757 53.1231 13.0478C52.7863 11.4771 53.0347 10.3252 55.2174 10.281C58.3023 10.219 61.2318 9.53468 64.0652 8.36512C65.3608 7.83122 66.5618 7.15574 67.769 6.46846C69.1925 5.65876 70.4576 5.84902 71.1389 7.43006C72.4619 10.5022 73.442 13.6466 73.4724 17.3927V17.3957ZM63.2513 21.1964C63.1248 21.1964 62.9968 21.186 62.8718 21.1978C62.5166 21.2332 62.0487 21.0312 61.8719 21.4928C61.718 21.8984 62.0533 22.1845 62.3185 22.4352C63.5058 23.5517 64.9127 23.8983 66.4993 23.4558C68.1881 22.9854 69.3937 21.5606 69.3511 20.1433C69.3297 19.4369 68.9624 19.2112 68.3177 19.5283C68.0707 19.6492 67.8467 19.8129 67.612 19.9575C66.2814 20.7775 64.841 21.2347 63.2498 21.1978L63.2513 21.1964ZM61.628 17.2039C62.0396 17.1759 62.5426 17.4606 62.7331 16.9517C62.9236 16.4429 62.4618 16.1538 62.1188 15.8854C60.9345 14.9621 58.8434 15.6642 58.4501 17.1125C58.3541 17.4679 58.2886 17.8514 58.665 18.1154C59.072 18.4015 59.3753 18.139 59.6664 17.8986C60.2426 17.4207 60.8751 17.1036 61.6296 17.2039H61.628ZM68.1576 13.3737C66.8042 13.3649 65.7845 14.0861 65.5818 15.2025C65.5315 15.4769 65.5315 15.7512 65.7845 15.94C65.9857 16.0889 66.2676 16.1037 66.4216 15.9518C67.2355 15.1583 68.2186 15.1642 69.2642 15.2689C69.7976 15.322 70.0583 14.912 69.8007 14.4474C69.4562 13.8265 68.935 13.3959 68.1546 13.3737H68.1576Z" fill="#313A6D"/>
<path d="M146.69 40.1797C145.138 39.4385 142.968 39.0754 140.063 39.0625C139.789 39.0588 139.52 39.1386 139.293 39.2915C139.106 39.4177 138.953 39.5878 138.848 39.7868C138.742 39.9859 138.687 40.2079 138.688 40.4332V52.7265C138.688 53.5576 139.279 54.1845 140.063 54.1845C143.116 54.1845 146.18 54.4698 148.014 56.204C148.039 56.2278 148.071 56.2438 148.105 56.2498C148.139 56.2559 148.174 56.2518 148.206 56.238C148.238 56.2243 148.265 56.2015 148.284 56.1726C148.303 56.1436 148.313 56.1097 148.313 56.0751V41.5899C148.313 41.4922 148.292 41.3956 148.251 41.3066C148.211 41.2177 148.152 41.1384 148.078 41.0743C147.658 40.715 147.191 40.4141 146.69 40.1797ZM158.708 39.2902C158.48 39.1377 158.211 39.0583 157.938 39.0625C155.032 39.0754 152.862 39.4367 151.31 40.1797C150.809 40.4136 150.342 40.714 149.922 41.0726C149.848 41.1368 149.789 41.2161 149.749 41.305C149.708 41.3939 149.687 41.4905 149.688 41.5882V56.0742C149.687 56.1075 149.697 56.14 149.716 56.1677C149.734 56.1954 149.76 56.2171 149.791 56.23C149.822 56.2429 149.855 56.2464 149.888 56.2402C149.921 56.234 149.951 56.2182 149.975 56.195C151.078 55.0993 153.013 54.1832 157.939 54.1836C158.304 54.1836 158.654 54.0387 158.911 53.7809C159.169 53.523 159.314 53.1733 159.314 52.8086V40.4336C159.315 40.2079 159.26 39.9855 159.154 39.786C159.048 39.5866 158.895 39.4163 158.708 39.2902Z" fill="white"/>
<defs>
<clipPath id="clip0_1027_133">
<rect width="47.0866" height="55.2756" fill="white" transform="translate(70)"/>
</clipPath>
</defs>
</svg>
