<svg width="127" height="175" viewBox="0 0 127 175" fill="none" xmlns="http://www.w3.org/2000/svg">
<path d="M120.802 154.013V163.242H0V154.141H23.3291V144.701H6.86624V111.931H54.4405V144.627H38.2194V154.01H120.802V154.013ZM18.4293 135.276C26.4922 133.743 34.4744 132.231 42.4507 130.704C44.1128 130.386 44.2053 130.166 43.6234 128.377C43.1878 128.427 42.7402 128.454 42.3045 128.538C34.8504 129.954 27.4023 131.421 19.9363 132.77C18.3876 133.049 17.8534 133.645 18.4293 135.276ZM43.6712 119.847C43.2564 119.904 42.8237 119.945 42.403 120.026C34.8952 121.451 27.3874 122.889 19.8766 124.311C18.0295 124.66 17.937 124.782 18.5099 126.686C18.8859 126.636 19.2738 126.6 19.6558 126.526C27.2083 125.091 34.7609 123.648 42.3164 122.216C44.0621 121.886 44.1158 121.814 43.6712 119.85V119.847Z" fill="#282F56"/>
<path d="M4.47 98.3565V88.0412H24.5823V79.1842H8.0747V46.4318H55.7892V79.1068H39.6069V87.9757H59.6834V98.3565H4.47ZM45.1691 54.2144C36.4468 55.8572 27.9364 57.4584 19.4289 59.0625V61.241C28.0766 59.6101 36.6229 57.997 45.1691 56.384V54.2144ZM19.414 69.7677C27.5574 68.226 35.6232 66.7112 43.6831 65.1695C45.4854 64.8243 45.4914 64.7648 45.0289 62.7589C36.4856 64.369 27.9393 65.982 19.414 67.5892V69.7677Z" fill="#60C795"/>
<path d="M103.089 151.65H68.8116V132.058H88.7747C89.1626 129.826 89.1298 129.782 87.0857 129.782C81.5653 129.782 76.0478 129.782 70.5274 129.782H68.6952C68.6952 126.838 68.6773 124.032 68.728 121.225C68.731 120.984 69.1607 120.66 69.4591 120.541C69.7605 120.422 70.1454 120.505 70.4916 120.505C80.2881 120.505 90.0817 120.505 99.8782 120.505H101.698V140.037H81.6279V142.701H103.083V151.65H103.089Z" fill="#282F56"/>
<path d="M88.8881 75.1336V72.8718H68.8176V63.619H101.69C101.722 64.113 101.782 64.5862 101.782 65.0624C101.788 70.5682 101.755 76.0771 101.812 81.5829C101.824 82.8032 101.484 83.2049 100.227 83.1901C94.6592 83.1276 89.0881 83.1633 83.5199 83.1633C82.929 83.1633 82.3382 83.1633 81.622 83.1633V85.6156H103.104V94.5143H68.7907V75.1307H88.8881V75.1336Z" fill="#282F56"/>
<path d="M70.8974 96.9905H120.453V117.392H107.643V106.562H70.8944V96.9905H70.8974Z" fill="#282F56"/>
<path d="M120.558 130.838H126.964V141.275H120.578V151.579H107.631V120.234H120.558V130.841V130.838Z" fill="#282F56"/>
<path d="M127 84.2288C125.335 84.2288 123.75 84.2972 122.178 84.2049C120.966 84.1335 120.519 84.4907 120.561 85.7644C120.65 88.6305 120.587 91.4995 120.587 94.4667H107.58V63.1993H120.587C120.587 66.1606 120.587 69.0236 120.587 71.8897C120.587 73.219 121.262 73.8847 122.611 73.8867C124.04 73.8867 125.472 73.8867 127 73.8867V84.2288Z" fill="#282F56"/>
<rect x="107.758" y="165.735" width="13.4697" height="8.65909" fill="#282F56"/>
<g clip-path="url(#clip0_544_100)">
<path d="M99.1601 54C98.6575 53.7586 98.4466 53.4039 98.2192 53.0776C93.9546 46.9334 94.2833 38.5237 100.042 33.0093C101.68 31.4409 103.477 30.0653 105.187 28.5846C106.49 27.4558 107.695 26.2461 108.642 24.7978C110.41 22.0966 110.39 19.3441 108.97 16.5283C108.911 16.4109 108.845 16.2949 108.786 16.1776C108.778 16.1601 108.788 16.1345 108.794 16.0414C110.161 16.3718 111.287 17.0879 112.274 18.0117C116.472 21.9374 116.566 28.2043 112.546 32.3094C110.778 34.1151 108.663 35.4732 106.648 36.9647C104.393 38.6329 102.378 40.5196 101.031 43.0158C100.026 44.8768 99.5367 46.8714 99.2888 48.9482C99.0916 50.6002 99.171 52.2549 99.1601 54.0013V54Z" fill="#282F56"/>
<path d="M118.43 37.0537C120.215 37.078 121.914 37.3396 123.225 38.7111C123.526 39.0267 123.758 39.3813 123.901 39.7819C124.277 40.8338 123.547 41.8546 122.411 41.9005C121.744 41.9275 121.105 41.7737 120.46 41.6483C115.601 40.703 111.592 42.4413 108.032 45.512C106.694 46.6664 105.554 48.0055 104.698 49.5605C104.601 49.7371 104.52 50.0743 104.259 49.9974C103.953 49.907 104.093 49.5605 104.116 49.3501C104.245 48.2334 104.608 47.1708 105.115 46.1755C107.32 41.8398 110.61 38.7327 115.469 37.438C115.819 37.345 116.171 37.256 116.528 37.1993C117.157 37.1009 117.787 36.9957 118.432 37.051L118.43 37.0537Z" fill="#282F56"/>
<path d="M91.4827 42.3887C91.0855 42.1163 90.939 41.8115 90.75 41.5472C88.5985 38.5412 85.8609 36.343 82.1386 35.519C81.2567 35.3235 80.3583 35.194 79.4681 35.0349C78.8135 34.9175 78.1753 34.6964 78.0274 33.9937C77.8781 33.279 78.3465 32.7598 78.9025 32.3701C80.5226 31.2332 82.3071 31.2723 84.1176 31.7605C87.9206 32.7868 90.8431 36.1731 91.3814 40.0597C91.4827 40.796 91.4991 41.5188 91.4827 42.3873V42.3887Z" fill="#282F56"/>
<path d="M93.1055 52.6878C92.5714 52.406 92.2606 51.9879 91.9031 51.6292C90.0625 49.7803 87.9015 48.5167 85.2967 48.0298C83.8875 47.7655 82.4919 47.9004 81.0992 48.135C80.8664 48.1741 80.6472 48.1647 80.424 48.1202C79.6338 47.9637 79.2914 47.3097 79.6872 46.6246C80.2419 45.6658 81.2402 45.4082 82.2317 45.3057C86.9332 44.8202 91.3225 47.6374 92.8604 51.5429C92.9987 51.8935 93.0809 52.2455 93.1055 52.6892V52.6878Z" fill="#282F56"/>
<path d="M99.2485 10.4475C99.2485 9.10953 99.2447 7.77157 99.2504 6.4336C99.2532 5.78423 99.6494 5.29651 100.304 5.22176C101.727 5.06012 103.149 4.9097 104.549 4.58081C105.686 4.31359 106.783 3.94546 107.842 3.45961C108.76 3.03822 109.263 3.3316 109.211 4.31826C109.157 5.33388 109.246 6.37567 108.887 7.35485C108.245 9.10393 106.827 9.9196 105.117 10.3522C104.002 10.6344 102.862 10.6783 101.72 10.6269C101.385 10.6119 101.304 10.711 101.308 11.0371C101.34 13.1842 101.3 15.3303 101.216 17.4756C101.15 19.163 100.281 20.3842 98.8674 21.2559C96.9862 22.4154 94.4491 22.3612 92.7383 21.1316C90.8411 19.7684 90.5964 17.0486 92.2169 15.335C93.8186 13.642 96.3246 13.2692 98.4806 14.4063C98.6726 14.5081 98.8617 14.6184 99.0424 14.7389C99.2927 14.9052 99.3548 14.823 99.3492 14.5539C99.3219 13.2944 99.3059 12.034 99.2852 10.7745C99.2833 10.6661 99.273 10.5568 99.2664 10.4484C99.2607 10.4484 99.2551 10.4484 99.2494 10.4484L99.2485 10.4475Z" fill="#282F56"/>
</g>
<path d="M81 17.1327C80.9062 19.0922 80.5518 21.3557 79.2787 23.4075C77.9371 25.5687 75.9716 26.8309 73.3957 26.9922C72.3921 27.0542 71.3408 26.7372 70.3566 26.3539C68.8989 25.7863 67.6183 24.939 66.5358 23.8873C65.0036 22.3989 63.8735 20.6094 62.9979 18.6772C62.1537 16.8114 61.5447 14.8663 61.1203 12.8851C60.7912 11.3507 61.0339 10.2254 63.1662 10.1822C66.1799 10.1217 69.0418 9.45311 71.8099 8.31054C73.0755 7.78897 74.2489 7.12907 75.4281 6.45765C76.8189 5.66664 78.0547 5.8525 78.7203 7.39706C80.0128 10.3983 80.9702 13.4701 81 17.1298V17.1327ZM71.0147 20.8457C70.8911 20.8457 70.7661 20.8356 70.644 20.8471C70.297 20.8817 69.8399 20.6843 69.6672 21.1353C69.5168 21.5315 69.8444 21.811 70.1035 22.056C71.2634 23.1467 72.6377 23.4853 74.1878 23.053C75.8376 22.5934 77.0154 21.2016 76.9737 19.8169C76.9529 19.1268 76.594 18.9063 75.9642 19.2161C75.723 19.3343 75.5041 19.4942 75.2748 19.6354C73.9749 20.4365 72.5678 20.8831 71.0132 20.8471L71.0147 20.8457ZM69.4289 16.9454C69.831 16.918 70.3223 17.1961 70.5085 16.699C70.6946 16.2019 70.2434 15.9195 69.9084 15.6573C68.7514 14.7553 66.7085 15.4412 66.3244 16.856C66.2306 17.2033 66.1665 17.5779 66.5343 17.8358C66.9319 18.1153 67.2282 17.8589 67.5126 17.624C68.0754 17.1572 68.6934 16.8474 69.4304 16.9454H69.4289ZM75.8078 13.2036C74.4856 13.1949 73.4895 13.8995 73.2914 14.9902C73.2423 15.2582 73.2423 15.5262 73.4895 15.7106C73.686 15.8561 73.9615 15.8705 74.1119 15.7221C74.907 14.947 75.8674 14.9527 76.8889 15.055C77.41 15.1069 77.6646 14.7063 77.413 14.2525C77.0765 13.6459 76.5672 13.2252 75.8049 13.2036H75.8078Z" fill="#282F56"/>
<defs>
<clipPath id="clip0_544_100">
<rect width="46" height="54" fill="white" transform="translate(78)"/>
</clipPath>
</defs>
</svg>
