<svg width="39" height="28" viewBox="0 0 39 28" fill="none" xmlns="http://www.w3.org/2000/svg">
<path d="M33.622 3.21696C33.7399 3.3106 33.8351 3.42965 33.9005 3.56523C33.966 3.70081 34 3.84941 34 3.99996V15.667C34 15.707 33.9977 15.7473 33.993 15.788C33.9977 15.858 34 15.9286 34 16C33.9997 16.6367 33.7967 17.2569 33.4206 17.7706C33.0444 18.2844 32.5145 18.6652 31.9076 18.8578C31.3007 19.0504 30.6482 19.045 30.0446 18.8422C29.441 18.6394 28.9176 18.2498 28.5501 17.7298C28.1826 17.2098 27.9901 16.5863 28.0004 15.9497C28.0107 15.313 28.2234 14.6961 28.6076 14.1883C28.9918 13.6805 29.5276 13.3081 30.1375 13.1251C30.7473 12.942 31.3997 12.9577 32 13.17V9.25996L24 11.127V18.003C23.9992 18.6396 23.7959 19.2596 23.4195 19.773C23.0431 20.2865 22.5131 20.667 21.9062 20.8593C21.2992 21.0516 20.6468 21.0458 20.0434 20.8428C19.44 20.6398 18.9168 20.25 18.5495 19.73C18.1822 19.2099 17.9899 18.5865 18.0004 17.9499C18.0109 17.3133 18.2237 16.6966 18.6079 16.1889C18.9921 15.6812 19.5279 15.309 20.1377 15.126C20.7475 14.943 21.3997 14.9587 22 15.171V6.33296C22 6.10719 22.0764 5.88805 22.2167 5.7112C22.3571 5.53436 22.5531 5.41021 22.773 5.35896L32.773 3.02596C32.9183 2.99218 33.0694 2.99136 33.2151 3.02354C33.3608 3.05573 33.4974 3.1201 33.615 3.21196L33.622 3.21696Z" fill="#60C795"/>
<path d="M18.622 7.21696C18.7399 7.3106 18.8351 7.42965 18.9005 7.56523C18.966 7.70081 19 7.84941 19 7.99996V19.667C19 19.707 18.9977 19.7473 18.993 19.788C18.9977 19.858 19 19.9286 19 20C18.9997 20.6367 18.7967 21.2569 18.4206 21.7706C18.0444 22.2844 17.5145 22.6652 16.9076 22.8578C16.3007 23.0504 15.6482 23.045 15.0446 22.8422C14.441 22.6394 13.9176 22.2498 13.5501 21.7298C13.1826 21.2098 12.9901 20.5863 13.0004 19.9497C13.0107 19.313 13.2234 18.6961 13.6076 18.1883C13.9918 17.6805 14.5276 17.3081 15.1375 17.1251C15.7473 16.942 16.3997 16.9577 17 17.17V13.26L9 15.127V22.003C8.99924 22.6396 8.79595 23.2596 8.41953 23.773C8.04312 24.2865 7.5131 24.667 6.90616 24.8593C6.29923 25.0516 5.64684 25.0458 5.0434 24.8428C4.43996 24.6398 3.91676 24.25 3.54948 23.73C3.1822 23.2099 2.98991 22.5865 3.00041 21.9499C3.01091 21.3133 3.22367 20.6966 3.60789 20.1889C3.99212 19.6812 4.5279 19.309 5.13771 19.126C5.74752 18.943 6.39973 18.9587 7 19.171V10.333C6.99997 10.1072 7.07635 9.88805 7.2167 9.7112C7.35705 9.53436 7.55312 9.41021 7.773 9.35896L17.773 7.02596C17.9183 6.99218 18.0694 6.99136 18.2151 7.02354C18.3608 7.05573 18.4974 7.1201 18.615 7.21196L18.622 7.21696Z" fill="#696E89"/>
</svg>
