<svg width="23" height="23" viewBox="0 0 23 23" fill="none" xmlns="http://www.w3.org/2000/svg">
<path opacity="0.37" d="M11.501 13.9375C13.0024 13.9366 14.4801 14.1129 15.9355 14.4668C17.3889 14.8201 18.8247 15.3482 20.2432 16.0547C20.7709 16.3282 21.193 16.7215 21.5195 17.2529C21.8408 17.776 22.0007 18.3424 22 18.9736V20.125C22 20.6485 21.825 21.0717 21.4482 21.4492C21.0723 21.8258 20.6499 22.0006 20.126 22H2.875C2.35157 22 1.92899 21.8254 1.55273 21.4492C1.2235 21.12 1.04798 20.7544 1.00879 20.3164L1 20.124V18.9746C1.00007 18.342 1.16049 17.7757 1.48145 17.2539C1.80816 16.7228 2.23016 16.3283 2.75781 16.0537C4.17564 15.3458 5.61107 14.8181 7.06348 14.4668C8.51974 14.1146 9.99865 13.9384 11.501 13.9375ZM11.5 1C12.8139 1 13.9135 1.45648 14.8535 2.39648C15.7935 3.33649 16.25 4.43608 16.25 5.75C16.25 7.06392 15.7935 8.16351 14.8535 9.10352C13.9135 10.0435 12.8139 10.5 11.5 10.5C10.1861 10.5 9.08649 10.0435 8.14648 9.10352C7.20648 8.16351 6.75 7.06392 6.75 5.75C6.75 4.43608 7.20648 3.33649 8.14648 2.39648C9.08649 1.45648 10.1861 1 11.5 1Z" stroke="#282F56" stroke-width="2"/>
</svg>
