<svg width="19" height="18" viewBox="0 0 19 18" fill="none" xmlns="http://www.w3.org/2000/svg">
<path d="M13.7093 10.588C15.1134 10.588 16.4599 10.0303 17.4527 9.03745C18.4456 8.04463 19.0033 6.69808 19.0033 5.29402C19.0033 3.88996 18.4456 2.5434 17.4527 1.55058C16.4599 0.557761 15.1134 0 13.7093 0C12.3052 0 10.9587 0.557761 9.96586 1.55058C8.97304 2.5434 8.41528 3.88996 8.41528 5.29402C8.41528 6.69808 8.97304 8.04463 9.96586 9.03745C10.9587 10.0303 12.3052 10.588 13.7093 10.588Z" fill="#2F3F78"/>
<path fill-rule="evenodd" clip-rule="evenodd" d="M13.709 3.14331C14.1656 3.14331 14.5362 3.51389 14.5362 3.9705V6.61751C14.5362 6.83689 14.4491 7.04729 14.2939 7.20242C14.1388 7.35755 13.9284 7.4447 13.709 7.4447C13.4896 7.4447 13.2792 7.35755 13.1241 7.20242C12.969 7.04729 12.8818 6.83689 12.8818 6.61751V3.9705C12.8818 3.51389 13.2524 3.14331 13.709 3.14331Z" fill="#8FBFFA"/>
<path d="M3.39918 8.73535H0.959961V14.0294L3.37933 16.4487C3.87097 16.9405 4.45467 17.3306 5.09711 17.5968C5.73955 17.8629 6.42813 17.9999 7.12352 17.9999H14.8568C15.3833 17.9999 15.8882 17.7907 16.2605 17.4184C16.6328 17.0461 16.842 16.5411 16.842 16.0146C16.842 15.4881 16.6328 14.9831 16.2605 14.6108C15.8882 14.2385 15.3833 14.0294 14.8568 14.0294H10.8862L7.14205 10.2865C6.14946 9.29361 4.80312 8.73565 3.39918 8.73535Z" fill="#8FBFFA"/>
<path fill-rule="evenodd" clip-rule="evenodd" d="M9.23845 12.3814C9.39419 12.6167 9.45693 12.9016 9.4145 13.1806C9.37207 13.4596 9.22749 13.7129 9.00883 13.8914C8.79016 14.0698 8.513 14.1606 8.23114 14.1462C7.94928 14.1318 7.68282 14.0132 7.48348 13.8134L5.5644 11.8943C5.40792 11.7466 5.20006 11.6657 4.98491 11.6688C4.76977 11.6718 4.56427 11.7586 4.41204 11.9106C4.25981 12.0627 4.17282 12.2681 4.16953 12.4832C4.16624 12.6984 4.24691 12.9063 4.39442 13.063L6.3135 14.9821C6.64126 15.3099 7.04548 15.551 7.4897 15.6836C7.93392 15.8162 8.40417 15.8361 8.85801 15.7416C9.31186 15.647 9.73502 15.441 10.0893 15.142C10.4436 14.8431 10.718 14.4606 10.8875 14.0291L9.23845 12.3814Z" fill="#2F3F78"/>
</svg>
