<svg width="27" height="28" viewBox="0 0 27 28" fill="none" xmlns="http://www.w3.org/2000/svg">
<path d="M22 26L16.657 20.657M16.657 20.657C17.3999 19.9141 17.9892 19.0321 18.3912 18.0615C18.7933 17.0909 19.0002 16.0506 19.0002 15C19.0002 13.9494 18.7933 12.909 18.3912 11.9384C17.9892 10.9678 17.3999 10.0858 16.657 9.34296C15.9141 8.60007 15.0322 8.01078 14.0615 7.60874C13.0909 7.20669 12.0506 6.99976 11 6.99976C9.94939 6.99976 8.90908 7.20669 7.93845 7.60874C6.96782 8.01078 6.08588 8.60007 5.34299 9.34296C3.84266 10.8433 2.99979 12.8782 2.99979 15C2.99979 17.1217 3.84266 19.1566 5.34299 20.657C6.84332 22.1573 8.87821 23.0002 11 23.0002C13.1218 23.0002 15.1567 22.1573 16.657 20.657Z" stroke="#717171" stroke-width="2.5" stroke-linecap="round" stroke-linejoin="round"/>
<path d="M23 8C22.4476 8 22 7.68445 22 7.29503V0.70497C22 0.315544 22.4476 0 23 0C23.5524 0 24 0.315544 24 0.70497V7.29503C24 7.68445 23.5524 8 23 8Z" fill="#717171"/>
<path d="M26.295 5H19.705C19.3155 5 19 4.5524 19 4C19 3.4476 19.3155 3 19.705 3H26.295C26.6845 3 27 3.4476 27 4C27 4.5524 26.6845 5 26.295 5Z" fill="#717171"/>
</svg>
