<svg width="428" height="926" viewBox="0 0 428 926" fill="none" xmlns="http://www.w3.org/2000/svg">
<g clip-path="url(#clip0_1020_85)">
<rect width="428" height="926" fill="white" fill-opacity="0.2"/>
<path d="M53.488 426.824V433.064H41.872V426.824H53.488ZM54.56 434.488V436.504H49.04V438.632H46.912V436.504H44.16V439.72H53.808V441.88H41.888V436.504H40.8V434.488H54.56ZM43.984 430.936H51.36V428.952H43.984V430.936ZM70.5594 434.2H68.9274V441.88H56.1594V439.704H59.5834V437.64C59.1994 437.544 58.8474 437.405 58.5274 437.224C58.2074 437.032 57.9247 436.808 57.6794 436.552C57.4447 436.296 57.258 436.013 57.1194 435.704C56.9914 435.395 56.9274 435.069 56.9274 434.728V433.272C56.9274 432.845 57.0287 432.451 57.2314 432.088C57.434 431.715 57.706 431.389 58.0474 431.112C58.3994 430.835 58.8047 430.616 59.2634 430.456C59.7327 430.296 60.2234 430.216 60.7354 430.216C61.2474 430.216 61.7327 430.296 62.1914 430.456C62.6607 430.616 63.066 430.835 63.4074 431.112C63.7594 431.389 64.0367 431.715 64.2394 432.088C64.442 432.451 64.5434 432.845 64.5434 433.272V434.728C64.5434 435.069 64.474 435.395 64.3354 435.704C64.2074 436.013 64.0207 436.296 63.7754 436.552C63.5407 436.808 63.2634 437.032 62.9434 437.224C62.6234 437.405 62.2714 437.544 61.8874 437.64V439.704H66.6714V426.744H68.9274V432.088H70.5594V434.2ZM59.6474 427.432V426.2H61.8554V427.432H64.9594V429.432H56.5594V427.432H59.6474ZM59.1354 434.408C59.1354 434.813 59.29 435.155 59.5994 435.432C59.9087 435.699 60.2874 435.832 60.7354 435.832C61.1834 435.832 61.562 435.699 61.8714 435.432C62.1807 435.155 62.3354 434.813 62.3354 434.408V433.592C62.3354 433.187 62.1807 432.851 61.8714 432.584C61.562 432.307 61.1834 432.168 60.7354 432.168C60.2874 432.168 59.9087 432.307 59.5994 432.584C59.29 432.851 59.1354 433.187 59.1354 433.592V434.408ZM77.0228 428.968H71.5188V426.824H79.5347V428.968L77.6948 441.8H75.2308L77.0228 428.968ZM84.2868 432.36H85.9188V434.536H84.2868V441.88H81.8868V426.744H84.2868V432.36ZM92.3231 426.824H101.203V428.888H99.8911V439.736H101.203V441.8H92.3231V439.736H93.5551V428.888H92.3231V426.824ZM105.203 441.88H102.963V426.744H105.203V441.88ZM95.8591 439.736H97.6031V428.888H95.8591V439.736ZM111.699 426.744C112.243 426.744 112.755 426.845 113.235 427.048C113.715 427.24 114.131 427.512 114.483 427.864C114.845 428.205 115.128 428.611 115.331 429.08C115.544 429.549 115.651 430.051 115.651 430.584V432.072H118.307V426.744H120.563V441.88H118.307V434.168H115.651V438.04C115.651 438.573 115.544 439.075 115.331 439.544C115.128 440.013 114.845 440.419 114.483 440.76C114.131 441.112 113.715 441.384 113.235 441.576C112.755 441.779 112.243 441.88 111.699 441.88C111.155 441.88 110.643 441.779 110.163 441.576C109.683 441.384 109.267 441.112 108.914 440.76C108.563 440.419 108.28 440.013 108.067 439.544C107.864 439.075 107.763 438.573 107.763 438.04V430.584C107.763 430.051 107.864 429.549 108.067 429.08C108.28 428.611 108.563 428.205 108.914 427.864C109.267 427.512 109.683 427.24 110.163 427.048C110.643 426.845 111.155 426.744 111.699 426.744ZM111.699 428.968C111.475 428.968 111.261 429.011 111.059 429.096C110.856 429.181 110.675 429.299 110.515 429.448C110.365 429.587 110.248 429.757 110.163 429.96C110.077 430.152 110.035 430.36 110.035 430.584V438.04C110.035 438.264 110.077 438.472 110.163 438.664C110.248 438.856 110.365 439.021 110.515 439.16C110.675 439.309 110.856 439.427 111.059 439.512C111.261 439.597 111.475 439.64 111.699 439.64C111.933 439.64 112.152 439.597 112.355 439.512C112.557 439.427 112.733 439.309 112.883 439.16C113.032 439.021 113.149 438.856 113.235 438.664C113.32 438.472 113.363 438.264 113.363 438.04V430.584C113.363 430.36 113.32 430.152 113.235 429.96C113.149 429.757 113.032 429.587 112.883 429.448C112.733 429.299 112.557 429.181 112.355 429.096C112.152 429.011 111.933 428.968 111.699 428.968ZM131.602 439.608V441.816H123.282V426.824H125.762V439.608H131.602ZM135.49 431.832H137.122V433.944H135.49V441.88H133.218V426.744H135.49V431.832ZM151.841 434.408V436.552H141.441V439.704H151.073V441.88H139.169V436.552H138.081V434.408H151.841ZM141.249 430.472H150.833V432.632H139.073V426.744H141.249V430.472ZM162.646 433.288V430.408H164.982V433.288H168.134L168.822 428.968H159.542V426.824H171.222V428.968L170.534 433.288H172.326V435.048H158.566V433.288H162.646ZM168.806 436.152C169.2 436.152 169.568 436.221 169.91 436.36C170.262 436.499 170.566 436.696 170.822 436.952C171.078 437.197 171.28 437.496 171.43 437.848C171.579 438.2 171.654 438.589 171.654 439.016C171.654 439.443 171.579 439.832 171.43 440.184C171.28 440.536 171.078 440.835 170.822 441.08C170.566 441.336 170.262 441.533 169.91 441.672C169.568 441.811 169.2 441.88 168.806 441.88H162.086C161.691 441.88 161.318 441.811 160.966 441.672C160.624 441.533 160.326 441.336 160.07 441.08C159.814 440.835 159.611 440.536 159.462 440.184C159.312 439.832 159.238 439.443 159.238 439.016C159.238 438.589 159.312 438.2 159.462 437.848C159.611 437.496 159.814 437.197 160.07 436.952C160.326 436.696 160.624 436.499 160.966 436.36C161.318 436.221 161.691 436.152 162.086 436.152H168.806ZM162.086 438.168C161.894 438.168 161.728 438.248 161.59 438.408C161.462 438.568 161.398 438.771 161.398 439.016C161.398 439.261 161.462 439.464 161.59 439.624C161.728 439.784 161.894 439.864 162.086 439.864H168.806C168.998 439.864 169.158 439.784 169.286 439.624C169.424 439.464 169.494 439.261 169.494 439.016C169.494 438.771 169.424 438.568 169.286 438.408C169.158 438.248 168.998 438.168 168.806 438.168H162.086ZM175.461 441.88V437H177.717V439.8H184.357V426.744H186.693V430.6H188.325V432.52H186.693V441.88H175.461ZM173.925 426.824H181.397V428.984L180.709 434.952H178.293L178.981 428.984H173.925V426.824ZM200.089 439.752V434.728H195.049V426.824H207.529V434.728H202.489V439.752H208.169V441.88H194.409V439.752H200.089ZM197.529 432.584H205.049V428.968H197.529V432.584ZM224.169 432.52H222.537V438.52L221.929 441.88H219.513L220.137 438.52H210.841V436.584H220.233V426.744H222.537V430.6H224.169V432.52ZM218.105 431.736H212.409V432.92H218.105V434.952H210.169V429.816H215.961V428.808H210.169V426.824H218.105V431.736ZM230.808 439.752V434.728H225.768V426.824H238.248V434.728H233.208V439.752H238.888V441.88H225.128V439.752H230.808ZM228.248 432.584H235.768V428.968H228.248V432.584ZM254.888 432.52H253.256V438.52L252.648 441.88H250.232L250.856 438.52H241.56V436.584H250.952V426.744H253.256V430.6H254.888V432.52ZM248.824 431.736H243.128V432.92H248.824V434.952H240.888V429.816H246.68V428.808H240.888V426.824H248.824V431.736Z" fill="#282F56"/>
<path d="M280.656 355.077V364.524H157V355.208H180.88V345.544H164.028V312H212.727V345.468H196.122V355.074H280.656V355.077ZM175.865 335.896C184.118 334.327 192.289 332.78 200.453 331.217C202.155 330.891 202.25 330.665 201.654 328.835C201.208 328.886 200.75 328.914 200.304 328.999C192.674 330.449 185.05 331.951 177.407 333.331C175.822 333.617 175.275 334.227 175.865 335.896ZM201.703 320.103C201.278 320.161 200.835 320.204 200.405 320.286C192.719 321.746 185.034 323.217 177.346 324.673C175.455 325.03 175.361 325.154 175.947 327.104C176.332 327.052 176.729 327.016 177.12 326.94C184.851 325.471 192.582 323.994 200.316 322.528C202.103 322.19 202.158 322.117 201.703 320.107V320.103Z" fill="#313A6D"/>
<path d="M39.9999 377.68V367.121H60.5873V358.055H43.6897V324.529H92.5314V357.975H75.9668V367.054H96.5175V377.68H39.9999ZM81.6604 332.495C72.732 334.177 64.0206 335.816 55.3121 337.458V339.688C64.1641 338.018 72.9122 336.367 81.6604 334.716V332.495ZM55.2969 348.416C63.6326 346.838 71.889 345.287 80.1392 343.709C81.9841 343.356 81.9902 343.295 81.5168 341.241C72.7717 342.889 64.0236 344.541 55.2969 346.186V348.416Z" fill="#60C795"/>
<path d="M262.524 352.658H227.437V332.603H247.872C248.269 330.318 248.235 330.273 246.143 330.273C240.492 330.273 234.844 330.273 229.193 330.273H227.318C227.318 327.26 227.3 324.387 227.351 321.514C227.354 321.267 227.794 320.935 228.1 320.813C228.408 320.691 228.802 320.777 229.157 320.777C239.185 320.777 249.21 320.777 259.237 320.777H261.101V340.771H240.556V343.497H262.518V352.658H262.524Z" fill="#313A6D"/>
<path d="M126.412 353.908V351.593H105.868V342.122H139.516C139.55 342.627 139.611 343.112 139.611 343.599C139.617 349.235 139.584 354.874 139.642 360.51C139.654 361.759 139.306 362.17 138.02 362.155C132.32 362.091 126.617 362.128 120.917 362.128C120.313 362.128 119.708 362.128 118.975 362.128V364.638H140.964V373.747H105.84V353.905H126.412V353.908Z" fill="#313A6D"/>
<path d="M107.997 376.281H158.723V397.165H145.61V386.079H107.994V376.281H107.997Z" fill="#313A6D"/>
<path d="M280.405 331.354H286.964V342.038H280.427V352.585H267.173V320.499H280.405V331.357V331.354Z" fill="#313A6D"/>
<rect x="267" y="355" width="14" height="21" fill="#313A6D"/>
<rect x="145" y="342" width="14" height="33" fill="#313A6D"/>
<rect x="52" y="331" width="37" height="24" fill="#60C795"/>
<rect x="169" y="317" width="37" height="24" fill="#313A6D"/>
<line x1="54" y1="334.35" x2="82" y2="334.35" stroke="white" stroke-width="1.3"/>
<line x1="54" y1="341.35" x2="82" y2="341.35" stroke="white" stroke-width="1.3"/>
<line x1="54" y1="348.35" x2="82" y2="348.35" stroke="white" stroke-width="1.3"/>
<g clip-path="url(#clip1_1020_85)">
<path d="M131.66 336.276C131.145 336.028 130.93 335.665 130.697 335.331C126.332 329.042 126.668 320.434 132.563 314.789C134.239 313.184 136.079 311.776 137.829 310.26C139.163 309.104 140.396 307.866 141.366 306.384C143.176 303.619 143.155 300.801 141.701 297.919C141.641 297.799 141.574 297.68 141.513 297.56C141.505 297.542 141.515 297.516 141.522 297.42C142.921 297.759 144.073 298.492 145.084 299.437C149.381 303.456 149.477 309.871 145.362 314.073C143.552 315.921 141.387 317.311 139.325 318.838C137.016 320.545 134.954 322.477 133.575 325.032C132.546 326.937 132.045 328.979 131.792 331.104C131.59 332.796 131.671 334.489 131.66 336.277V336.276Z" fill="#313A6D"/>
<path d="M151.385 318.929C153.212 318.954 154.952 319.222 156.293 320.626C156.602 320.949 156.838 321.312 156.986 321.722C157.37 322.798 156.623 323.843 155.46 323.89C154.778 323.918 154.123 323.761 153.463 323.632C148.489 322.664 144.386 324.444 140.741 327.587C139.371 328.769 138.205 330.14 137.329 331.731C137.229 331.912 137.147 332.257 136.879 332.178C136.566 332.086 136.709 331.731 136.733 331.516C136.865 330.373 137.236 329.285 137.755 328.266C140.012 323.828 143.381 320.648 148.355 319.322C148.712 319.227 149.072 319.136 149.438 319.078C150.082 318.977 150.726 318.87 151.387 318.926L151.385 318.929Z" fill="#313A6D"/>
<path d="M123.801 324.39C123.395 324.111 123.245 323.799 123.051 323.529C120.849 320.452 118.047 318.201 114.236 317.358C113.334 317.158 112.414 317.025 111.503 316.862C110.833 316.742 110.179 316.516 110.028 315.797C109.875 315.065 110.355 314.534 110.924 314.135C112.582 312.971 114.409 313.011 116.262 313.511C120.155 314.561 123.146 318.028 123.697 322.006C123.801 322.76 123.818 323.5 123.801 324.389V324.39Z" fill="#313A6D"/>
<path d="M125.462 334.932C124.916 334.644 124.597 334.216 124.231 333.849C122.347 331.956 120.135 330.663 117.469 330.164C116.026 329.894 114.598 330.032 113.172 330.272C112.934 330.312 112.71 330.302 112.481 330.257C111.672 330.097 111.322 329.427 111.727 328.726C112.295 327.744 113.317 327.481 114.332 327.376C119.144 326.879 123.637 329.763 125.211 333.76C125.353 334.119 125.437 334.48 125.462 334.934V334.932Z" fill="#313A6D"/>
<path d="M131.75 291.694C131.75 290.325 131.747 288.955 131.752 287.586C131.755 286.921 132.161 286.422 132.831 286.345C134.288 286.18 135.743 286.026 137.176 285.689C138.34 285.415 139.463 285.039 140.547 284.541C141.486 284.11 142.002 284.41 141.948 285.42C141.893 286.46 141.984 287.526 141.616 288.529C140.959 290.319 139.508 291.154 137.758 291.597C136.616 291.886 135.449 291.931 134.28 291.878C133.937 291.863 133.854 291.964 133.859 292.298C133.891 294.496 133.85 296.692 133.765 298.888C133.697 300.616 132.807 301.866 131.36 302.758C129.435 303.945 126.838 303.889 125.086 302.631C123.144 301.235 122.894 298.451 124.553 296.697C126.192 294.964 128.758 294.583 130.964 295.747C131.161 295.851 131.355 295.964 131.54 296.087C131.796 296.257 131.859 296.173 131.854 295.898C131.826 294.608 131.809 293.318 131.788 292.029C131.786 291.918 131.776 291.806 131.769 291.695C131.763 291.695 131.757 291.695 131.751 291.695L131.75 291.694Z" fill="#313A6D"/>
</g>
<path d="M113.472 298.396C113.376 300.401 113.014 302.718 111.71 304.819C110.337 307.031 108.325 308.323 105.688 308.488C104.661 308.552 103.585 308.227 102.578 307.835C101.085 307.254 99.7746 306.386 98.6666 305.31C97.0982 303.786 95.9413 301.954 95.0451 299.977C94.1809 298.067 93.5575 296.076 93.1231 294.048C92.7863 292.477 93.0347 291.325 95.2174 291.281C98.3023 291.219 101.232 290.535 104.065 289.365C105.361 288.831 106.562 288.156 107.769 287.468C109.193 286.659 110.458 286.849 111.139 288.43C112.462 291.502 113.442 294.647 113.472 298.393V298.396ZM103.251 302.196C103.125 302.196 102.997 302.186 102.872 302.198C102.517 302.233 102.049 302.031 101.872 302.493C101.718 302.898 102.053 303.185 102.319 303.435C103.506 304.552 104.913 304.898 106.499 304.456C108.188 303.985 109.394 302.561 109.351 301.143C109.33 300.437 108.962 300.211 108.318 300.528C108.071 300.649 107.847 300.813 107.612 300.957C106.281 301.778 104.841 302.235 103.25 302.198L103.251 302.196ZM101.628 298.204C102.04 298.176 102.543 298.461 102.733 297.952C102.924 297.443 102.462 297.154 102.119 296.885C100.935 295.962 98.8434 296.664 98.4501 298.112C98.3541 298.468 98.2886 298.851 98.665 299.115C99.072 299.402 99.3753 299.139 99.6664 298.899C100.243 298.421 100.875 298.104 101.63 298.204H101.628ZM108.158 294.374C106.804 294.365 105.784 295.086 105.582 296.203C105.531 296.477 105.531 296.751 105.784 296.94C105.986 297.089 106.268 297.104 106.422 296.952C107.235 296.158 108.219 296.164 109.264 296.269C109.798 296.322 110.058 295.912 109.801 295.447C109.456 294.827 108.935 294.396 108.155 294.374H108.158Z" fill="#313A6D"/>
<path d="M186.69 321.18C185.138 320.438 182.968 320.075 180.063 320.062C179.789 320.059 179.52 320.139 179.293 320.291C179.106 320.418 178.953 320.588 178.848 320.787C178.742 320.986 178.687 321.208 178.688 321.433V333.727C178.688 334.558 179.279 335.184 180.063 335.184C183.116 335.184 186.18 335.47 188.014 337.204C188.039 337.228 188.071 337.244 188.105 337.25C188.139 337.256 188.174 337.252 188.206 337.238C188.238 337.224 188.265 337.202 188.284 337.173C188.303 337.144 188.313 337.11 188.313 337.075V322.59C188.313 322.492 188.292 322.396 188.251 322.307C188.211 322.218 188.152 322.138 188.078 322.074C187.658 321.715 187.191 321.414 186.69 321.18ZM198.708 320.29C198.48 320.138 198.211 320.058 197.938 320.062C195.032 320.075 192.862 320.437 191.31 321.18C190.809 321.414 190.342 321.714 189.922 322.073C189.848 322.137 189.789 322.216 189.749 322.305C189.708 322.394 189.687 322.49 189.688 322.588V337.074C189.687 337.107 189.697 337.14 189.716 337.168C189.734 337.195 189.76 337.217 189.791 337.23C189.822 337.243 189.855 337.246 189.888 337.24C189.921 337.234 189.951 337.218 189.975 337.195C191.078 336.099 193.013 335.183 197.939 335.184C198.304 335.184 198.654 335.039 198.911 334.781C199.169 334.523 199.314 334.173 199.314 333.809V321.434C199.315 321.208 199.26 320.985 199.154 320.786C199.048 320.587 198.895 320.416 198.708 320.29Z" fill="white"/>
<path d="M130 939C133.5 931 213.543 760.569 470 109V939H130Z" fill="#3E4A77"/>
<path d="M497.721 767.436C493.004 777.439 487.363 784.684 478.101 788.379C469.376 791.858 461.183 790.842 453.572 785.224C442.64 777.158 438.372 766.067 438.749 752.854C438.983 744.599 439.245 736.343 439.525 728.087C439.613 725.547 440.647 724.31 443.079 723.672C457.581 719.879 472.189 719.734 486.858 722.526C489.992 723.124 493.128 723.853 496.167 724.825C500.44 726.189 502.274 728.754 501.708 733.344C500.707 741.473 500.352 749.675 499.496 757.827C499.109 761.503 498.164 765.116 497.723 767.433L497.721 767.436ZM462.696 777.326C463.663 777.626 464.607 778.041 465.597 778.208C473.902 779.589 480.308 775.975 483.333 768.098C483.741 767.037 483.524 765.735 483.595 764.542C482.474 764.673 481.303 764.63 480.247 764.964C475.081 766.587 469.866 767.547 464.54 765.96C462.115 765.239 459.831 764.051 457.444 763.187C456.562 762.867 455.446 762.553 454.657 762.837C454.169 763.014 453.915 764.316 453.86 765.134C453.632 768.627 457.762 775.804 462.696 777.326ZM450.219 748.32C450.85 748.439 450.988 748.509 451.073 748.47C451.556 748.248 452.025 747.993 452.503 747.762C456.001 746.058 459.442 746.104 462.857 748.029C463.389 748.328 464.059 748.378 464.664 748.544C464.672 747.88 464.866 747.149 464.658 746.564C463.723 743.948 461.793 742.293 459.063 742.012C456.022 741.699 453.302 742.737 451.387 745.197C450.747 746.019 450.605 747.226 450.216 748.318L450.219 748.32ZM489.761 750.246C489.838 747.86 488.529 746.501 487.091 745.251C483.638 742.251 478.692 742.637 476.147 746.193C475.618 746.932 475.608 748.042 475.362 748.98C476.159 748.877 477.03 748.938 477.747 748.64C480.345 747.561 482.922 746.89 485.632 748.219C486.953 748.866 488.269 749.515 489.76 750.249L489.761 750.246Z" fill="#313F6A"/>
<path d="M353.073 550.833C350.114 552.828 347.126 554.596 344.427 556.728C341.687 558.898 340.214 561.855 340.918 565.485C341.642 569.209 345.095 571.775 349.341 571.864C353.213 571.948 356.908 570.966 360.509 569.715C365.764 567.887 370.965 565.899 376.191 563.985C376.406 563.907 376.634 563.867 377.051 563.761C375.879 570.166 372.702 575.015 367.299 578.296C361.272 581.956 354.679 582.441 347.932 581.108C338.506 579.248 330.904 574.437 325.251 566.606C319.39 558.49 317.01 549.511 319.06 539.672C320.923 530.743 326.035 523.941 333.924 519.343C340.759 515.358 348.124 514.305 355.849 515.951C359.236 516.673 362.365 518.06 365.018 520.333C370.031 524.624 369.011 531.402 364.507 535.421C362.358 537.337 359.656 538.644 357.17 540.167C354.531 541.779 352.296 543.696 352.351 547.09C352.372 548.437 352.858 549.774 353.073 550.833ZM339.979 526.344C338.364 530.238 340.245 534.769 344.182 536.468C348.009 538.12 352.813 536.085 354.39 532.14C355.862 528.456 353.879 523.788 350.174 522.224C346.077 520.492 341.667 522.274 339.979 526.344ZM337.306 541.962C338.321 539.375 336.962 536.238 334.378 535.202C331.695 534.123 328.38 535.538 327.36 538.194C326.343 540.851 327.748 544.106 330.337 545.096C333.034 546.126 336.237 544.686 337.304 541.961L337.306 541.962ZM331.186 558.678C333.398 559.59 335.7 558.669 336.608 556.515C337.498 554.398 336.505 551.936 334.408 551.067C332.269 550.181 329.829 551.156 328.94 553.254C328.067 555.313 329.108 557.823 331.187 558.682L331.186 558.678Z" fill="#313F6A"/>
<path d="M264.86 737.32C262.954 734.587 260.489 732.517 257.531 731.354C254.064 729.991 250.407 729.117 246.845 728.001C245.314 727.52 243.769 727.045 242.296 726.41C240.674 725.715 240.293 724.209 241.108 722.162C242.852 717.787 244.622 713.426 246.376 709.055C249.689 700.816 252.996 692.575 256.31 684.336C257.284 681.914 258.195 681.413 260.841 681.729C265.883 682.334 270.784 683.488 275.385 685.678C279.836 687.796 283.61 690.813 286.551 694.791C287.183 695.646 287.744 695.995 288.861 695.789C296.512 694.364 303.564 696.148 310.185 700.006C311.617 700.84 313.061 701.66 314.43 702.592C317.804 704.886 317.787 704.91 316.834 708.89C317.79 709.275 318.788 709.634 319.753 710.072C322.251 711.208 323.018 713.081 322.007 715.593C316.581 729.084 311.154 742.578 305.721 756.067C304.701 758.605 303.151 759.266 300.662 758.269C291.973 754.774 283.293 751.267 274.588 747.813C273.867 747.523 272.955 747.364 272.214 747.529C268.174 748.425 264.95 747.078 262.841 743.578C262.545 743.085 261.906 742.708 261.346 742.479C254.275 739.604 247.185 736.765 240.104 733.913C237.857 733.009 237.221 731.77 237.997 729.831C238.785 727.851 240.093 727.371 242.316 728.261C249.233 731.039 256.151 733.825 263.067 736.607C263.665 736.847 264.263 737.088 264.86 737.328L264.86 737.32ZM269.602 731.811C269.735 731.479 269.978 730.875 270.223 730.268C273.958 720.981 277.598 711.651 281.496 702.429C282.473 700.116 282.088 698.647 280.483 696.93C275.852 691.987 270.101 689.455 263.522 688.358C261.721 688.058 261.087 688.57 260.461 690.157C256.576 700.028 252.581 709.854 248.623 719.696C248.383 720.293 248.142 720.89 247.926 721.428C251.807 722.788 255.69 723.791 259.237 725.491C262.818 727.205 266.065 729.613 269.607 731.809L269.602 731.811ZM274.993 734.692C283.16 734.623 290.286 737.227 296.958 741.487C301.436 730.355 305.829 719.47 310.151 708.561C310.335 708.103 310.064 707.127 309.672 706.835C303.714 702.334 297.062 700.391 289.623 701.739C288.932 701.866 288.02 702.455 287.768 703.063C283.497 713.48 279.315 723.937 274.99 734.691L274.993 734.692ZM314.951 714.886L314.194 714.909C312.728 718.553 311.264 722.192 309.799 725.836C306.955 732.906 304.096 739.967 301.282 747.05C300.722 748.463 299.839 749.345 298.319 748.826C296.641 748.252 294.957 747.575 293.449 746.656C289.522 744.267 285.565 742.012 280.892 741.478C279.049 741.265 277.196 741.156 275.345 741.001C275.344 741.136 275.344 741.271 275.345 741.402L300.729 751.611C302.441 747.354 304.099 743.21 305.77 739.075C308.823 731.514 311.893 723.956 314.923 716.386C315.098 715.951 314.949 715.39 314.95 714.89L314.951 714.886Z" fill="#313F6A"/>
<path d="M434.576 920.852C436.872 922.299 439.3 923.58 441.397 925.271C442.37 926.056 443.296 927.743 443.114 928.838C442.974 929.695 441.174 930.459 439.982 930.928C437.073 932.071 433.819 932.566 431.183 934.131C425.266 937.641 423.921 944.162 427.606 949.989C431.029 955.405 433.219 961.112 432.429 967.633C430.822 980.864 419.805 989.921 406.214 989.184C401.994 988.956 397.855 988.216 393.937 986.575C392.909 986.146 391.811 985.627 391.074 984.841C390.381 984.1 389.626 982.84 389.81 982.009C389.995 981.165 391.188 980.261 392.13 979.931C393.85 979.328 395.726 979.2 397.51 978.745C399.405 978.262 401.324 977.789 403.121 977.043C408.876 974.655 411.5 968.475 408.878 962.775C407.178 959.081 404.838 955.681 402.744 952.171C394.25 937.938 402.331 919.092 421.408 918.635C425.949 918.527 429.833 919.314 434.58 920.853L434.576 920.852Z" fill="#313F6A"/>
<path d="M365.681 713.814C366.323 713.197 366.825 712.475 367.515 712.093C371.105 710.102 372.081 706.879 372.499 703.038C373.225 696.372 375.483 690.238 380.334 685.342C385.784 679.848 392.683 677.511 400.134 676.488C402.156 676.21 403.516 677.373 403.54 679.434C403.691 691.333 399.292 702.415 387.743 708.564C383.719 710.704 379.327 712.148 375.101 713.91C374.846 714.016 374.584 714.111 374.052 714.321C376.636 714.466 378.929 714.444 381.171 714.756C386.922 715.554 391.28 718.922 395.29 722.809C398.956 726.365 398.519 728.706 393.771 730.501C390.942 731.568 388.047 732.57 385.094 733.19C377.574 734.768 371.268 731.812 365.452 727.426C364.236 726.509 363.139 725.428 361.812 724.27C359.611 726.519 357.393 728.791 355.166 731.049C354.63 731.596 354.094 732.152 353.5 732.63C352.253 733.632 350.98 733.497 349.783 732.531C348.628 731.596 348.224 730.365 349.037 729.081C349.756 727.948 350.709 726.959 351.6 725.941C353.352 723.944 355.275 722.08 356.863 719.963C359.245 716.792 359.917 712.915 360.659 709.143C361.583 704.438 361.541 699.748 359.833 695.153C359.131 693.271 359.762 691.913 361.29 691.318C362.742 690.749 363.961 691.247 364.879 693.031C366.782 696.737 367.097 700.769 366.842 704.818C366.654 707.788 366.099 710.733 365.691 713.818L365.681 713.814ZM378.585 705.975C389.347 702.829 397.058 695.137 397.176 683.458C387.296 685.448 378.893 691.227 378.585 705.975ZM389.673 725.592C383.887 719.437 374.224 718.468 367.562 721.27C374.184 727.507 381.983 729.541 389.673 725.592Z" fill="#313F6A"/>
<path d="M284.07 812C282.594 808.592 281.108 805.67 280.042 802.605C278.388 797.846 278.898 793.028 281.055 788.587C282.747 785.109 284.931 781.836 287.153 778.651C288.628 776.538 290.334 776.611 292.27 778.396C295.595 781.464 298.13 785.078 299.734 789.32C299.941 789.869 300.075 790.447 300.318 791.273C304.487 787.746 308.975 785.592 313.992 784.924C317.48 784.461 321.05 784.486 324.58 784.494C326.515 784.498 327.531 785.693 327.315 787.61C326.252 797.063 322.6 805.154 314.737 810.962C314.275 811.304 313.801 811.63 313.498 811.847C315.775 814.278 318.073 816.555 320.159 819.013C321.771 820.91 321.369 822.591 319.085 823.581C311.689 826.789 304.127 828.327 296.666 824.024C294.01 822.493 291.758 820.192 289.53 818.028C288.646 817.167 288.01 817.012 286.834 817.097C283.133 817.37 279.408 817.568 275.707 817.44C273.2 817.353 271.882 815.413 272.559 813.538C273.084 812.08 274.123 811.681 275.63 811.77C278.436 811.939 281.255 811.932 284.07 812ZM321.166 790.334C310.886 788.177 300.912 795.972 298.037 808.319C309.32 808.856 317.229 806.347 321.166 790.334ZM290.016 809.041C298.337 796.159 294.88 788.797 289.893 784.46C281.807 794.167 284.489 803.017 290.016 809.041ZM294.856 815.097C299.109 821.067 308.272 822.107 313.2 819.541C308.455 813.816 300.23 813.234 294.856 815.097Z" fill="#313F6A"/>
<path d="M406.381 540.74C403.525 545.92 399.897 551.009 393.825 553.651C392.35 554.293 390.558 554.216 388.913 554.465C388.066 554.594 387.143 554.535 386.38 554.855C377.301 558.672 368.285 562.636 359.164 566.349C355.845 567.701 352.354 568.839 348.633 568.388C344.611 567.903 343.009 564.137 345.336 560.823C347.281 558.053 350.163 556.596 353.084 555.264C360.951 551.675 368.874 548.204 376.771 544.684C379.34 543.539 381.699 542.277 383.612 539.971C386.719 536.223 391.227 535.318 395.869 535.544C398.954 535.694 402.027 536.26 405.084 536.776C406.843 537.071 407.368 538.511 406.384 540.741L406.381 540.74ZM400.283 541.148C396.427 540.746 392.902 540.271 389.497 541.804C388.836 542.104 388.207 542.546 387.67 543.041C386.588 544.041 386.32 545.285 386.824 546.691C387.772 549.328 389.916 550.138 392.589 548.694C395.744 546.99 398.038 544.354 400.279 541.15L400.283 541.148ZM381.842 547.988C376.248 550.307 370.74 552.6 365.227 554.868C364.093 555.335 363.251 556.107 363.642 557.329C364.033 558.551 365.178 558.616 366.26 558.176C371.181 556.172 376.095 554.152 381 552.116C381.8 551.784 382.556 551.345 383.274 550.984C382.734 549.853 382.267 548.87 381.843 547.986L381.842 547.988Z" fill="#313F6A"/>
<path d="M329.632 623.774C326.957 627.74 324.719 633.093 319.481 636.094C316.754 637.657 313.806 638.063 310.752 638.195C310.033 638.226 309.216 638.341 308.631 638.711C300.459 643.866 292.337 649.091 284.172 654.257C280.505 656.575 277.121 655.935 274.53 652.403C272.485 649.614 270.589 646.674 272.872 643.136C273.519 642.132 274.442 641.189 275.446 640.544C283.48 635.387 291.502 630.21 299.671 625.281C301.57 624.137 301.939 622.339 302.876 620.784C306.5 614.787 311.725 612.258 318.617 613.411C321.35 613.867 324.091 614.476 326.701 615.379C330.464 616.68 331.447 619.269 329.626 623.779L329.632 623.774ZM323.939 621.403C323.864 621.177 323.791 620.947 323.716 620.72C321.123 620.321 318.531 619.888 315.932 619.532C312.722 619.093 310.318 620.59 308.782 623.191C307.953 624.592 306.736 626.111 307.782 628.143C310.281 633.006 314.22 632.563 317.755 629.482C320.261 627.298 321.908 624.133 323.936 621.402L323.939 621.403ZM285.002 646.43C291.485 642.319 297.792 638.318 304.16 634.28C303.444 633.174 302.843 632.243 302.172 631.206C295.795 635.102 289.481 638.957 283.082 642.868C283.777 644.161 284.339 645.2 285.002 646.43Z" fill="#313F6A"/>
<path d="M337.278 886.588L342.308 874.082C338.325 873.425 334.44 872.737 330.536 872.2C330.138 872.144 329.401 872.892 329.184 873.414C327.015 878.644 324.959 883.919 322.8 889.153C320.907 893.734 314.749 895.216 311.206 892.007C309.372 890.344 308.734 887.288 309.815 885.349C311.172 882.915 314.29 881.548 316.798 882.344C317.806 882.665 318.768 883.121 319.897 883.575C322.086 878.134 324.26 872.729 326.434 867.324C326.657 866.769 326.878 866.219 327.098 865.663C327.778 863.932 329.107 863.411 330.834 863.72C335.899 864.62 340.958 865.544 346.018 866.458C348.709 866.942 349.618 868.546 348.6 871.077C345.827 877.991 343.054 884.906 340.261 891.812C338.548 896.042 332.873 897.398 329.361 894.467C327.853 893.209 327.173 891.64 327.634 889.744C328.182 887.509 329.544 885.936 331.881 885.419C333.762 885 335.536 885.29 337.284 886.582L337.278 886.588Z" fill="#313F6A"/>
<path d="M388.979 608.787C390.177 605.807 391.328 602.947 392.479 600.083C393.435 597.708 394.377 595.326 395.336 592.952C395.957 591.409 397.058 590.522 398.773 590.726C404.221 591.376 409.668 592.036 415.109 592.759C416.804 592.986 417.957 594.923 417.309 596.562C414.651 603.326 412.041 610.113 409.146 616.774C407.431 620.722 401.481 621.686 398.299 618.818C396.274 616.994 395.871 614.399 397.245 612.038C398.369 610.108 401.54 608.985 403.846 609.735C404.684 610.011 405.486 610.384 406.413 610.756L410.69 600.122C406.57 599.691 402.491 599.264 398.297 598.826C396.259 603.893 394.244 608.98 392.164 614.046C390.677 617.676 386.058 619.569 382.486 618.083C379.426 616.81 378.048 613.437 379.36 610.434C380.588 607.628 384.224 606.454 387.267 607.894C387.791 608.143 388.3 608.432 388.974 608.789L388.979 608.787Z" fill="#313F6A"/>
<path d="M384.916 787.525C385.313 786.174 386.356 786.15 387.485 786.249C391.214 786.577 394.931 786.438 398.083 784.201C399.978 782.855 401.532 781.025 403.225 779.396C403.52 779.114 403.674 778.606 404.01 778.46C404.651 778.181 405.459 777.82 406.027 778.01C406.476 778.16 406.917 779.069 406.939 779.657C407.021 782.003 406.71 784.379 406.96 786.7C407.372 790.501 409.683 793.319 412.403 795.82C412.879 796.258 413.379 796.675 413.89 797.073C414.757 797.746 415.191 798.672 414.475 799.521C414.016 800.069 413.02 800.521 412.313 800.456C405.519 799.828 399.938 801.762 395.991 807.626C395.607 808.196 394.28 808.773 393.857 808.529C393.265 808.187 392.743 807.04 392.827 806.315C393.631 799.519 391.327 794.124 385.863 790.022C384.527 789.019 384.456 788.678 384.917 787.522L384.916 787.525Z" fill="#313F6A"/>
<path d="M381.294 651.66C378.884 655.898 375.418 659.959 369.514 661.05C366.022 661.696 362.514 662.255 359.005 662.798C358.389 662.893 357.588 662.918 357.124 662.605C356.456 662.155 355.641 661.391 355.59 660.712C355.539 660.032 356.203 659.1 356.817 658.611C359.017 656.851 361.532 655.442 363.565 653.515C367.908 649.391 372.969 647.252 378.914 647.095C382.056 647.013 382.765 648.042 381.294 651.66Z" fill="#313F6A"/>
<path d="M244.145 764.341C244.354 765.211 244.639 765.738 244.569 766.219C243.921 770.727 245.373 774.34 248.975 777.142C249.354 777.437 249.667 778.327 249.491 778.688C249.296 779.087 248.475 779.451 247.977 779.393C243.638 778.893 240.243 780.438 237.557 783.818C237.212 784.253 236.466 784.373 235.904 784.637C235.681 784.023 235.205 783.384 235.273 782.803C235.762 778.555 234.392 775.151 230.983 772.531C230.591 772.231 230.263 771.359 230.42 770.959C230.589 770.538 231.409 770.074 231.891 770.121C236.311 770.592 239.75 769.053 242.314 765.42C242.62 764.984 243.31 764.814 244.147 764.334L244.145 764.341Z" fill="#313F6A"/>
<path d="M428.26 860.674C427.273 860.952 426.772 861.248 426.299 861.204C422.205 860.826 418.865 862.081 416.387 865.479C416.086 865.893 415.333 865.98 414.787 866.215C414.568 865.657 414.1 865.067 414.166 864.547C414.702 860.538 413.262 857.395 410.229 854.829C409.797 854.463 409.675 853.732 409.407 853.169C409.973 852.915 410.557 852.402 411.101 852.44C415.103 852.742 418.223 851.237 420.69 848.135C421.05 847.679 421.766 847.501 422.318 847.194C422.553 847.79 423.066 848.432 422.981 848.98C422.346 853.061 423.733 856.259 426.917 858.797C427.381 859.168 427.643 859.79 428.258 860.67L428.26 860.674Z" fill="#313F6A"/>
<path d="M334.677 685.32C334.477 684.33 334.21 683.776 334.284 683.266C334.834 679.366 333.371 676.338 330.436 673.862C330.071 673.553 329.644 672.715 329.783 672.532C330.102 672.113 330.793 671.662 331.266 671.722C335.272 672.226 338.299 670.722 340.636 667.53C340.883 667.194 341.692 666.871 341.935 667.023C342.31 667.262 342.657 667.942 342.602 668.386C342.125 672.296 343.279 675.489 346.443 677.941C346.79 678.211 347.057 679.005 346.909 679.373C346.776 679.702 346.011 679.957 345.537 679.936C341.855 679.796 338.809 680.954 336.543 683.97C336.178 684.456 335.519 684.722 334.675 685.316L334.677 685.32Z" fill="#313F6A"/>
<path d="M389.69 463.584C386.513 470.321 382.714 475.2 376.476 477.689C370.6 480.032 365.082 479.347 359.956 475.564C352.594 470.132 349.719 462.662 349.973 453.764C350.131 448.204 350.307 442.644 350.496 437.084C350.555 435.373 351.252 434.54 352.889 434.111C362.656 431.556 372.494 431.458 382.373 433.339C384.484 433.741 386.596 434.232 388.643 434.887C391.52 435.805 392.756 437.533 392.375 440.625C391.701 446.099 391.461 451.623 390.885 457.113C390.624 459.588 389.988 462.022 389.691 463.582L389.69 463.584ZM366.101 470.245C366.752 470.447 367.388 470.726 368.055 470.839C373.648 471.769 377.962 469.335 380 464.031C380.274 463.315 380.128 462.439 380.176 461.635C379.421 461.723 378.632 461.694 377.921 461.92C374.442 463.013 370.93 463.659 367.343 462.59C365.71 462.105 364.171 461.304 362.564 460.723C361.97 460.507 361.218 460.296 360.687 460.487C360.358 460.606 360.187 461.483 360.15 462.034C359.996 464.386 362.778 469.22 366.101 470.245ZM357.698 450.71C358.123 450.79 358.216 450.838 358.273 450.811C358.598 450.662 358.914 450.49 359.236 450.334C361.592 449.187 363.91 449.218 366.209 450.514C366.568 450.715 367.019 450.749 367.426 450.861C367.432 450.414 367.562 449.921 367.422 449.527C366.793 447.766 365.493 446.651 363.654 446.462C361.606 446.251 359.774 446.95 358.484 448.607C358.054 449.16 357.958 449.973 357.696 450.709L357.698 450.71ZM384.329 452.007C384.38 450.4 383.499 449.485 382.53 448.644C380.205 446.623 376.874 446.883 375.16 449.278C374.804 449.776 374.797 450.523 374.631 451.155C375.168 451.085 375.754 451.126 376.238 450.926C377.987 450.199 379.723 449.747 381.547 450.642C382.437 451.078 383.324 451.515 384.328 452.009L384.329 452.007Z" fill="#313F6A"/>
<path d="M391.093 383.836C391.102 385.395 391.112 386.894 391.118 388.392C391.125 390.298 390.046 391.019 388.24 390.316C387.869 390.172 387.499 390.018 386.99 389.813C387.049 391.805 387.019 393.706 385.878 395.29C384.884 396.669 383.758 397.953 382.646 399.242C381.843 400.173 380.848 400.962 380.161 401.966C379.152 403.442 379.101 405.132 379.75 406.793C380.134 407.775 379.957 408.553 379.037 409.024C378.098 409.506 377.297 409.082 376.785 408.274C375.631 406.447 375.48 404.447 376.024 402.397C376.542 400.443 377.795 398.95 379.182 397.54C380.769 395.928 382.611 394.467 383.24 392.168C383.515 391.16 383.506 390.058 383.512 388.998C383.512 388.718 383.135 388.359 382.844 388.172C382.446 387.915 381.943 387.827 381.52 387.6C380.557 387.083 380.353 385.903 381.092 385.086C382.236 383.825 383.408 382.589 384.639 381.266C382.252 379.385 380.384 377.185 379.28 374.438C377.52 370.057 377.267 365.497 378.201 360.928C379.142 356.316 381.048 352.072 384.397 348.694C388.934 344.117 394.503 342.169 400.816 343.782C410.134 346.161 414.413 354.299 413.583 362.284C412.744 370.384 408.825 376.84 401.896 381.254C398.685 383.302 395.046 384.045 391.096 383.835L391.093 383.836ZM401.446 348.573C397.439 346.915 393.17 347.394 389.604 349.906C383.673 354.078 380.575 363.061 382.446 370.649C384.422 378.661 392.348 381.968 399.375 377.678C404.594 374.494 407.76 369.773 409.108 363.898C410.629 357.261 407.427 351.051 401.445 348.575L401.446 348.573Z" fill="#313F6A"/>
<path d="M176.914 885.886C178.405 883.406 180.132 880.512 181.886 877.628C185.547 871.614 189.219 865.609 192.889 859.603C197.667 851.78 202.45 843.955 207.228 836.131C207.722 835.324 208.187 834.494 208.705 833.704C210.271 831.307 213.47 830.574 215.919 832.083C226.55 838.633 237.163 845.218 247.803 851.753C254.009 855.563 260.285 859.263 266.475 863.102C269.342 864.883 270.015 867.748 268.262 870.628C263.682 878.153 259.004 885.62 254.392 893.128C250.461 899.526 246.572 905.953 242.644 912.353C240.546 915.776 238.486 919.23 236.253 922.565C234.546 925.112 231.721 925.452 229.101 923.844C221.989 919.476 214.832 915.183 207.71 910.834C199.932 906.091 192.172 901.32 184.408 896.563C182.489 895.387 180.52 894.29 178.651 893.037C176.305 891.466 175.643 888.96 176.917 885.887L176.914 885.886ZM240.329 902.505C247.472 890.873 254.419 879.566 261.394 868.209C245.306 858.528 229.459 848.989 213.571 839.427C206.427 851.078 199.47 862.431 192.26 874.191C199.442 872.647 206.093 871.216 212.739 869.788C218.067 868.643 218.252 868.778 219.578 874.161C220.584 878.247 221.638 882.321 222.663 886.372C225.551 885.637 228.313 884.944 231.067 884.236C234.976 883.234 235.602 883.643 236.578 887.625C237.763 892.457 239.006 897.278 240.327 902.509L240.329 902.505ZM213.769 876.261C213.528 876.265 213.351 876.236 213.187 876.27C205.074 878.007 196.959 879.743 188.854 881.518C188.318 881.633 187.665 881.941 187.386 882.369C186.175 884.218 185.084 886.146 183.933 888.065C192.015 892.965 199.916 897.72 207.783 902.53C215.634 907.33 223.453 912.182 231.304 917.024C231.732 916.456 232.027 916.097 232.29 915.713C234.652 912.276 235.345 908.506 234.37 904.403C234.357 904.348 234.363 904.285 234.349 904.225C233.235 899.764 232.117 895.302 230.98 890.754C227.998 891.54 225.197 892.299 222.387 893.015C219.005 893.875 218.029 893.263 217.186 889.89C216.057 885.35 214.908 880.814 213.765 876.26L213.769 876.261Z" fill="#313E6A"/>
</g>
<defs>
<clipPath id="clip0_1020_85">
<rect width="428" height="926" fill="white"/>
</clipPath>
<clipPath id="clip1_1020_85">
<rect width="47.0866" height="55.2756" fill="white" transform="translate(110 281)"/>
</clipPath>
</defs>
</svg>
