<svg width="27" height="27" viewBox="0 0 27 27" fill="none" xmlns="http://www.w3.org/2000/svg">
<path d="M10.9991 0.77153C9.14351 0.760383 7.33697 2.78908 8.16169 5.30823H5.04933C4.52854 5.30823 4.02908 5.5431 3.66083 5.96119C3.29258 6.37927 3.08569 6.94631 3.08569 7.53756V9.7669C3.08569 10.0625 3.18913 10.346 3.37326 10.5551C3.55739 10.7641 3.80712 10.8816 4.06751 10.8816H12.9039V7.53756H14.8675V10.8816H23.7039C23.9643 10.8816 24.214 10.7641 24.3981 10.5551C24.5823 10.346 24.6857 10.0625 24.6857 9.7669V7.53756C24.6857 6.94631 24.4788 6.37927 24.1106 5.96119C23.7423 5.5431 23.2428 5.30823 22.7221 5.30823H19.6097C20.7584 1.66326 16.4384 -0.911618 14.4453 2.23174L13.8857 3.07889L13.3261 2.20945C12.7075 1.2174 11.8533 0.782677 10.9991 0.77153ZM10.9402 3.07889C11.8141 3.07889 12.2559 4.28273 11.6373 4.98497C11.0188 5.68722 9.95842 5.18561 9.95842 4.19356C9.95842 3.89793 10.0619 3.61441 10.246 3.40537C10.4301 3.19633 10.6798 3.07889 10.9402 3.07889ZM16.8311 3.07889C17.705 3.07889 18.1468 4.28273 17.5282 4.98497C16.9097 5.68722 15.8493 5.18561 15.8493 4.19356C15.8493 3.89793 15.9528 3.61441 16.1369 3.40537C16.321 3.19633 16.5708 3.07889 16.8311 3.07889ZM4.06751 11.9962V20.9136C4.06751 21.5048 4.27439 22.0719 4.64265 22.49C5.0109 22.908 5.51036 23.1429 6.03115 23.1429H21.7402C22.261 23.1429 22.7605 22.908 23.1287 22.49C23.497 22.0719 23.7039 21.5048 23.7039 20.9136V11.9962H14.8675V20.9136H12.9039V11.9962H4.06751Z" fill="#60C795"/>
</svg>
