<svg width="31" height="31" viewBox="0 0 31 31" fill="none" xmlns="http://www.w3.org/2000/svg">
<circle cx="15.5" cy="15.5" r="15.5" fill="#3E6795"/>
<path d="M20 12.2535C20.0011 11.0972 19.6202 9.97292 18.9165 9.05526C18.2129 8.13759 17.2258 7.47793 16.1086 7.17874C14.9914 6.87955 13.8066 6.95758 12.7384 7.4007C11.6701 7.84382 10.7781 8.62723 10.2009 9.62925C10.002 9.97387 9.94813 10.3834 10.0512 10.7677C10.1543 11.152 10.4059 11.4796 10.7506 11.6784C11.0953 11.8773 11.5049 11.9311 11.8893 11.828C12.2737 11.725 12.6014 11.4735 12.8003 11.1288C12.9979 10.7867 13.2821 10.5026 13.6244 10.3051C13.9667 10.1077 14.355 10.0039 14.7502 10.0041C15.3469 10.0041 15.9192 10.2411 16.3411 10.663C16.7631 11.0848 17.0001 11.657 17.0001 12.2535C17.0001 12.8501 16.7631 13.4222 16.3411 13.8441C15.9192 14.2659 15.3469 14.5029 14.7502 14.5029H14.7457C14.649 14.5131 14.5536 14.5327 14.4607 14.5614C14.3599 14.5713 14.2604 14.5914 14.1637 14.6214C14.0815 14.6665 14.0036 14.7192 13.9312 14.7788C13.845 14.8257 13.7636 14.881 13.6882 14.9438C13.6208 15.0244 13.5619 15.1118 13.5127 15.2047C13.4581 15.2723 13.4094 15.3446 13.3672 15.4206C13.3343 15.524 13.3127 15.6306 13.3027 15.7386C13.2774 15.8248 13.2598 15.9131 13.2502 16.0025V17.5021L13.2532 17.5186V18.2549C13.254 18.6521 13.4124 19.0327 13.6936 19.3133C13.9748 19.5939 14.3559 19.7515 14.7532 19.7515H14.7577C14.9547 19.7511 15.1496 19.7119 15.3315 19.6362C15.5133 19.5604 15.6784 19.4496 15.8174 19.3101C15.9564 19.1706 16.0666 19.005 16.1416 18.823C16.2166 18.6409 16.255 18.4458 16.2546 18.2489L16.2516 17.2561C17.3316 16.9364 18.2796 16.277 18.9549 15.3757C19.6301 14.4745 19.9967 13.3796 20 12.2535ZM13.6957 22.4357C13.4851 22.6446 13.3412 22.9112 13.2821 23.2018C13.223 23.4924 13.2515 23.7941 13.3638 24.0685C13.4762 24.343 13.6675 24.578 13.9135 24.7438C14.1594 24.9096 14.449 24.9988 14.7457 25C15.1431 24.996 15.524 24.8404 15.8107 24.5651C16.0892 24.2807 16.2451 23.8985 16.2451 23.5004C16.2451 23.1024 16.0892 22.7202 15.8107 22.4357C15.5235 22.1682 15.1457 22.0194 14.7532 22.0194C14.3607 22.0194 13.9828 22.1682 13.6957 22.4357Z" fill="white"/>
</svg>
