<svg width="12" height="16" viewBox="0 0 12 16" fill="none" xmlns="http://www.w3.org/2000/svg">
<path d="M0.989166 5H10.6767L10.0975 14.2708C10.071 14.694 9.88423 15.0911 9.57521 15.3814C9.26619 15.6717 8.85815 15.8333 8.43417 15.8333H3.2325C2.80852 15.8333 2.40048 15.6717 2.09146 15.3814C1.78244 15.0911 1.59567 14.694 1.56917 14.2708L0.989166 5ZM11.6667 2.5V4.16667H0V2.5H2.5V1.66667C2.5 1.22464 2.67559 0.800716 2.98816 0.488155C3.30072 0.175595 3.72464 0 4.16667 0H7.5C7.94203 0 8.36595 0.175595 8.67851 0.488155C8.99107 0.800716 9.16667 1.22464 9.16667 1.66667V2.5H11.6667ZM4.16667 2.5H7.5V1.66667H4.16667V2.5Z" fill="#A8A8A8"/>
</svg>
