<svg width="36" height="37" viewBox="0 0 36 37" fill="none" xmlns="http://www.w3.org/2000/svg">
<path d="M9 30.2165C8.175 30.2165 7.469 29.923 6.882 29.336C6.295 28.749 6.001 28.0425 6 27.2165V24.2165C6 23.7915 6.144 23.4355 6.432 23.1485C6.72 22.8615 7.076 22.7175 7.5 22.7165C7.924 22.7155 8.2805 22.8595 8.5695 23.1485C8.8585 23.4375 9.002 23.7935 9 24.2165V27.2165H27V24.2165C27 23.7915 27.144 23.4355 27.432 23.1485C27.72 22.8615 28.076 22.7175 28.5 22.7165C28.924 22.7155 29.2805 22.8595 29.5695 23.1485C29.8585 23.4375 30.002 23.7935 30 24.2165V27.2165C30 28.0415 29.7065 28.748 29.1195 29.336C28.5325 29.924 27.826 30.2175 27 30.2165H9ZM16.5 11.9915L13.6875 14.804C13.3875 15.104 13.0315 15.248 12.6195 15.236C12.2075 15.224 11.851 15.0675 11.55 14.7665C11.275 14.4665 11.131 14.1165 11.118 13.7165C11.105 13.3165 11.249 12.9665 11.55 12.6665L16.95 7.26653C17.1 7.11653 17.2625 7.01053 17.4375 6.94853C17.6125 6.88653 17.8 6.85503 18 6.85403C18.2 6.85303 18.3875 6.88453 18.5625 6.94853C18.7375 7.01253 18.9 7.11853 19.05 7.26653L24.45 12.6665C24.75 12.9665 24.894 13.3165 24.882 13.7165C24.87 14.1165 24.726 14.4665 24.45 14.7665C24.15 15.0665 23.794 15.223 23.382 15.236C22.97 15.249 22.6135 15.105 22.3125 14.804L19.5 11.9915V22.7165C19.5 23.1415 19.356 23.498 19.068 23.786C18.78 24.074 18.424 24.2175 18 24.2165C17.576 24.2155 17.22 24.0715 16.932 23.7845C16.644 23.4975 16.5 23.1415 16.5 22.7165V11.9915Z" fill="white"/>
</svg>
